<svg width="346" height="245" viewBox="0 0 346 245" fill="none" xmlns="http://www.w3.org/2000/svg">
<path d="M16.3516 135.907C16.3516 137.557 15.9027 138.819 15.0049 139.694C14.1117 140.565 12.8242 141 11.1426 141H8.37402V131.006H11.4365C12.9906 131.006 14.1982 131.437 15.0596 132.298C15.9209 133.159 16.3516 134.362 16.3516 135.907ZM15.1211 135.948C15.1211 134.645 14.793 133.663 14.1367 133.002C13.485 132.341 12.5143 132.011 11.2246 132.011H9.53613V139.995H10.9512C12.3366 139.995 13.3779 139.656 14.0752 138.977C14.7725 138.293 15.1211 137.284 15.1211 135.948ZM21.834 133.371C22.1667 133.371 22.4652 133.398 22.7295 133.453L22.5723 134.506C22.2624 134.438 21.9889 134.403 21.752 134.403C21.1458 134.403 20.6263 134.649 20.1934 135.142C19.765 135.634 19.5508 136.247 19.5508 136.98V141H18.416V133.508H19.3525L19.4824 134.896H19.5371C19.8151 134.408 20.1501 134.032 20.542 133.768C20.9339 133.503 21.3646 133.371 21.834 133.371ZM28.7383 141L28.5127 139.934H28.458C28.0843 140.403 27.7106 140.722 27.3369 140.891C26.9678 141.055 26.5052 141.137 25.9492 141.137C25.2064 141.137 24.623 140.945 24.1992 140.562C23.7799 140.18 23.5703 139.635 23.5703 138.929C23.5703 137.416 24.7803 136.623 27.2002 136.55L28.4717 136.509V136.044C28.4717 135.456 28.3441 135.023 28.0889 134.745C27.8382 134.463 27.4349 134.321 26.8789 134.321C26.2546 134.321 25.5482 134.513 24.7598 134.896L24.4111 134.027C24.7803 133.827 25.1836 133.67 25.6211 133.556C26.0632 133.442 26.5052 133.385 26.9473 133.385C27.8405 133.385 28.5013 133.583 28.9297 133.979C29.3626 134.376 29.5791 135.012 29.5791 135.887V141H28.7383ZM26.1748 140.2C26.8812 140.2 27.4349 140.007 27.8359 139.619C28.2415 139.232 28.4443 138.689 28.4443 137.992V137.315L27.3096 137.363C26.4072 137.395 25.7555 137.536 25.3545 137.787C24.958 138.033 24.7598 138.418 24.7598 138.942C24.7598 139.353 24.8828 139.665 25.1289 139.879C25.3796 140.093 25.7282 140.2 26.1748 140.2ZM38.0557 133.508V134.226L36.668 134.39C36.7956 134.549 36.9095 134.759 37.0098 135.019C37.11 135.274 37.1602 135.563 37.1602 135.887C37.1602 136.62 36.9095 137.206 36.4082 137.644C35.9069 138.081 35.2188 138.3 34.3438 138.3C34.1204 138.3 33.9108 138.282 33.7148 138.245C33.2318 138.5 32.9902 138.822 32.9902 139.209C32.9902 139.414 33.0745 139.567 33.2432 139.667C33.4118 139.763 33.7012 139.811 34.1113 139.811H35.4375C36.2487 139.811 36.8708 139.981 37.3037 140.323C37.7412 140.665 37.96 141.162 37.96 141.813C37.96 142.643 37.6273 143.274 36.9619 143.707C36.2965 144.145 35.3258 144.363 34.0498 144.363C33.07 144.363 32.3135 144.181 31.7803 143.816C31.2516 143.452 30.9873 142.937 30.9873 142.271C30.9873 141.816 31.1331 141.422 31.4248 141.089C31.7165 140.756 32.1266 140.531 32.6553 140.412C32.4639 140.326 32.3021 140.191 32.1699 140.009C32.0423 139.826 31.9785 139.615 31.9785 139.373C31.9785 139.1 32.0514 138.86 32.1973 138.655C32.3431 138.45 32.5732 138.252 32.8877 138.061C32.5003 137.901 32.1836 137.63 31.9375 137.247C31.696 136.864 31.5752 136.427 31.5752 135.935C31.5752 135.114 31.8213 134.483 32.3135 134.041C32.8057 133.594 33.5029 133.371 34.4053 133.371C34.7972 133.371 35.1504 133.417 35.4648 133.508H38.0557ZM32.0811 142.258C32.0811 142.663 32.252 142.971 32.5938 143.181C32.9355 143.39 33.4255 143.495 34.0635 143.495C35.016 143.495 35.7201 143.352 36.1758 143.064C36.6361 142.782 36.8662 142.397 36.8662 141.909C36.8662 141.504 36.7409 141.221 36.4902 141.062C36.2396 140.907 35.7679 140.829 35.0752 140.829H33.7148C33.1999 140.829 32.7988 140.952 32.5117 141.198C32.2246 141.444 32.0811 141.798 32.0811 142.258ZM32.6963 135.907C32.6963 136.431 32.8444 136.828 33.1406 137.097C33.4368 137.366 33.8493 137.5 34.3779 137.5C35.4854 137.5 36.0391 136.962 36.0391 135.887C36.0391 134.761 35.4785 134.198 34.3574 134.198C33.8242 134.198 33.4141 134.342 33.127 134.629C32.8398 134.916 32.6963 135.342 32.6963 135.907ZM44.8574 132.995C44.8574 133.31 44.9395 133.61 45.1035 133.897C45.2676 134.18 45.5479 134.522 45.9443 134.923C46.5322 134.581 46.9401 134.267 47.168 133.979C47.4004 133.688 47.5166 133.353 47.5166 132.975C47.5166 132.624 47.3981 132.339 47.1611 132.12C46.9287 131.897 46.6165 131.785 46.2246 131.785C45.819 131.785 45.4886 131.895 45.2334 132.113C44.9827 132.332 44.8574 132.626 44.8574 132.995ZM45.917 140.118C47.0153 140.118 47.9268 139.767 48.6514 139.065L45.6641 136.167C45.1582 136.477 44.8005 136.734 44.5908 136.939C44.3812 137.14 44.2262 137.356 44.126 137.589C44.0257 137.821 43.9756 138.086 43.9756 138.382C43.9756 138.915 44.151 139.339 44.502 139.653C44.8574 139.963 45.3291 140.118 45.917 140.118ZM42.7998 138.409C42.7998 137.817 42.957 137.293 43.2715 136.837C43.5905 136.381 44.1602 135.921 44.9805 135.456C44.5931 135.023 44.3288 134.695 44.1875 134.472C44.0508 134.248 43.9414 134.016 43.8594 133.774C43.7773 133.533 43.7363 133.282 43.7363 133.022C43.7363 132.339 43.9596 131.806 44.4062 131.423C44.8529 131.04 45.4749 130.849 46.2725 130.849C47.0107 130.849 47.5918 131.04 48.0156 131.423C48.4395 131.801 48.6514 132.33 48.6514 133.009C48.6514 133.496 48.4964 133.948 48.1865 134.362C47.8766 134.772 47.3639 135.189 46.6484 135.613L49.4307 138.286C49.6859 138.004 49.8887 137.673 50.0391 137.295C50.194 136.912 50.3239 136.495 50.4287 136.044H51.5771C51.2673 137.347 50.8001 138.336 50.1758 139.011L52.2197 141H50.6543L49.3896 139.783C48.8519 140.266 48.305 140.613 47.749 140.822C47.193 141.032 46.5732 141.137 45.8896 141.137C44.9098 141.137 44.1488 140.895 43.6064 140.412C43.0687 139.929 42.7998 139.261 42.7998 138.409ZM65.2422 135.907C65.2422 137.557 64.7933 138.819 63.8955 139.694C63.0023 140.565 61.7148 141 60.0332 141H57.2646V131.006H60.3271C61.8812 131.006 63.0889 131.437 63.9502 132.298C64.8115 133.159 65.2422 134.362 65.2422 135.907ZM64.0117 135.948C64.0117 134.645 63.6836 133.663 63.0273 133.002C62.3757 132.341 61.4049 132.011 60.1152 132.011H58.4268V139.995H59.8418C61.2272 139.995 62.2686 139.656 62.9658 138.977C63.6631 138.293 64.0117 137.284 64.0117 135.948ZM70.7246 133.371C71.0573 133.371 71.3558 133.398 71.6201 133.453L71.4629 134.506C71.153 134.438 70.8796 134.403 70.6426 134.403C70.0365 134.403 69.5169 134.649 69.084 135.142C68.6556 135.634 68.4414 136.247 68.4414 136.98V141H67.3066V133.508H68.2432L68.373 134.896H68.4277C68.7057 134.408 69.0407 134.032 69.4326 133.768C69.8245 133.503 70.2552 133.371 70.7246 133.371ZM79.4883 137.247C79.4883 138.468 79.1807 139.423 78.5654 140.111C77.9502 140.795 77.1003 141.137 76.0156 141.137C75.3457 141.137 74.751 140.979 74.2314 140.665C73.7119 140.351 73.3109 139.899 73.0283 139.312C72.7458 138.724 72.6045 138.035 72.6045 137.247C72.6045 136.026 72.9098 135.076 73.5205 134.396C74.1312 133.713 74.9788 133.371 76.0635 133.371C77.1117 133.371 77.9434 133.72 78.5586 134.417C79.1784 135.114 79.4883 136.058 79.4883 137.247ZM73.7803 137.247C73.7803 138.204 73.9717 138.933 74.3545 139.435C74.7373 139.936 75.3001 140.187 76.043 140.187C76.7858 140.187 77.3486 139.938 77.7314 139.441C78.1188 138.94 78.3125 138.209 78.3125 137.247C78.3125 136.295 78.1188 135.572 77.7314 135.08C77.3486 134.583 76.7812 134.335 76.0293 134.335C75.2865 134.335 74.7259 134.579 74.3477 135.066C73.9694 135.554 73.7803 136.281 73.7803 137.247ZM84.9707 141.137C84.4831 141.137 84.0365 141.048 83.6309 140.87C83.2298 140.688 82.8926 140.41 82.6191 140.036H82.5371C82.5918 140.474 82.6191 140.888 82.6191 141.28V144.363H81.4844V133.508H82.4072L82.5645 134.533H82.6191C82.9108 134.123 83.2503 133.827 83.6377 133.645C84.0251 133.462 84.4694 133.371 84.9707 133.371C85.9642 133.371 86.7298 133.711 87.2676 134.39C87.8099 135.069 88.0811 136.021 88.0811 137.247C88.0811 138.478 87.8053 139.435 87.2539 140.118C86.707 140.797 85.946 141.137 84.9707 141.137ZM84.8066 134.335C84.041 134.335 83.4873 134.547 83.1455 134.971C82.8037 135.395 82.6283 136.069 82.6191 136.994V137.247C82.6191 138.3 82.7946 139.054 83.1455 139.51C83.4964 139.961 84.0592 140.187 84.834 140.187C85.4811 140.187 85.987 139.924 86.3516 139.4C86.7207 138.876 86.9053 138.154 86.9053 137.233C86.9053 136.299 86.7207 135.584 86.3516 135.087C85.987 134.586 85.472 134.335 84.8066 134.335ZM94.7734 133.508V138.368C94.7734 138.979 94.9124 139.435 95.1904 139.735C95.4684 140.036 95.9036 140.187 96.4961 140.187C97.2799 140.187 97.8519 139.972 98.2119 139.544C98.5765 139.116 98.7588 138.416 98.7588 137.445V133.508H99.8936V141H98.957L98.793 139.995H98.7314C98.499 140.364 98.1755 140.647 97.7607 140.843C97.3506 141.039 96.8812 141.137 96.3525 141.137C95.4411 141.137 94.7575 140.92 94.3018 140.487C93.8506 140.054 93.625 139.362 93.625 138.409V133.508H94.7734ZM107.434 141V136.153C107.434 135.543 107.295 135.087 107.017 134.786C106.739 134.485 106.303 134.335 105.711 134.335C104.927 134.335 104.353 134.547 103.988 134.971C103.624 135.395 103.441 136.094 103.441 137.069V141H102.307V133.508H103.229L103.414 134.533H103.469C103.701 134.164 104.027 133.879 104.446 133.679C104.866 133.474 105.333 133.371 105.848 133.371C106.75 133.371 107.429 133.59 107.885 134.027C108.34 134.46 108.568 135.155 108.568 136.112V141H107.434ZM113.326 140.2C113.527 140.2 113.72 140.187 113.907 140.159C114.094 140.127 114.242 140.095 114.352 140.063V140.932C114.229 140.991 114.046 141.039 113.805 141.075C113.568 141.116 113.354 141.137 113.162 141.137C111.713 141.137 110.988 140.373 110.988 138.847V134.39H109.915V133.843L110.988 133.371L111.467 131.771H112.123V133.508H114.297V134.39H112.123V138.799C112.123 139.25 112.23 139.596 112.444 139.838C112.659 140.079 112.952 140.2 113.326 140.2ZM116.922 133.508V138.368C116.922 138.979 117.061 139.435 117.339 139.735C117.617 140.036 118.052 140.187 118.645 140.187C119.428 140.187 120 139.972 120.36 139.544C120.725 139.116 120.907 138.416 120.907 137.445V133.508H122.042V141H121.105L120.941 139.995H120.88C120.647 140.364 120.324 140.647 119.909 140.843C119.499 141.039 119.03 141.137 118.501 141.137C117.59 141.137 116.906 140.92 116.45 140.487C115.999 140.054 115.773 139.362 115.773 138.409V133.508H116.922ZM125.576 137.165C125.772 136.887 126.071 136.522 126.472 136.071L128.892 133.508H130.238L127.203 136.7L130.45 141H129.076L126.431 137.459L125.576 138.197V141H124.455V130.363H125.576V136.003C125.576 136.254 125.558 136.641 125.521 137.165H125.576ZM143.165 131.006V137.473C143.165 138.612 142.821 139.507 142.133 140.159C141.445 140.811 140.499 141.137 139.296 141.137C138.093 141.137 137.161 140.809 136.5 140.152C135.844 139.496 135.516 138.594 135.516 137.445V131.006H136.678V137.527C136.678 138.361 136.906 139.002 137.361 139.448C137.817 139.895 138.487 140.118 139.371 140.118C140.214 140.118 140.864 139.895 141.319 139.448C141.775 138.997 142.003 138.352 142.003 137.514V131.006H143.165ZM149.133 141.137C148.645 141.137 148.199 141.048 147.793 140.87C147.392 140.688 147.055 140.41 146.781 140.036H146.699C146.754 140.474 146.781 140.888 146.781 141.28V144.363H145.646V133.508H146.569L146.727 134.533H146.781C147.073 134.123 147.412 133.827 147.8 133.645C148.187 133.462 148.632 133.371 149.133 133.371C150.126 133.371 150.892 133.711 151.43 134.39C151.972 135.069 152.243 136.021 152.243 137.247C152.243 138.478 151.967 139.435 151.416 140.118C150.869 140.797 150.108 141.137 149.133 141.137ZM148.969 134.335C148.203 134.335 147.649 134.547 147.308 134.971C146.966 135.395 146.79 136.069 146.781 136.994V137.247C146.781 138.3 146.957 139.054 147.308 139.51C147.659 139.961 148.221 140.187 148.996 140.187C149.643 140.187 150.149 139.924 150.514 139.4C150.883 138.876 151.067 138.154 151.067 137.233C151.067 136.299 150.883 135.584 150.514 135.087C150.149 134.586 149.634 134.335 148.969 134.335ZM155.367 141H154.232V130.363H155.367V141ZM164.24 137.247C164.24 138.468 163.933 139.423 163.317 140.111C162.702 140.795 161.852 141.137 160.768 141.137C160.098 141.137 159.503 140.979 158.983 140.665C158.464 140.351 158.063 139.899 157.78 139.312C157.498 138.724 157.356 138.035 157.356 137.247C157.356 136.026 157.662 135.076 158.272 134.396C158.883 133.713 159.731 133.371 160.815 133.371C161.864 133.371 162.695 133.72 163.311 134.417C163.93 135.114 164.24 136.058 164.24 137.247ZM158.532 137.247C158.532 138.204 158.724 138.933 159.106 139.435C159.489 139.936 160.052 140.187 160.795 140.187C161.538 140.187 162.101 139.938 162.483 139.441C162.871 138.94 163.064 138.209 163.064 137.247C163.064 136.295 162.871 135.572 162.483 135.08C162.101 134.583 161.533 134.335 160.781 134.335C160.038 134.335 159.478 134.579 159.1 135.066C158.721 135.554 158.532 136.281 158.532 137.247ZM170.844 141L170.618 139.934H170.563C170.19 140.403 169.816 140.722 169.442 140.891C169.073 141.055 168.611 141.137 168.055 141.137C167.312 141.137 166.729 140.945 166.305 140.562C165.885 140.18 165.676 139.635 165.676 138.929C165.676 137.416 166.886 136.623 169.306 136.55L170.577 136.509V136.044C170.577 135.456 170.45 135.023 170.194 134.745C169.944 134.463 169.54 134.321 168.984 134.321C168.36 134.321 167.654 134.513 166.865 134.896L166.517 134.027C166.886 133.827 167.289 133.67 167.727 133.556C168.169 133.442 168.611 133.385 169.053 133.385C169.946 133.385 170.607 133.583 171.035 133.979C171.468 134.376 171.685 135.012 171.685 135.887V141H170.844ZM168.28 140.2C168.987 140.2 169.54 140.007 169.941 139.619C170.347 139.232 170.55 138.689 170.55 137.992V137.315L169.415 137.363C168.513 137.395 167.861 137.536 167.46 137.787C167.063 138.033 166.865 138.418 166.865 138.942C166.865 139.353 166.988 139.665 167.234 139.879C167.485 140.093 167.834 140.2 168.28 140.2ZM179.129 139.995H179.067C178.543 140.756 177.759 141.137 176.716 141.137C175.736 141.137 174.973 140.802 174.426 140.132C173.883 139.462 173.612 138.509 173.612 137.274C173.612 136.039 173.886 135.08 174.433 134.396C174.979 133.713 175.741 133.371 176.716 133.371C177.732 133.371 178.511 133.74 179.054 134.479H179.143L179.095 133.938L179.067 133.412V130.363H180.202V141H179.279L179.129 139.995ZM176.859 140.187C177.634 140.187 178.195 139.977 178.541 139.558C178.892 139.134 179.067 138.452 179.067 137.514V137.274C179.067 136.213 178.89 135.456 178.534 135.005C178.183 134.549 177.62 134.321 176.846 134.321C176.18 134.321 175.67 134.581 175.314 135.101C174.964 135.616 174.788 136.345 174.788 137.288C174.788 138.245 174.964 138.967 175.314 139.455C175.665 139.943 176.18 140.187 176.859 140.187ZM190.818 135.764H194.216V140.624C193.687 140.793 193.149 140.92 192.603 141.007C192.056 141.093 191.422 141.137 190.702 141.137C189.189 141.137 188.011 140.688 187.168 139.79C186.325 138.888 185.903 137.625 185.903 136.003C185.903 134.964 186.111 134.055 186.525 133.275C186.945 132.492 187.546 131.895 188.33 131.484C189.114 131.07 190.032 130.862 191.085 130.862C192.151 130.862 193.145 131.058 194.065 131.45L193.614 132.476C192.712 132.093 191.844 131.901 191.01 131.901C189.793 131.901 188.843 132.264 188.159 132.988C187.476 133.713 187.134 134.718 187.134 136.003C187.134 137.352 187.462 138.375 188.118 139.072C188.779 139.77 189.747 140.118 191.023 140.118C191.716 140.118 192.393 140.038 193.054 139.879V136.803H190.818V135.764ZM201.059 141L200.833 139.934H200.778C200.405 140.403 200.031 140.722 199.657 140.891C199.288 141.055 198.826 141.137 198.27 141.137C197.527 141.137 196.943 140.945 196.52 140.562C196.1 140.18 195.891 139.635 195.891 138.929C195.891 137.416 197.101 136.623 199.521 136.55L200.792 136.509V136.044C200.792 135.456 200.664 135.023 200.409 134.745C200.159 134.463 199.755 134.321 199.199 134.321C198.575 134.321 197.868 134.513 197.08 134.896L196.731 134.027C197.101 133.827 197.504 133.67 197.941 133.556C198.383 133.442 198.826 133.385 199.268 133.385C200.161 133.385 200.822 133.583 201.25 133.979C201.683 134.376 201.899 135.012 201.899 135.887V141H201.059ZM198.495 140.2C199.201 140.2 199.755 140.007 200.156 139.619C200.562 139.232 200.765 138.689 200.765 137.992V137.315L199.63 137.363C198.728 137.395 198.076 137.536 197.675 137.787C197.278 138.033 197.08 138.418 197.08 138.942C197.08 139.353 197.203 139.665 197.449 139.879C197.7 140.093 198.049 140.2 198.495 140.2ZM213.794 141V136.126C213.794 135.529 213.666 135.082 213.411 134.786C213.156 134.485 212.759 134.335 212.222 134.335C211.515 134.335 210.993 134.538 210.656 134.943C210.319 135.349 210.15 135.973 210.15 136.816V141H209.016V136.126C209.016 135.529 208.888 135.082 208.633 134.786C208.378 134.485 207.979 134.335 207.437 134.335C206.726 134.335 206.204 134.549 205.871 134.978C205.543 135.401 205.379 136.099 205.379 137.069V141H204.244V133.508H205.167L205.352 134.533H205.406C205.62 134.169 205.921 133.884 206.309 133.679C206.701 133.474 207.138 133.371 207.621 133.371C208.792 133.371 209.558 133.795 209.918 134.643H209.973C210.196 134.251 210.52 133.941 210.943 133.713C211.367 133.485 211.85 133.371 212.393 133.371C213.24 133.371 213.874 133.59 214.293 134.027C214.717 134.46 214.929 135.155 214.929 136.112V141H213.794ZM220.76 133.385C221.744 133.385 222.507 133.722 223.05 134.396C223.597 135.066 223.87 136.017 223.87 137.247C223.87 138.478 223.594 139.435 223.043 140.118C222.496 140.797 221.735 141.137 220.76 141.137C220.272 141.137 219.826 141.048 219.42 140.87C219.019 140.688 218.682 140.41 218.408 140.036H218.326L218.087 141H217.273V130.363H218.408V132.947C218.408 133.526 218.39 134.046 218.354 134.506H218.408C218.937 133.758 219.721 133.385 220.76 133.385ZM220.596 134.335C219.821 134.335 219.263 134.558 218.921 135.005C218.579 135.447 218.408 136.194 218.408 137.247C218.408 138.3 218.584 139.054 218.935 139.51C219.285 139.961 219.848 140.187 220.623 140.187C221.32 140.187 221.84 139.934 222.182 139.428C222.523 138.917 222.694 138.186 222.694 137.233C222.694 136.258 222.523 135.531 222.182 135.053C221.84 134.574 221.311 134.335 220.596 134.335ZM230.467 141L230.241 139.934H230.187C229.813 140.403 229.439 140.722 229.065 140.891C228.696 141.055 228.234 141.137 227.678 141.137C226.935 141.137 226.352 140.945 225.928 140.562C225.508 140.18 225.299 139.635 225.299 138.929C225.299 137.416 226.509 136.623 228.929 136.55L230.2 136.509V136.044C230.2 135.456 230.073 135.023 229.817 134.745C229.567 134.463 229.163 134.321 228.607 134.321C227.983 134.321 227.277 134.513 226.488 134.896L226.14 134.027C226.509 133.827 226.912 133.67 227.35 133.556C227.792 133.442 228.234 133.385 228.676 133.385C229.569 133.385 230.23 133.583 230.658 133.979C231.091 134.376 231.308 135.012 231.308 135.887V141H230.467ZM227.903 140.2C228.61 140.2 229.163 140.007 229.564 139.619C229.97 139.232 230.173 138.689 230.173 137.992V137.315L229.038 137.363C228.136 137.395 227.484 137.536 227.083 137.787C226.687 138.033 226.488 138.418 226.488 138.942C226.488 139.353 226.611 139.665 226.857 139.879C227.108 140.093 227.457 140.2 227.903 140.2ZM237.07 133.371C237.403 133.371 237.701 133.398 237.966 133.453L237.809 134.506C237.499 134.438 237.225 134.403 236.988 134.403C236.382 134.403 235.863 134.649 235.43 135.142C235.001 135.634 234.787 136.247 234.787 136.98V141H233.652V133.508H234.589L234.719 134.896H234.773C235.051 134.408 235.386 134.032 235.778 133.768C236.17 133.503 236.601 133.371 237.07 133.371ZM249.457 141L248.213 137.821H244.207L242.977 141H241.801L245.752 130.965H246.729L250.66 141H249.457ZM247.851 136.775L246.688 133.679C246.538 133.287 246.383 132.806 246.224 132.236C246.123 132.674 245.98 133.155 245.793 133.679L244.617 136.775H247.851ZM255.35 141.137C254.862 141.137 254.415 141.048 254.01 140.87C253.609 140.688 253.271 140.41 252.998 140.036H252.916C252.971 140.474 252.998 140.888 252.998 141.28V144.363H251.863V133.508H252.786L252.943 134.533H252.998C253.29 134.123 253.629 133.827 254.017 133.645C254.404 133.462 254.848 133.371 255.35 133.371C256.343 133.371 257.109 133.711 257.646 134.39C258.189 135.069 258.46 136.021 258.46 137.247C258.46 138.478 258.184 139.435 257.633 140.118C257.086 140.797 256.325 141.137 255.35 141.137ZM255.186 134.335C254.42 134.335 253.866 134.547 253.524 134.971C253.183 135.395 253.007 136.069 252.998 136.994V137.247C252.998 138.3 253.174 139.054 253.524 139.51C253.875 139.961 254.438 140.187 255.213 140.187C255.86 140.187 256.366 139.924 256.73 139.4C257.1 138.876 257.284 138.154 257.284 137.233C257.284 136.299 257.1 135.584 256.73 135.087C256.366 134.586 255.851 134.335 255.186 134.335ZM261.584 141H260.449V130.363H261.584V141ZM265.125 141H263.99V133.508H265.125V141ZM263.895 131.478C263.895 131.218 263.958 131.029 264.086 130.91C264.214 130.787 264.373 130.726 264.564 130.726C264.747 130.726 264.904 130.787 265.036 130.91C265.168 131.033 265.234 131.222 265.234 131.478C265.234 131.733 265.168 131.924 265.036 132.052C264.904 132.175 264.747 132.236 264.564 132.236C264.373 132.236 264.214 132.175 264.086 132.052C263.958 131.924 263.895 131.733 263.895 131.478ZM268.652 137.165C268.848 136.887 269.147 136.522 269.548 136.071L271.968 133.508H273.314L270.279 136.7L273.526 141H272.152L269.507 137.459L268.652 138.197V141H267.531V130.363H268.652V136.003C268.652 136.254 268.634 136.641 268.598 137.165H268.652ZM279.494 141L279.269 139.934H279.214C278.84 140.403 278.466 140.722 278.093 140.891C277.724 141.055 277.261 141.137 276.705 141.137C275.962 141.137 275.379 140.945 274.955 140.562C274.536 140.18 274.326 139.635 274.326 138.929C274.326 137.416 275.536 136.623 277.956 136.55L279.228 136.509V136.044C279.228 135.456 279.1 135.023 278.845 134.745C278.594 134.463 278.191 134.321 277.635 134.321C277.01 134.321 276.304 134.513 275.516 134.896L275.167 134.027C275.536 133.827 275.939 133.67 276.377 133.556C276.819 133.442 277.261 133.385 277.703 133.385C278.596 133.385 279.257 133.583 279.686 133.979C280.118 134.376 280.335 135.012 280.335 135.887V141H279.494ZM276.931 140.2C277.637 140.2 278.191 140.007 278.592 139.619C278.997 139.232 279.2 138.689 279.2 137.992V137.315L278.065 137.363C277.163 137.395 276.511 137.536 276.11 137.787C275.714 138.033 275.516 138.418 275.516 138.942C275.516 139.353 275.639 139.665 275.885 139.879C276.135 140.093 276.484 140.2 276.931 140.2ZM287.513 138.956C287.513 139.653 287.253 140.191 286.733 140.569C286.214 140.948 285.485 141.137 284.546 141.137C283.552 141.137 282.778 140.979 282.222 140.665V139.612C282.582 139.795 282.967 139.938 283.377 140.043C283.792 140.148 284.19 140.2 284.573 140.2C285.166 140.2 285.621 140.107 285.94 139.92C286.259 139.729 286.419 139.439 286.419 139.052C286.419 138.76 286.291 138.512 286.036 138.307C285.785 138.097 285.293 137.851 284.56 137.568C283.862 137.309 283.366 137.083 283.069 136.892C282.778 136.696 282.559 136.475 282.413 136.229C282.272 135.982 282.201 135.688 282.201 135.347C282.201 134.736 282.45 134.255 282.946 133.904C283.443 133.549 284.124 133.371 284.99 133.371C285.797 133.371 286.585 133.535 287.355 133.863L286.952 134.786C286.2 134.476 285.519 134.321 284.908 134.321C284.37 134.321 283.965 134.406 283.691 134.574C283.418 134.743 283.281 134.975 283.281 135.271C283.281 135.472 283.331 135.643 283.432 135.784C283.536 135.925 283.703 136.06 283.931 136.188C284.159 136.315 284.596 136.5 285.243 136.741C286.132 137.065 286.731 137.391 287.041 137.719C287.355 138.047 287.513 138.459 287.513 138.956ZM290.5 141H289.365V133.508H290.5V141ZM289.27 131.478C289.27 131.218 289.333 131.029 289.461 130.91C289.589 130.787 289.748 130.726 289.939 130.726C290.122 130.726 290.279 130.787 290.411 130.91C290.543 131.033 290.609 131.222 290.609 131.478C290.609 131.733 290.543 131.924 290.411 132.052C290.279 132.175 290.122 132.236 289.939 132.236C289.748 132.236 289.589 132.175 289.461 132.052C289.333 131.924 289.27 131.733 289.27 131.478ZM301.137 141L297.746 132.141H297.691C297.755 132.842 297.787 133.676 297.787 134.643V141H296.714V131.006H298.464L301.629 139.25H301.684L304.876 131.006H306.612V141H305.45V134.561C305.45 133.822 305.482 133.02 305.546 132.154H305.491L302.073 141H301.137ZM315.656 137.247C315.656 138.468 315.349 139.423 314.733 140.111C314.118 140.795 313.268 141.137 312.184 141.137C311.514 141.137 310.919 140.979 310.399 140.665C309.88 140.351 309.479 139.899 309.196 139.312C308.914 138.724 308.772 138.035 308.772 137.247C308.772 136.026 309.078 135.076 309.688 134.396C310.299 133.713 311.147 133.371 312.231 133.371C313.28 133.371 314.111 133.72 314.727 134.417C315.346 135.114 315.656 136.058 315.656 137.247ZM309.948 137.247C309.948 138.204 310.14 138.933 310.522 139.435C310.905 139.936 311.468 140.187 312.211 140.187C312.954 140.187 313.517 139.938 313.899 139.441C314.287 138.94 314.48 138.209 314.48 137.247C314.48 136.295 314.287 135.572 313.899 135.08C313.517 134.583 312.949 134.335 312.197 134.335C311.454 134.335 310.894 134.579 310.516 135.066C310.137 135.554 309.948 136.281 309.948 137.247ZM321.139 133.385C322.123 133.385 322.886 133.722 323.429 134.396C323.976 135.066 324.249 136.017 324.249 137.247C324.249 138.478 323.973 139.435 323.422 140.118C322.875 140.797 322.114 141.137 321.139 141.137C320.651 141.137 320.204 141.048 319.799 140.87C319.398 140.688 319.061 140.41 318.787 140.036H318.705L318.466 141H317.652V130.363H318.787V132.947C318.787 133.526 318.769 134.046 318.732 134.506H318.787C319.316 133.758 320.1 133.385 321.139 133.385ZM320.975 134.335C320.2 134.335 319.642 134.558 319.3 135.005C318.958 135.447 318.787 136.194 318.787 137.247C318.787 138.3 318.963 139.054 319.313 139.51C319.664 139.961 320.227 140.187 321.002 140.187C321.699 140.187 322.219 139.934 322.561 139.428C322.902 138.917 323.073 138.186 323.073 137.233C323.073 136.258 322.902 135.531 322.561 135.053C322.219 134.574 321.69 134.335 320.975 134.335ZM327.373 141H326.238V133.508H327.373V141ZM326.143 131.478C326.143 131.218 326.206 131.029 326.334 130.91C326.462 130.787 326.621 130.726 326.812 130.726C326.995 130.726 327.152 130.787 327.284 130.91C327.416 131.033 327.482 131.222 327.482 131.478C327.482 131.733 327.416 131.924 327.284 132.052C327.152 132.175 326.995 132.236 326.812 132.236C326.621 132.236 326.462 132.175 326.334 132.052C326.206 131.924 326.143 131.733 326.143 131.478ZM330.914 141H329.779V130.363H330.914V141ZM336.485 141.137C335.378 141.137 334.503 140.799 333.86 140.125C333.222 139.451 332.903 138.514 332.903 137.315C332.903 136.108 333.2 135.148 333.792 134.438C334.389 133.727 335.189 133.371 336.191 133.371C337.13 133.371 337.873 133.681 338.42 134.301C338.967 134.916 339.24 135.729 339.24 136.741V137.459H334.079C334.102 138.339 334.323 139.006 334.742 139.462C335.166 139.918 335.761 140.146 336.526 140.146C337.333 140.146 338.131 139.977 338.919 139.64V140.651C338.518 140.825 338.137 140.948 337.777 141.021C337.422 141.098 336.991 141.137 336.485 141.137ZM336.178 134.321C335.576 134.321 335.095 134.517 334.735 134.909C334.38 135.301 334.17 135.843 334.106 136.536H338.023C338.023 135.821 337.864 135.274 337.545 134.896C337.226 134.513 336.77 134.321 336.178 134.321Z" fill="#1F2A36"/>
<path d="M41.5625 170L40.4961 167.275H37.0625L36.0078 170H35L38.3867 161.398H39.2246L42.5938 170H41.5625ZM40.1855 166.379L39.1895 163.725C39.0605 163.389 38.9277 162.977 38.791 162.488C38.7051 162.863 38.582 163.275 38.4219 163.725L37.4141 166.379H40.1855ZM45.6992 169.314C45.8711 169.314 46.0371 169.303 46.1973 169.279C46.3574 169.252 46.4844 169.225 46.5781 169.197V169.941C46.4727 169.992 46.3164 170.033 46.1094 170.064C45.9062 170.1 45.7227 170.117 45.5586 170.117C44.3164 170.117 43.6953 169.463 43.6953 168.154V164.334H42.7754V163.865L43.6953 163.461L44.1055 162.09H44.668V163.578H46.5312V164.334H44.668V168.113C44.668 168.5 44.7598 168.797 44.9434 169.004C45.127 169.211 45.3789 169.314 45.6992 169.314ZM51.8164 170L51.623 169.086H51.5762C51.2559 169.488 50.9355 169.762 50.6152 169.906C50.2988 170.047 49.9023 170.117 49.4258 170.117C48.7891 170.117 48.2891 169.953 47.9258 169.625C47.5664 169.297 47.3867 168.83 47.3867 168.225C47.3867 166.928 48.4238 166.248 50.498 166.186L51.5879 166.15V165.752C51.5879 165.248 51.4785 164.877 51.2598 164.639C51.0449 164.396 50.6992 164.275 50.2227 164.275C49.6875 164.275 49.082 164.439 48.4062 164.768L48.1074 164.023C48.4238 163.852 48.7695 163.717 49.1445 163.619C49.5234 163.521 49.9023 163.473 50.2812 163.473C51.0469 163.473 51.6133 163.643 51.9805 163.982C52.3516 164.322 52.5371 164.867 52.5371 165.617V170H51.8164ZM49.6191 169.314C50.2246 169.314 50.6992 169.148 51.043 168.816C51.3906 168.484 51.5645 168.02 51.5645 167.422V166.842L50.5918 166.883C49.8184 166.91 49.2598 167.031 48.916 167.246C48.5762 167.457 48.4062 167.787 48.4062 168.236C48.4062 168.588 48.5117 168.855 48.7227 169.039C48.9375 169.223 49.2363 169.314 49.6191 169.314ZM55.4609 163.578V167.744C55.4609 168.268 55.5801 168.658 55.8184 168.916C56.0566 169.174 56.4297 169.303 56.9375 169.303C57.6094 169.303 58.0996 169.119 58.4082 168.752C58.7207 168.385 58.877 167.785 58.877 166.953V163.578H59.8496V170H59.0469L58.9062 169.139H58.8535C58.6543 169.455 58.377 169.697 58.0215 169.865C57.6699 170.033 57.2676 170.117 56.8145 170.117C56.0332 170.117 55.4473 169.932 55.0566 169.561C54.6699 169.189 54.4766 168.596 54.4766 167.779V163.578H55.4609ZM67.6016 170.117C66.6719 170.117 65.9512 169.832 65.4395 169.262C64.9316 168.688 64.6777 167.877 64.6777 166.83C64.6777 165.756 64.9355 164.926 65.4512 164.34C65.9707 163.754 66.709 163.461 67.666 163.461C67.9746 163.461 68.2832 163.494 68.5918 163.561C68.9004 163.627 69.1426 163.705 69.3184 163.795L69.0195 164.621C68.8047 164.535 68.5703 164.465 68.3164 164.41C68.0625 164.352 67.8379 164.322 67.6426 164.322C66.3379 164.322 65.6855 165.154 65.6855 166.818C65.6855 167.607 65.8438 168.213 66.1602 168.635C66.4805 169.057 66.9531 169.268 67.5781 169.268C68.1133 169.268 68.6621 169.152 69.2246 168.922V169.783C68.7949 170.006 68.2539 170.117 67.6016 170.117ZM74.7031 170L74.5098 169.086H74.4629C74.1426 169.488 73.8223 169.762 73.502 169.906C73.1855 170.047 72.7891 170.117 72.3125 170.117C71.6758 170.117 71.1758 169.953 70.8125 169.625C70.4531 169.297 70.2734 168.83 70.2734 168.225C70.2734 166.928 71.3105 166.248 73.3848 166.186L74.4746 166.15V165.752C74.4746 165.248 74.3652 164.877 74.1465 164.639C73.9316 164.396 73.5859 164.275 73.1094 164.275C72.5742 164.275 71.9688 164.439 71.293 164.768L70.9941 164.023C71.3105 163.852 71.6562 163.717 72.0312 163.619C72.4102 163.521 72.7891 163.473 73.168 163.473C73.9336 163.473 74.5 163.643 74.8672 163.982C75.2383 164.322 75.4238 164.867 75.4238 165.617V170H74.7031ZM72.5059 169.314C73.1113 169.314 73.5859 169.148 73.9297 168.816C74.2773 168.484 74.4512 168.02 74.4512 167.422V166.842L73.4785 166.883C72.7051 166.91 72.1465 167.031 71.8027 167.246C71.4629 167.457 71.293 167.787 71.293 168.236C71.293 168.588 71.3984 168.855 71.6094 169.039C71.8242 169.223 72.123 169.314 72.5059 169.314ZM80.3633 163.461C80.6484 163.461 80.9043 163.484 81.1309 163.531L80.9961 164.434C80.7305 164.375 80.4961 164.346 80.293 164.346C79.7734 164.346 79.3281 164.557 78.957 164.979C78.5898 165.4 78.4062 165.926 78.4062 166.555V170H77.4336V163.578H78.2363L78.3477 164.768H78.3945C78.6328 164.35 78.9199 164.027 79.2559 163.801C79.5918 163.574 79.9609 163.461 80.3633 163.461ZM83.3047 170H82.332V163.578H83.3047V170ZM82.25 161.838C82.25 161.615 82.3047 161.453 82.4141 161.352C82.5234 161.246 82.6602 161.193 82.8242 161.193C82.9805 161.193 83.1152 161.246 83.2285 161.352C83.3418 161.457 83.3984 161.619 83.3984 161.838C83.3984 162.057 83.3418 162.221 83.2285 162.33C83.1152 162.436 82.9805 162.488 82.8242 162.488C82.6602 162.488 82.5234 162.436 82.4141 162.33C82.3047 162.221 82.25 162.057 82.25 161.838ZM89.3984 163.578V167.744C89.3984 168.268 89.5176 168.658 89.7559 168.916C89.9941 169.174 90.3672 169.303 90.875 169.303C91.5469 169.303 92.0371 169.119 92.3457 168.752C92.6582 168.385 92.8145 167.785 92.8145 166.953V163.578H93.7871V170H92.9844L92.8438 169.139H92.791C92.5918 169.455 92.3145 169.697 91.959 169.865C91.6074 170.033 91.2051 170.117 90.752 170.117C89.9707 170.117 89.3848 169.932 88.9941 169.561C88.6074 169.189 88.4141 168.596 88.4141 167.779V163.578H89.3984ZM100.25 170V165.846C100.25 165.322 100.131 164.932 99.8926 164.674C99.6543 164.416 99.2812 164.287 98.7734 164.287C98.1016 164.287 97.6094 164.469 97.2969 164.832C96.9844 165.195 96.8281 165.795 96.8281 166.631V170H95.8555V163.578H96.6465L96.8047 164.457H96.8516C97.0508 164.141 97.3301 163.896 97.6895 163.725C98.0488 163.549 98.4492 163.461 98.8906 163.461C99.6641 163.461 100.246 163.648 100.637 164.023C101.027 164.395 101.223 164.99 101.223 165.811V170H100.25ZM105.301 169.314C105.473 169.314 105.639 169.303 105.799 169.279C105.959 169.252 106.086 169.225 106.18 169.197V169.941C106.074 169.992 105.918 170.033 105.711 170.064C105.508 170.1 105.324 170.117 105.16 170.117C103.918 170.117 103.297 169.463 103.297 168.154V164.334H102.377V163.865L103.297 163.461L103.707 162.09H104.27V163.578H106.133V164.334H104.27V168.113C104.27 168.5 104.361 168.797 104.545 169.004C104.729 169.211 104.98 169.314 105.301 169.314ZM108.383 163.578V167.744C108.383 168.268 108.502 168.658 108.74 168.916C108.979 169.174 109.352 169.303 109.859 169.303C110.531 169.303 111.021 169.119 111.33 168.752C111.643 168.385 111.799 167.785 111.799 166.953V163.578H112.771V170H111.969L111.828 169.139H111.775C111.576 169.455 111.299 169.697 110.943 169.865C110.592 170.033 110.189 170.117 109.736 170.117C108.955 170.117 108.369 169.932 107.979 169.561C107.592 169.189 107.398 168.596 107.398 167.779V163.578H108.383ZM115.801 166.713C115.969 166.475 116.225 166.162 116.568 165.775L118.643 163.578H119.797L117.195 166.314L119.979 170H118.801L116.533 166.965L115.801 167.598V170H114.84V160.883H115.801V165.717C115.801 165.932 115.785 166.264 115.754 166.713H115.801ZM132.447 170V165.822C132.447 165.311 132.338 164.928 132.119 164.674C131.9 164.416 131.561 164.287 131.1 164.287C130.494 164.287 130.047 164.461 129.758 164.809C129.469 165.156 129.324 165.691 129.324 166.414V170H128.352V165.822C128.352 165.311 128.242 164.928 128.023 164.674C127.805 164.416 127.463 164.287 126.998 164.287C126.389 164.287 125.941 164.471 125.656 164.838C125.375 165.201 125.234 165.799 125.234 166.631V170H124.262V163.578H125.053L125.211 164.457H125.258C125.441 164.145 125.699 163.9 126.031 163.725C126.367 163.549 126.742 163.461 127.156 163.461C128.16 163.461 128.816 163.824 129.125 164.551H129.172C129.363 164.215 129.641 163.949 130.004 163.754C130.367 163.559 130.781 163.461 131.246 163.461C131.973 163.461 132.516 163.648 132.875 164.023C133.238 164.395 133.42 164.99 133.42 165.811V170H132.447ZM138.143 170.117C137.193 170.117 136.443 169.828 135.893 169.25C135.346 168.672 135.072 167.869 135.072 166.842C135.072 165.807 135.326 164.984 135.834 164.375C136.346 163.766 137.031 163.461 137.891 163.461C138.695 163.461 139.332 163.727 139.801 164.258C140.27 164.785 140.504 165.482 140.504 166.35V166.965H136.08C136.1 167.719 136.289 168.291 136.648 168.682C137.012 169.072 137.521 169.268 138.178 169.268C138.869 169.268 139.553 169.123 140.229 168.834V169.701C139.885 169.85 139.559 169.955 139.25 170.018C138.945 170.084 138.576 170.117 138.143 170.117ZM137.879 164.275C137.363 164.275 136.951 164.443 136.643 164.779C136.338 165.115 136.158 165.58 136.104 166.174H139.461C139.461 165.561 139.324 165.092 139.051 164.768C138.777 164.439 138.387 164.275 137.879 164.275ZM146.562 170V165.846C146.562 165.322 146.443 164.932 146.205 164.674C145.967 164.416 145.594 164.287 145.086 164.287C144.414 164.287 143.922 164.469 143.609 164.832C143.297 165.195 143.141 165.795 143.141 166.631V170H142.168V163.578H142.959L143.117 164.457H143.164C143.363 164.141 143.643 163.896 144.002 163.725C144.361 163.549 144.762 163.461 145.203 163.461C145.977 163.461 146.559 163.648 146.949 164.023C147.34 164.395 147.535 164.99 147.535 165.811V170H146.562ZM154.795 163.578V164.193L153.605 164.334C153.715 164.471 153.812 164.65 153.898 164.873C153.984 165.092 154.027 165.34 154.027 165.617C154.027 166.246 153.812 166.748 153.383 167.123C152.953 167.498 152.363 167.686 151.613 167.686C151.422 167.686 151.242 167.67 151.074 167.639C150.66 167.857 150.453 168.133 150.453 168.465C150.453 168.641 150.525 168.771 150.67 168.857C150.814 168.939 151.062 168.98 151.414 168.98H152.551C153.246 168.98 153.779 169.127 154.15 169.42C154.525 169.713 154.713 170.139 154.713 170.697C154.713 171.408 154.428 171.949 153.857 172.32C153.287 172.695 152.455 172.883 151.361 172.883C150.521 172.883 149.873 172.727 149.416 172.414C148.963 172.102 148.736 171.66 148.736 171.09C148.736 170.699 148.861 170.361 149.111 170.076C149.361 169.791 149.713 169.598 150.166 169.496C150.002 169.422 149.863 169.307 149.75 169.15C149.641 168.994 149.586 168.812 149.586 168.605C149.586 168.371 149.648 168.166 149.773 167.99C149.898 167.814 150.096 167.645 150.365 167.48C150.033 167.344 149.762 167.111 149.551 166.783C149.344 166.455 149.24 166.08 149.24 165.658C149.24 164.955 149.451 164.414 149.873 164.035C150.295 163.652 150.893 163.461 151.666 163.461C152.002 163.461 152.305 163.5 152.574 163.578H154.795ZM149.674 171.078C149.674 171.426 149.82 171.689 150.113 171.869C150.406 172.049 150.826 172.139 151.373 172.139C152.189 172.139 152.793 172.016 153.184 171.77C153.578 171.527 153.775 171.197 153.775 170.779C153.775 170.432 153.668 170.189 153.453 170.053C153.238 169.92 152.834 169.854 152.24 169.854H151.074C150.633 169.854 150.289 169.959 150.043 170.17C149.797 170.381 149.674 170.684 149.674 171.078ZM150.201 165.635C150.201 166.084 150.328 166.424 150.582 166.654C150.836 166.885 151.189 167 151.643 167C152.592 167 153.066 166.539 153.066 165.617C153.066 164.652 152.586 164.17 151.625 164.17C151.168 164.17 150.816 164.293 150.57 164.539C150.324 164.785 150.201 165.15 150.201 165.635ZM157.027 163.578V167.744C157.027 168.268 157.146 168.658 157.385 168.916C157.623 169.174 157.996 169.303 158.504 169.303C159.176 169.303 159.666 169.119 159.975 168.752C160.287 168.385 160.443 167.785 160.443 166.953V163.578H161.416V170H160.613L160.473 169.139H160.42C160.221 169.455 159.943 169.697 159.588 169.865C159.236 170.033 158.834 170.117 158.381 170.117C157.6 170.117 157.014 169.932 156.623 169.561C156.236 169.189 156.043 168.596 156.043 167.779V163.578H157.027ZM166.473 170.117C166.055 170.117 165.672 170.041 165.324 169.889C164.98 169.732 164.691 169.494 164.457 169.174H164.387C164.434 169.549 164.457 169.904 164.457 170.24V172.883H163.484V163.578H164.275L164.41 164.457H164.457C164.707 164.105 164.998 163.852 165.33 163.695C165.662 163.539 166.043 163.461 166.473 163.461C167.324 163.461 167.98 163.752 168.441 164.334C168.906 164.916 169.139 165.732 169.139 166.783C169.139 167.838 168.902 168.658 168.43 169.244C167.961 169.826 167.309 170.117 166.473 170.117ZM166.332 164.287C165.676 164.287 165.201 164.469 164.908 164.832C164.615 165.195 164.465 165.773 164.457 166.566V166.783C164.457 167.686 164.607 168.332 164.908 168.723C165.209 169.109 165.691 169.303 166.355 169.303C166.91 169.303 167.344 169.078 167.656 168.629C167.973 168.18 168.131 167.561 168.131 166.771C168.131 165.971 167.973 165.357 167.656 164.932C167.344 164.502 166.902 164.287 166.332 164.287ZM171.816 170H170.844V160.883H171.816V170ZM179.422 166.783C179.422 167.83 179.158 168.648 178.631 169.238C178.104 169.824 177.375 170.117 176.445 170.117C175.871 170.117 175.361 169.982 174.916 169.713C174.471 169.443 174.127 169.057 173.885 168.553C173.643 168.049 173.521 167.459 173.521 166.783C173.521 165.736 173.783 164.922 174.307 164.34C174.83 163.754 175.557 163.461 176.486 163.461C177.385 163.461 178.098 163.76 178.625 164.357C179.156 164.955 179.422 165.764 179.422 166.783ZM174.529 166.783C174.529 167.604 174.693 168.229 175.021 168.658C175.35 169.088 175.832 169.303 176.469 169.303C177.105 169.303 177.588 169.09 177.916 168.664C178.248 168.234 178.414 167.607 178.414 166.783C178.414 165.967 178.248 165.348 177.916 164.926C177.588 164.5 177.102 164.287 176.457 164.287C175.82 164.287 175.34 164.496 175.016 164.914C174.691 165.332 174.529 165.955 174.529 166.783ZM185.082 170L184.889 169.086H184.842C184.521 169.488 184.201 169.762 183.881 169.906C183.564 170.047 183.168 170.117 182.691 170.117C182.055 170.117 181.555 169.953 181.191 169.625C180.832 169.297 180.652 168.83 180.652 168.225C180.652 166.928 181.689 166.248 183.764 166.186L184.854 166.15V165.752C184.854 165.248 184.744 164.877 184.525 164.639C184.311 164.396 183.965 164.275 183.488 164.275C182.953 164.275 182.348 164.439 181.672 164.768L181.373 164.023C181.689 163.852 182.035 163.717 182.41 163.619C182.789 163.521 183.168 163.473 183.547 163.473C184.312 163.473 184.879 163.643 185.246 163.982C185.617 164.322 185.803 164.867 185.803 165.617V170H185.082ZM182.885 169.314C183.49 169.314 183.965 169.148 184.309 168.816C184.656 168.484 184.83 168.02 184.83 167.422V166.842L183.857 166.883C183.084 166.91 182.525 167.031 182.182 167.246C181.842 167.457 181.672 167.787 181.672 168.236C181.672 168.588 181.777 168.855 181.988 169.039C182.203 169.223 182.502 169.314 182.885 169.314ZM192.184 169.139H192.131C191.682 169.791 191.01 170.117 190.115 170.117C189.275 170.117 188.621 169.83 188.152 169.256C187.688 168.682 187.455 167.865 187.455 166.807C187.455 165.748 187.689 164.926 188.158 164.34C188.627 163.754 189.279 163.461 190.115 163.461C190.986 163.461 191.654 163.777 192.119 164.41H192.195L192.154 163.947L192.131 163.496V160.883H193.104V170H192.312L192.184 169.139ZM190.238 169.303C190.902 169.303 191.383 169.123 191.68 168.764C191.98 168.4 192.131 167.816 192.131 167.012V166.807C192.131 165.896 191.979 165.248 191.674 164.861C191.373 164.471 190.891 164.275 190.227 164.275C189.656 164.275 189.219 164.498 188.914 164.943C188.613 165.385 188.463 166.01 188.463 166.818C188.463 167.639 188.613 168.258 188.914 168.676C189.215 169.094 189.656 169.303 190.238 169.303ZM201.184 164.334H199.549V170H198.576V164.334H197.428V163.895L198.576 163.543V163.186C198.576 161.607 199.266 160.818 200.645 160.818C200.984 160.818 201.383 160.887 201.84 161.023L201.588 161.803C201.213 161.682 200.893 161.621 200.627 161.621C200.26 161.621 199.988 161.744 199.812 161.99C199.637 162.232 199.549 162.623 199.549 163.162V163.578H201.184V164.334ZM203.328 170H202.355V163.578H203.328V170ZM202.273 161.838C202.273 161.615 202.328 161.453 202.438 161.352C202.547 161.246 202.684 161.193 202.848 161.193C203.004 161.193 203.139 161.246 203.252 161.352C203.365 161.457 203.422 161.619 203.422 161.838C203.422 162.057 203.365 162.221 203.252 162.33C203.139 162.436 203.004 162.488 202.848 162.488C202.684 162.488 202.547 162.436 202.438 162.33C202.328 162.221 202.273 162.057 202.273 161.838ZM206.363 170H205.391V160.883H206.363V170ZM211.139 170.117C210.189 170.117 209.439 169.828 208.889 169.25C208.342 168.672 208.068 167.869 208.068 166.842C208.068 165.807 208.322 164.984 208.83 164.375C209.342 163.766 210.027 163.461 210.887 163.461C211.691 163.461 212.328 163.727 212.797 164.258C213.266 164.785 213.5 165.482 213.5 166.35V166.965H209.076C209.096 167.719 209.285 168.291 209.645 168.682C210.008 169.072 210.518 169.268 211.174 169.268C211.865 169.268 212.549 169.123 213.225 168.834V169.701C212.881 169.85 212.555 169.955 212.246 170.018C211.941 170.084 211.572 170.117 211.139 170.117ZM210.875 164.275C210.359 164.275 209.947 164.443 209.639 164.779C209.334 165.115 209.154 165.58 209.1 166.174H212.457C212.457 165.561 212.32 165.092 212.047 164.768C211.773 164.439 211.383 164.275 210.875 164.275ZM222.652 169.139H222.6C222.15 169.791 221.479 170.117 220.584 170.117C219.744 170.117 219.09 169.83 218.621 169.256C218.156 168.682 217.924 167.865 217.924 166.807C217.924 165.748 218.158 164.926 218.627 164.34C219.096 163.754 219.748 163.461 220.584 163.461C221.455 163.461 222.123 163.777 222.588 164.41H222.664L222.623 163.947L222.6 163.496V160.883H223.572V170H222.781L222.652 169.139ZM220.707 169.303C221.371 169.303 221.852 169.123 222.148 168.764C222.449 168.4 222.6 167.816 222.6 167.012V166.807C222.6 165.896 222.447 165.248 222.143 164.861C221.842 164.471 221.359 164.275 220.695 164.275C220.125 164.275 219.688 164.498 219.383 164.943C219.082 165.385 218.932 166.01 218.932 166.818C218.932 167.639 219.082 168.258 219.383 168.676C219.684 169.094 220.125 169.303 220.707 169.303ZM229.59 170L229.396 169.086H229.35C229.029 169.488 228.709 169.762 228.389 169.906C228.072 170.047 227.676 170.117 227.199 170.117C226.562 170.117 226.062 169.953 225.699 169.625C225.34 169.297 225.16 168.83 225.16 168.225C225.16 166.928 226.197 166.248 228.271 166.186L229.361 166.15V165.752C229.361 165.248 229.252 164.877 229.033 164.639C228.818 164.396 228.473 164.275 227.996 164.275C227.461 164.275 226.855 164.439 226.18 164.768L225.881 164.023C226.197 163.852 226.543 163.717 226.918 163.619C227.297 163.521 227.676 163.473 228.055 163.473C228.82 163.473 229.387 163.643 229.754 163.982C230.125 164.322 230.311 164.867 230.311 165.617V170H229.59ZM227.393 169.314C227.998 169.314 228.473 169.148 228.816 168.816C229.164 168.484 229.338 168.02 229.338 167.422V166.842L228.365 166.883C227.592 166.91 227.033 167.031 226.689 167.246C226.35 167.457 226.18 167.787 226.18 168.236C226.18 168.588 226.285 168.855 226.496 169.039C226.711 169.223 227.01 169.314 227.393 169.314ZM235.25 163.461C235.535 163.461 235.791 163.484 236.018 163.531L235.883 164.434C235.617 164.375 235.383 164.346 235.18 164.346C234.66 164.346 234.215 164.557 233.844 164.979C233.477 165.4 233.293 165.926 233.293 166.555V170H232.32V163.578H233.123L233.234 164.768H233.281C233.52 164.35 233.807 164.027 234.143 163.801C234.479 163.574 234.848 163.461 235.25 163.461ZM238.191 170H237.219V163.578H238.191V170ZM237.137 161.838C237.137 161.615 237.191 161.453 237.301 161.352C237.41 161.246 237.547 161.193 237.711 161.193C237.867 161.193 238.002 161.246 238.115 161.352C238.229 161.457 238.285 161.619 238.285 161.838C238.285 162.057 238.229 162.221 238.115 162.33C238.002 162.436 237.867 162.488 237.711 162.488C237.547 162.488 237.41 162.436 237.301 162.33C237.191 162.221 237.137 162.057 237.137 161.838ZM247.742 169.139H247.689C247.24 169.791 246.568 170.117 245.674 170.117C244.834 170.117 244.18 169.83 243.711 169.256C243.246 168.682 243.014 167.865 243.014 166.807C243.014 165.748 243.248 164.926 243.717 164.34C244.186 163.754 244.838 163.461 245.674 163.461C246.545 163.461 247.213 163.777 247.678 164.41H247.754L247.713 163.947L247.689 163.496V160.883H248.662V170H247.871L247.742 169.139ZM245.797 169.303C246.461 169.303 246.941 169.123 247.238 168.764C247.539 168.4 247.689 167.816 247.689 167.012V166.807C247.689 165.896 247.537 165.248 247.232 164.861C246.932 164.471 246.449 164.275 245.785 164.275C245.215 164.275 244.777 164.498 244.473 164.943C244.172 165.385 244.021 166.01 244.021 166.818C244.021 167.639 244.172 168.258 244.473 168.676C244.773 169.094 245.215 169.303 245.797 169.303ZM251.703 170H250.73V163.578H251.703V170ZM250.648 161.838C250.648 161.615 250.703 161.453 250.812 161.352C250.922 161.246 251.059 161.193 251.223 161.193C251.379 161.193 251.514 161.246 251.627 161.352C251.74 161.457 251.797 161.619 251.797 161.838C251.797 162.057 251.74 162.221 251.627 162.33C251.514 162.436 251.379 162.488 251.223 162.488C251.059 162.488 250.922 162.436 250.812 162.33C250.703 162.221 250.648 162.057 250.648 161.838ZM256.695 163.461C256.98 163.461 257.236 163.484 257.463 163.531L257.328 164.434C257.062 164.375 256.828 164.346 256.625 164.346C256.105 164.346 255.66 164.557 255.289 164.979C254.922 165.4 254.738 165.926 254.738 166.555V170H253.766V163.578H254.568L254.68 164.768H254.727C254.965 164.35 255.252 164.027 255.588 163.801C255.924 163.574 256.293 163.461 256.695 163.461ZM261.377 170.117C260.428 170.117 259.678 169.828 259.127 169.25C258.58 168.672 258.307 167.869 258.307 166.842C258.307 165.807 258.561 164.984 259.068 164.375C259.58 163.766 260.266 163.461 261.125 163.461C261.93 163.461 262.566 163.727 263.035 164.258C263.504 164.785 263.738 165.482 263.738 166.35V166.965H259.314C259.334 167.719 259.523 168.291 259.883 168.682C260.246 169.072 260.756 169.268 261.412 169.268C262.104 169.268 262.787 169.123 263.463 168.834V169.701C263.119 169.85 262.793 169.955 262.484 170.018C262.18 170.084 261.811 170.117 261.377 170.117ZM261.113 164.275C260.598 164.275 260.186 164.443 259.877 164.779C259.572 165.115 259.393 165.58 259.338 166.174H262.695C262.695 165.561 262.559 165.092 262.285 164.768C262.012 164.439 261.621 164.275 261.113 164.275ZM266.363 166.713C266.531 166.475 266.787 166.162 267.131 165.775L269.205 163.578H270.359L267.758 166.314L270.541 170H269.363L267.096 166.965L266.363 167.598V170H265.402V160.883H266.363V165.717C266.363 165.932 266.348 166.264 266.316 166.713H266.363ZM273.781 169.314C273.953 169.314 274.119 169.303 274.279 169.279C274.439 169.252 274.566 169.225 274.66 169.197V169.941C274.555 169.992 274.398 170.033 274.191 170.064C273.988 170.1 273.805 170.117 273.641 170.117C272.398 170.117 271.777 169.463 271.777 168.154V164.334H270.857V163.865L271.777 163.461L272.188 162.09H272.75V163.578H274.613V164.334H272.75V168.113C272.75 168.5 272.842 168.797 273.025 169.004C273.209 169.211 273.461 169.314 273.781 169.314ZM281.492 166.783C281.492 167.83 281.229 168.648 280.701 169.238C280.174 169.824 279.445 170.117 278.516 170.117C277.941 170.117 277.432 169.982 276.986 169.713C276.541 169.443 276.197 169.057 275.955 168.553C275.713 168.049 275.592 167.459 275.592 166.783C275.592 165.736 275.854 164.922 276.377 164.34C276.9 163.754 277.627 163.461 278.557 163.461C279.455 163.461 280.168 163.76 280.695 164.357C281.227 164.955 281.492 165.764 281.492 166.783ZM276.6 166.783C276.6 167.604 276.764 168.229 277.092 168.658C277.42 169.088 277.902 169.303 278.539 169.303C279.176 169.303 279.658 169.09 279.986 168.664C280.318 168.234 280.484 167.607 280.484 166.783C280.484 165.967 280.318 165.348 279.986 164.926C279.658 164.5 279.172 164.287 278.527 164.287C277.891 164.287 277.41 164.496 277.086 164.914C276.762 165.332 276.6 165.955 276.6 166.783ZM286.133 163.461C286.418 163.461 286.674 163.484 286.9 163.531L286.766 164.434C286.5 164.375 286.266 164.346 286.062 164.346C285.543 164.346 285.098 164.557 284.727 164.979C284.359 165.4 284.176 165.926 284.176 166.555V170H283.203V163.578H284.006L284.117 164.768H284.164C284.402 164.35 284.689 164.027 285.025 163.801C285.361 163.574 285.73 163.461 286.133 163.461ZM289.074 170H288.102V163.578H289.074V170ZM288.02 161.838C288.02 161.615 288.074 161.453 288.184 161.352C288.293 161.246 288.43 161.193 288.594 161.193C288.75 161.193 288.885 161.246 288.998 161.352C289.111 161.457 289.168 161.619 289.168 161.838C289.168 162.057 289.111 162.221 288.998 162.33C288.885 162.436 288.75 162.488 288.594 162.488C288.43 162.488 288.293 162.436 288.184 162.33C288.074 162.221 288.02 162.057 288.02 161.838ZM299.322 170V165.822C299.322 165.311 299.213 164.928 298.994 164.674C298.775 164.416 298.436 164.287 297.975 164.287C297.369 164.287 296.922 164.461 296.633 164.809C296.344 165.156 296.199 165.691 296.199 166.414V170H295.227V165.822C295.227 165.311 295.117 164.928 294.898 164.674C294.68 164.416 294.338 164.287 293.873 164.287C293.264 164.287 292.816 164.471 292.531 164.838C292.25 165.201 292.109 165.799 292.109 166.631V170H291.137V163.578H291.928L292.086 164.457H292.133C292.316 164.145 292.574 163.9 292.906 163.725C293.242 163.549 293.617 163.461 294.031 163.461C295.035 163.461 295.691 163.824 296 164.551H296.047C296.238 164.215 296.516 163.949 296.879 163.754C297.242 163.559 297.656 163.461 298.121 163.461C298.848 163.461 299.391 163.648 299.75 164.023C300.113 164.395 300.295 164.99 300.295 165.811V170H299.322ZM303.219 163.578V167.744C303.219 168.268 303.338 168.658 303.576 168.916C303.814 169.174 304.188 169.303 304.695 169.303C305.367 169.303 305.857 169.119 306.166 168.752C306.479 168.385 306.635 167.785 306.635 166.953V163.578H307.607V170H306.805L306.664 169.139H306.611C306.412 169.455 306.135 169.697 305.779 169.865C305.428 170.033 305.025 170.117 304.572 170.117C303.791 170.117 303.205 169.932 302.814 169.561C302.428 169.189 302.234 168.596 302.234 167.779V163.578H303.219ZM309.535 169.379C309.535 169.117 309.594 168.92 309.711 168.787C309.832 168.65 310.004 168.582 310.227 168.582C310.453 168.582 310.629 168.65 310.754 168.787C310.883 168.92 310.947 169.117 310.947 169.379C310.947 169.633 310.883 169.828 310.754 169.965C310.625 170.102 310.449 170.17 310.227 170.17C310.027 170.17 309.861 170.109 309.729 169.988C309.6 169.863 309.535 169.66 309.535 169.379Z" fill="#1F2A36"/>
<g clip-path="url(#clip0_0_1)">
<path d="M206.119 40.8057C204.18 40.8057 202.298 41.0424 200.493 41.4784C195.073 31.8983 184.792 25.4315 173 25.4315C161.208 25.4315 150.927 31.8986 145.507 41.4784C143.702 41.0424 141.82 40.8057 139.881 40.8057C126.692 40.8057 116 51.4977 116 64.6871C116 77.8766 126.692 88.5686 139.881 88.5686H165.905V74.3778H154.048V74.2257L172.775 54.6683H173.225L191.952 74.2257V74.3778H180.096V88.5686H206.119C219.308 88.5686 230 77.8766 230 64.6871C230 51.4977 219.308 40.8057 206.119 40.8057V40.8057Z" fill="#9EA0A5"/>
</g>
<path d="M224.012 223.721C224.012 224.475 223.738 225.062 223.191 225.484C222.645 225.906 221.902 226.117 220.965 226.117C219.949 226.117 219.168 225.986 218.621 225.725V224.764C218.973 224.912 219.355 225.029 219.77 225.115C220.184 225.201 220.594 225.244 221 225.244C221.664 225.244 222.164 225.119 222.5 224.869C222.836 224.615 223.004 224.264 223.004 223.814C223.004 223.518 222.943 223.275 222.822 223.088C222.705 222.896 222.506 222.721 222.225 222.561C221.947 222.4 221.523 222.219 220.953 222.016C220.156 221.73 219.586 221.393 219.242 221.002C218.902 220.611 218.732 220.102 218.732 219.473C218.732 218.812 218.98 218.287 219.477 217.896C219.973 217.506 220.629 217.311 221.445 217.311C222.297 217.311 223.08 217.467 223.795 217.779L223.484 218.646C222.777 218.35 222.09 218.201 221.422 218.201C220.895 218.201 220.482 218.314 220.186 218.541C219.889 218.768 219.74 219.082 219.74 219.484C219.74 219.781 219.795 220.025 219.904 220.217C220.014 220.404 220.197 220.578 220.455 220.738C220.717 220.895 221.115 221.068 221.65 221.26C222.549 221.58 223.166 221.924 223.502 222.291C223.842 222.658 224.012 223.135 224.012 223.721ZM226.59 226H225.617V219.578H226.59V226ZM225.535 217.838C225.535 217.615 225.59 217.453 225.699 217.352C225.809 217.246 225.945 217.193 226.109 217.193C226.266 217.193 226.4 217.246 226.514 217.352C226.627 217.457 226.684 217.619 226.684 217.838C226.684 218.057 226.627 218.221 226.514 218.33C226.4 218.436 226.266 218.488 226.109 218.488C225.945 218.488 225.809 218.436 225.699 218.33C225.59 218.221 225.535 218.057 225.535 217.838ZM232.76 226H228.102V225.338L231.605 220.334H228.318V219.578H232.672V220.334L229.215 225.244H232.76V226ZM236.979 226.117C236.029 226.117 235.279 225.828 234.729 225.25C234.182 224.672 233.908 223.869 233.908 222.842C233.908 221.807 234.162 220.984 234.67 220.375C235.182 219.766 235.867 219.461 236.727 219.461C237.531 219.461 238.168 219.727 238.637 220.258C239.105 220.785 239.34 221.482 239.34 222.35V222.965H234.916C234.936 223.719 235.125 224.291 235.484 224.682C235.848 225.072 236.357 225.268 237.014 225.268C237.705 225.268 238.389 225.123 239.064 224.834V225.701C238.721 225.85 238.395 225.955 238.086 226.018C237.781 226.084 237.412 226.117 236.979 226.117ZM236.715 220.275C236.199 220.275 235.787 220.443 235.479 220.779C235.174 221.115 234.994 221.58 234.939 222.174H238.297C238.297 221.561 238.16 221.092 237.887 220.768C237.613 220.439 237.223 220.275 236.715 220.275ZM222.189 242H221.24V235.895C221.24 235.387 221.256 234.906 221.287 234.453C221.205 234.535 221.113 234.621 221.012 234.711C220.91 234.801 220.445 235.182 219.617 235.854L219.102 235.186L221.369 233.434H222.189V242ZM231.131 237.705C231.131 239.186 230.896 240.291 230.428 241.021C229.963 241.752 229.25 242.117 228.289 242.117C227.367 242.117 226.666 241.744 226.186 240.998C225.705 240.248 225.465 239.15 225.465 237.705C225.465 236.213 225.697 235.105 226.162 234.383C226.627 233.66 227.336 233.299 228.289 233.299C229.219 233.299 229.924 233.676 230.404 234.43C230.889 235.184 231.131 236.275 231.131 237.705ZM226.449 237.705C226.449 238.951 226.596 239.859 226.889 240.43C227.182 240.996 227.648 241.279 228.289 241.279C228.938 241.279 229.406 240.992 229.695 240.418C229.988 239.84 230.135 238.936 230.135 237.705C230.135 236.475 229.988 235.574 229.695 235.004C229.406 234.43 228.938 234.143 228.289 234.143C227.648 234.143 227.182 234.426 226.889 234.992C226.596 235.555 226.449 236.459 226.449 237.705ZM235.156 233.311C235.938 233.311 236.557 233.492 237.014 233.855C237.471 234.219 237.699 234.721 237.699 235.361C237.699 235.783 237.568 236.168 237.307 236.516C237.045 236.863 236.627 237.18 236.053 237.465C236.748 237.797 237.242 238.146 237.535 238.514C237.828 238.877 237.975 239.299 237.975 239.779C237.975 240.49 237.727 241.059 237.23 241.484C236.734 241.906 236.055 242.117 235.191 242.117C234.277 242.117 233.574 241.918 233.082 241.52C232.59 241.117 232.344 240.549 232.344 239.814C232.344 238.834 232.941 238.07 234.137 237.523C233.598 237.219 233.211 236.891 232.977 236.539C232.742 236.184 232.625 235.787 232.625 235.35C232.625 234.729 232.854 234.234 233.311 233.867C233.771 233.496 234.387 233.311 235.156 233.311ZM233.305 239.838C233.305 240.307 233.467 240.672 233.791 240.934C234.119 241.195 234.578 241.326 235.168 241.326C235.75 241.326 236.203 241.189 236.527 240.916C236.852 240.643 237.014 240.268 237.014 239.791C237.014 239.412 236.861 239.076 236.557 238.783C236.252 238.486 235.721 238.199 234.963 237.922C234.381 238.172 233.959 238.449 233.697 238.754C233.436 239.055 233.305 239.416 233.305 239.838ZM235.145 234.102C234.656 234.102 234.273 234.219 233.996 234.453C233.719 234.688 233.58 235 233.58 235.391C233.58 235.75 233.695 236.059 233.926 236.316C234.156 236.574 234.582 236.832 235.203 237.09C235.762 236.855 236.156 236.604 236.387 236.334C236.621 236.064 236.738 235.75 236.738 235.391C236.738 234.996 236.596 234.684 236.311 234.453C236.029 234.219 235.641 234.102 235.145 234.102ZM244.865 237.705C244.865 239.186 244.631 240.291 244.162 241.021C243.697 241.752 242.984 242.117 242.023 242.117C241.102 242.117 240.4 241.744 239.92 240.998C239.439 240.248 239.199 239.15 239.199 237.705C239.199 236.213 239.432 235.105 239.896 234.383C240.361 233.66 241.07 233.299 242.023 233.299C242.953 233.299 243.658 233.676 244.139 234.43C244.623 235.184 244.865 236.275 244.865 237.705ZM240.184 237.705C240.184 238.951 240.33 239.859 240.623 240.43C240.916 240.996 241.383 241.279 242.023 241.279C242.672 241.279 243.141 240.992 243.43 240.418C243.723 239.84 243.869 238.936 243.869 237.705C243.869 236.475 243.723 235.574 243.43 235.004C243.141 234.43 242.672 234.143 242.023 234.143C241.383 234.143 240.916 234.426 240.623 234.992C240.33 235.555 240.184 236.459 240.184 237.705ZM248.047 238.713L245.814 235.578H246.922L248.615 238.039L250.303 235.578H251.398L249.166 238.713L251.516 242H250.414L248.615 239.398L246.799 242H245.697L248.047 238.713ZM255.951 242H255.002V235.895C255.002 235.387 255.018 234.906 255.049 234.453C254.967 234.535 254.875 234.621 254.773 234.711C254.672 234.801 254.207 235.182 253.379 235.854L252.863 235.186L255.131 233.434H255.951V242ZM264.846 237.09C264.846 240.441 263.549 242.117 260.955 242.117C260.502 242.117 260.143 242.078 259.877 242V241.162C260.189 241.264 260.545 241.314 260.943 241.314C261.881 241.314 262.588 241.025 263.064 240.447C263.545 239.865 263.807 238.975 263.85 237.775H263.779C263.564 238.1 263.279 238.348 262.924 238.52C262.568 238.688 262.168 238.771 261.723 238.771C260.965 238.771 260.363 238.545 259.918 238.092C259.473 237.639 259.25 237.006 259.25 236.193C259.25 235.303 259.498 234.6 259.994 234.084C260.494 233.568 261.15 233.311 261.963 233.311C262.545 233.311 263.053 233.461 263.486 233.762C263.924 234.059 264.26 234.494 264.494 235.068C264.729 235.639 264.846 236.312 264.846 237.09ZM261.963 234.143C261.404 234.143 260.973 234.322 260.668 234.682C260.363 235.041 260.211 235.541 260.211 236.182C260.211 236.744 260.352 237.188 260.633 237.512C260.914 237.832 261.342 237.992 261.916 237.992C262.271 237.992 262.598 237.92 262.895 237.775C263.195 237.631 263.432 237.434 263.604 237.184C263.775 236.934 263.861 236.672 263.861 236.398C263.861 235.988 263.781 235.609 263.621 235.262C263.461 234.914 263.236 234.641 262.947 234.441C262.662 234.242 262.334 234.143 261.963 234.143ZM271.713 242H266.082V241.162L268.338 238.895C269.025 238.199 269.479 237.703 269.697 237.406C269.916 237.109 270.08 236.82 270.189 236.539C270.299 236.258 270.354 235.955 270.354 235.631C270.354 235.174 270.215 234.812 269.938 234.547C269.66 234.277 269.275 234.143 268.783 234.143C268.428 234.143 268.09 234.201 267.77 234.318C267.453 234.436 267.1 234.648 266.709 234.957L266.193 234.295C266.982 233.639 267.842 233.311 268.771 233.311C269.576 233.311 270.207 233.518 270.664 233.932C271.121 234.342 271.35 234.895 271.35 235.59C271.35 236.133 271.197 236.67 270.893 237.201C270.588 237.732 270.018 238.404 269.182 239.217L267.307 241.051V241.098H271.713V242ZM278.627 237.705C278.627 239.186 278.393 240.291 277.924 241.021C277.459 241.752 276.746 242.117 275.785 242.117C274.863 242.117 274.162 241.744 273.682 240.998C273.201 240.248 272.961 239.15 272.961 237.705C272.961 236.213 273.193 235.105 273.658 234.383C274.123 233.66 274.832 233.299 275.785 233.299C276.715 233.299 277.42 233.676 277.9 234.43C278.385 235.184 278.627 236.275 278.627 237.705ZM273.945 237.705C273.945 238.951 274.092 239.859 274.385 240.43C274.678 240.996 275.145 241.279 275.785 241.279C276.434 241.279 276.902 240.992 277.191 240.418C277.484 239.84 277.631 238.936 277.631 237.705C277.631 236.475 277.484 235.574 277.191 235.004C276.902 234.43 276.434 234.143 275.785 234.143C275.145 234.143 274.678 234.426 274.385 234.992C274.092 235.555 273.945 236.459 273.945 237.705ZM288.922 238.783C288.922 239.83 288.658 240.648 288.131 241.238C287.604 241.824 286.875 242.117 285.945 242.117C285.371 242.117 284.861 241.982 284.416 241.713C283.971 241.443 283.627 241.057 283.385 240.553C283.143 240.049 283.021 239.459 283.021 238.783C283.021 237.736 283.283 236.922 283.807 236.34C284.33 235.754 285.057 235.461 285.986 235.461C286.885 235.461 287.598 235.76 288.125 236.357C288.656 236.955 288.922 237.764 288.922 238.783ZM284.029 238.783C284.029 239.604 284.193 240.229 284.521 240.658C284.85 241.088 285.332 241.303 285.969 241.303C286.605 241.303 287.088 241.09 287.416 240.664C287.748 240.234 287.914 239.607 287.914 238.783C287.914 237.967 287.748 237.348 287.416 236.926C287.088 236.5 286.602 236.287 285.957 236.287C285.32 236.287 284.84 236.496 284.516 236.914C284.191 237.332 284.029 237.955 284.029 238.783ZM293.562 235.461C293.848 235.461 294.104 235.484 294.33 235.531L294.195 236.434C293.93 236.375 293.695 236.346 293.492 236.346C292.973 236.346 292.527 236.557 292.156 236.979C291.789 237.4 291.605 237.926 291.605 238.555V242H290.633V235.578H291.436L291.547 236.768H291.594C291.832 236.35 292.119 236.027 292.455 235.801C292.791 235.574 293.16 235.461 293.562 235.461ZM298.303 238.338C298.303 236.654 298.629 235.396 299.281 234.564C299.938 233.729 300.906 233.311 302.188 233.311C302.629 233.311 302.977 233.348 303.23 233.422V234.26C302.93 234.162 302.586 234.113 302.199 234.113C301.281 234.113 300.58 234.4 300.096 234.975C299.611 235.545 299.346 236.443 299.299 237.67H299.369C299.799 236.998 300.479 236.662 301.408 236.662C302.178 236.662 302.783 236.895 303.225 237.359C303.67 237.824 303.893 238.455 303.893 239.252C303.893 240.143 303.648 240.844 303.16 241.355C302.676 241.863 302.02 242.117 301.191 242.117C300.305 242.117 299.602 241.785 299.082 241.121C298.562 240.453 298.303 239.525 298.303 238.338ZM301.18 241.291C301.734 241.291 302.164 241.117 302.469 240.77C302.777 240.418 302.932 239.912 302.932 239.252C302.932 238.686 302.789 238.24 302.504 237.916C302.219 237.592 301.793 237.43 301.227 237.43C300.875 237.43 300.553 237.502 300.26 237.646C299.967 237.791 299.732 237.99 299.557 238.244C299.385 238.498 299.299 238.762 299.299 239.035C299.299 239.438 299.377 239.812 299.533 240.16C299.689 240.508 299.91 240.783 300.195 240.986C300.484 241.189 300.812 241.291 301.18 241.291ZM310.748 237.705C310.748 239.186 310.514 240.291 310.045 241.021C309.58 241.752 308.867 242.117 307.906 242.117C306.984 242.117 306.283 241.744 305.803 240.998C305.322 240.248 305.082 239.15 305.082 237.705C305.082 236.213 305.314 235.105 305.779 234.383C306.244 233.66 306.953 233.299 307.906 233.299C308.836 233.299 309.541 233.676 310.021 234.43C310.506 235.184 310.748 236.275 310.748 237.705ZM306.066 237.705C306.066 238.951 306.213 239.859 306.506 240.43C306.799 240.996 307.266 241.279 307.906 241.279C308.555 241.279 309.023 240.992 309.312 240.418C309.605 239.84 309.752 238.936 309.752 237.705C309.752 236.475 309.605 235.574 309.312 235.004C309.023 234.43 308.555 234.143 307.906 234.143C307.266 234.143 306.799 234.426 306.506 234.992C306.213 235.555 306.066 236.459 306.066 237.705ZM317.615 237.705C317.615 239.186 317.381 240.291 316.912 241.021C316.447 241.752 315.734 242.117 314.773 242.117C313.852 242.117 313.15 241.744 312.67 240.998C312.189 240.248 311.949 239.15 311.949 237.705C311.949 236.213 312.182 235.105 312.646 234.383C313.111 233.66 313.82 233.299 314.773 233.299C315.703 233.299 316.408 233.676 316.889 234.43C317.373 235.184 317.615 236.275 317.615 237.705ZM312.934 237.705C312.934 238.951 313.08 239.859 313.373 240.43C313.666 240.996 314.133 241.279 314.773 241.279C315.422 241.279 315.891 240.992 316.18 240.418C316.473 239.84 316.619 238.936 316.619 237.705C316.619 236.475 316.473 235.574 316.18 235.004C315.891 234.43 315.422 234.143 314.773 234.143C314.133 234.143 313.666 234.426 313.373 234.992C313.08 235.555 312.934 236.459 312.934 237.705ZM320.797 238.713L318.564 235.578H319.672L321.365 238.039L323.053 235.578H324.148L321.916 238.713L324.266 242H323.164L321.365 239.398L319.549 242H318.447L320.797 238.713ZM327.934 233.311C328.715 233.311 329.334 233.492 329.791 233.855C330.248 234.219 330.477 234.721 330.477 235.361C330.477 235.783 330.346 236.168 330.084 236.516C329.822 236.863 329.404 237.18 328.83 237.465C329.525 237.797 330.02 238.146 330.312 238.514C330.605 238.877 330.752 239.299 330.752 239.779C330.752 240.49 330.504 241.059 330.008 241.484C329.512 241.906 328.832 242.117 327.969 242.117C327.055 242.117 326.352 241.918 325.859 241.52C325.367 241.117 325.121 240.549 325.121 239.814C325.121 238.834 325.719 238.07 326.914 237.523C326.375 237.219 325.988 236.891 325.754 236.539C325.52 236.184 325.402 235.787 325.402 235.35C325.402 234.729 325.631 234.234 326.088 233.867C326.549 233.496 327.164 233.311 327.934 233.311ZM326.082 239.838C326.082 240.307 326.244 240.672 326.568 240.934C326.896 241.195 327.355 241.326 327.945 241.326C328.527 241.326 328.98 241.189 329.305 240.916C329.629 240.643 329.791 240.268 329.791 239.791C329.791 239.412 329.639 239.076 329.334 238.783C329.029 238.486 328.498 238.199 327.74 237.922C327.158 238.172 326.736 238.449 326.475 238.754C326.213 239.055 326.082 239.416 326.082 239.838ZM327.922 234.102C327.434 234.102 327.051 234.219 326.773 234.453C326.496 234.688 326.357 235 326.357 235.391C326.357 235.75 326.473 236.059 326.703 236.316C326.934 236.574 327.359 236.832 327.98 237.09C328.539 236.855 328.934 236.604 329.164 236.334C329.398 236.064 329.516 235.75 329.516 235.391C329.516 234.996 329.373 234.684 329.088 234.453C328.807 234.219 328.418 234.102 327.922 234.102ZM337.643 237.705C337.643 239.186 337.408 240.291 336.939 241.021C336.475 241.752 335.762 242.117 334.801 242.117C333.879 242.117 333.178 241.744 332.697 240.998C332.217 240.248 331.977 239.15 331.977 237.705C331.977 236.213 332.209 235.105 332.674 234.383C333.139 233.66 333.848 233.299 334.801 233.299C335.73 233.299 336.436 233.676 336.916 234.43C337.4 235.184 337.643 236.275 337.643 237.705ZM332.961 237.705C332.961 238.951 333.107 239.859 333.4 240.43C333.693 240.996 334.16 241.279 334.801 241.279C335.449 241.279 335.918 240.992 336.207 240.418C336.5 239.84 336.646 238.936 336.646 237.705C336.646 236.475 336.5 235.574 336.207 235.004C335.918 234.43 335.449 234.143 334.801 234.143C334.16 234.143 333.693 234.426 333.4 234.992C333.107 235.555 332.961 236.459 332.961 237.705ZM344.51 237.705C344.51 239.186 344.275 240.291 343.807 241.021C343.342 241.752 342.629 242.117 341.668 242.117C340.746 242.117 340.045 241.744 339.564 240.998C339.084 240.248 338.844 239.15 338.844 237.705C338.844 236.213 339.076 235.105 339.541 234.383C340.006 233.66 340.715 233.299 341.668 233.299C342.598 233.299 343.303 233.676 343.783 234.43C344.268 235.184 344.51 236.275 344.51 237.705ZM339.828 237.705C339.828 238.951 339.975 239.859 340.268 240.43C340.561 240.996 341.027 241.279 341.668 241.279C342.316 241.279 342.785 240.992 343.074 240.418C343.367 239.84 343.514 238.936 343.514 237.705C343.514 236.475 343.367 235.574 343.074 235.004C342.785 234.43 342.316 234.143 341.668 234.143C341.027 234.143 340.561 234.426 340.268 234.992C339.975 235.555 339.828 236.459 339.828 237.705Z" fill="#1F2A36"/>
<path d="M201.622 217.378C201.35 217.107 200.909 217.107 200.638 217.378L190.899 227.117C190.627 227.389 190.627 227.83 190.899 228.101C191.035 228.236 191.213 228.304 191.391 228.304C191.569 228.304 191.747 228.236 191.882 228.101L201.622 218.362C201.893 218.091 201.893 217.65 201.622 217.378Z" fill="#9EA0A5"/>
<path d="M201.133 217.174C200.749 217.174 200.438 217.486 200.438 217.87V226.217C200.438 226.601 200.749 226.913 201.133 226.913C201.517 226.913 201.829 226.601 201.829 226.217V217.87C201.829 217.486 201.517 217.174 201.133 217.174Z" fill="#9EA0A5"/>
<path d="M201.133 217.174H192.786C192.402 217.174 192.09 217.486 192.09 217.87C192.09 218.254 192.402 218.565 192.786 218.565H201.133C201.517 218.565 201.829 218.253 201.829 217.869C201.829 217.485 201.517 217.174 201.133 217.174Z" fill="#9EA0A5"/>
<path d="M189.102 229.9C188.831 229.629 188.39 229.629 188.118 229.9L178.379 239.639C178.108 239.91 178.108 240.351 178.379 240.623C178.516 240.758 178.694 240.826 178.872 240.826C179.05 240.826 179.228 240.758 179.363 240.623L189.102 230.884C189.373 230.612 189.373 230.171 189.102 229.9Z" fill="#9EA0A5"/>
<path d="M178.87 231.087C178.486 231.087 178.174 231.399 178.174 231.783V240.13C178.174 240.514 178.486 240.826 178.87 240.826C179.253 240.826 179.565 240.514 179.565 240.13V231.783C179.565 231.399 179.253 231.087 178.87 231.087Z" fill="#9EA0A5"/>
<path d="M187.217 239.435H178.87C178.486 239.435 178.174 239.746 178.174 240.13C178.174 240.514 178.486 240.826 178.87 240.826H187.217C187.601 240.826 187.913 240.514 187.913 240.13C187.913 239.746 187.601 239.435 187.217 239.435Z" fill="#9EA0A5"/>
<path d="M203.913 213H176.087C174.936 213 174 213.936 174 215.087V242.913C174 244.064 174.936 245 176.087 245H203.913C205.064 245 206 244.064 206 242.913V215.087C206 213.936 205.064 213 203.913 213ZM204.609 242.913C204.609 243.296 204.296 243.609 203.913 243.609H176.087C175.704 243.609 175.391 243.296 175.391 242.913V215.087C175.391 214.704 175.704 214.391 176.087 214.391H203.913C204.296 214.391 204.609 214.704 204.609 215.087V242.913H204.609Z" fill="#9EA0A5"/>
<path d="M51.6816 226H50.6855V221.969H46.1738V226H45.1777V217.434H46.1738V221.078H50.6855V217.434H51.6816V226ZM54.8633 226H53.8906V219.578H54.8633V226ZM53.8086 217.838C53.8086 217.615 53.8633 217.453 53.9727 217.352C54.082 217.246 54.2188 217.193 54.3828 217.193C54.5391 217.193 54.6738 217.246 54.7871 217.352C54.9004 217.457 54.957 217.619 54.957 217.838C54.957 218.057 54.9004 218.221 54.7871 218.33C54.6738 218.436 54.5391 218.488 54.3828 218.488C54.2188 218.488 54.082 218.436 53.9727 218.33C53.8633 218.221 53.8086 218.057 53.8086 217.838ZM62.1816 219.578V220.193L60.9922 220.334C61.1016 220.471 61.1992 220.65 61.2852 220.873C61.3711 221.092 61.4141 221.34 61.4141 221.617C61.4141 222.246 61.1992 222.748 60.7695 223.123C60.3398 223.498 59.75 223.686 59 223.686C58.8086 223.686 58.6289 223.67 58.4609 223.639C58.0469 223.857 57.8398 224.133 57.8398 224.465C57.8398 224.641 57.9121 224.771 58.0566 224.857C58.2012 224.939 58.4492 224.98 58.8008 224.98H59.9375C60.6328 224.98 61.166 225.127 61.5371 225.42C61.9121 225.713 62.0996 226.139 62.0996 226.697C62.0996 227.408 61.8145 227.949 61.2441 228.32C60.6738 228.695 59.8418 228.883 58.748 228.883C57.9082 228.883 57.2598 228.727 56.8027 228.414C56.3496 228.102 56.123 227.66 56.123 227.09C56.123 226.699 56.248 226.361 56.498 226.076C56.748 225.791 57.0996 225.598 57.5527 225.496C57.3887 225.422 57.25 225.307 57.1367 225.15C57.0273 224.994 56.9727 224.812 56.9727 224.605C56.9727 224.371 57.0352 224.166 57.1602 223.99C57.2852 223.814 57.4824 223.645 57.752 223.48C57.4199 223.344 57.1484 223.111 56.9375 222.783C56.7305 222.455 56.627 222.08 56.627 221.658C56.627 220.955 56.8379 220.414 57.2598 220.035C57.6816 219.652 58.2793 219.461 59.0527 219.461C59.3887 219.461 59.6914 219.5 59.9609 219.578H62.1816ZM57.0605 227.078C57.0605 227.426 57.207 227.689 57.5 227.869C57.793 228.049 58.2129 228.139 58.7598 228.139C59.5762 228.139 60.1797 228.016 60.5703 227.77C60.9648 227.527 61.1621 227.197 61.1621 226.779C61.1621 226.432 61.0547 226.189 60.8398 226.053C60.625 225.92 60.2207 225.854 59.627 225.854H58.4609C58.0195 225.854 57.6758 225.959 57.4297 226.17C57.1836 226.381 57.0605 226.684 57.0605 227.078ZM57.5879 221.635C57.5879 222.084 57.7148 222.424 57.9688 222.654C58.2227 222.885 58.5762 223 59.0293 223C59.9785 223 60.4531 222.539 60.4531 221.617C60.4531 220.652 59.9727 220.17 59.0117 220.17C58.5547 220.17 58.2031 220.293 57.957 220.539C57.7109 220.785 57.5879 221.15 57.5879 221.635ZM67.8945 226V221.846C67.8945 221.322 67.7754 220.932 67.5371 220.674C67.2988 220.416 66.9258 220.287 66.418 220.287C65.7422 220.287 65.248 220.471 64.9355 220.838C64.627 221.205 64.4727 221.807 64.4727 222.643V226H63.5V216.883H64.4727V219.643C64.4727 219.975 64.457 220.25 64.4258 220.469H64.4844C64.6758 220.16 64.9473 219.918 65.2988 219.742C65.6543 219.562 66.0586 219.473 66.5117 219.473C67.2969 219.473 67.8848 219.66 68.2754 220.035C68.6699 220.406 68.8672 220.998 68.8672 221.811V226H67.8945ZM70.332 223.229V222.338H73.209V223.229H70.332ZM75.8809 222.438V226H74.8848V217.434H77.2344C78.2852 217.434 79.0605 217.635 79.5605 218.037C80.0645 218.439 80.3164 219.045 80.3164 219.854C80.3164 220.986 79.7422 221.752 78.5938 222.15L80.9199 226H79.7422L77.668 222.438H75.8809ZM75.8809 221.582H77.2461C77.9492 221.582 78.4648 221.443 78.793 221.166C79.1211 220.885 79.2852 220.465 79.2852 219.906C79.2852 219.34 79.1172 218.932 78.7812 218.682C78.4492 218.432 77.9141 218.307 77.1758 218.307H75.8809V221.582ZM84.8691 226.117C83.9199 226.117 83.1699 225.828 82.6191 225.25C82.0723 224.672 81.7988 223.869 81.7988 222.842C81.7988 221.807 82.0527 220.984 82.5605 220.375C83.0723 219.766 83.7578 219.461 84.6172 219.461C85.4219 219.461 86.0586 219.727 86.5273 220.258C86.9961 220.785 87.2305 221.482 87.2305 222.35V222.965H82.8066C82.8262 223.719 83.0156 224.291 83.375 224.682C83.7383 225.072 84.248 225.268 84.9043 225.268C85.5957 225.268 86.2793 225.123 86.9551 224.834V225.701C86.6113 225.85 86.2852 225.955 85.9766 226.018C85.6719 226.084 85.3027 226.117 84.8691 226.117ZM84.6055 220.275C84.0898 220.275 83.6777 220.443 83.3691 220.779C83.0645 221.115 82.8848 221.58 82.8301 222.174H86.1875C86.1875 221.561 86.0508 221.092 85.7773 220.768C85.5039 220.439 85.1133 220.275 84.6055 220.275ZM93.0371 224.248C93.0371 224.846 92.8145 225.307 92.3691 225.631C91.9238 225.955 91.2988 226.117 90.4941 226.117C89.6426 226.117 88.9785 225.982 88.502 225.713V224.811C88.8105 224.967 89.1406 225.09 89.4922 225.18C89.8477 225.27 90.1895 225.314 90.5176 225.314C91.0254 225.314 91.416 225.234 91.6895 225.074C91.9629 224.91 92.0996 224.662 92.0996 224.33C92.0996 224.08 91.9902 223.867 91.7715 223.691C91.5566 223.512 91.1348 223.301 90.5059 223.059C89.9082 222.836 89.4824 222.643 89.2285 222.479C88.9785 222.311 88.791 222.121 88.666 221.91C88.5449 221.699 88.4844 221.447 88.4844 221.154C88.4844 220.631 88.6973 220.219 89.123 219.918C89.5488 219.613 90.1328 219.461 90.875 219.461C91.5664 219.461 92.2422 219.602 92.9023 219.883L92.5566 220.674C91.9121 220.408 91.3281 220.275 90.8047 220.275C90.3438 220.275 89.9961 220.348 89.7617 220.492C89.5273 220.637 89.4102 220.836 89.4102 221.09C89.4102 221.262 89.4531 221.408 89.5391 221.529C89.6289 221.65 89.7715 221.766 89.9668 221.875C90.1621 221.984 90.5371 222.143 91.0918 222.35C91.8535 222.627 92.3672 222.906 92.6328 223.188C92.9023 223.469 93.0371 223.822 93.0371 224.248ZM97.8887 226V217.434H98.8848V226H97.8887ZM109.279 226V221.822C109.279 221.311 109.17 220.928 108.951 220.674C108.732 220.416 108.393 220.287 107.932 220.287C107.326 220.287 106.879 220.461 106.59 220.809C106.301 221.156 106.156 221.691 106.156 222.414V226H105.184V221.822C105.184 221.311 105.074 220.928 104.855 220.674C104.637 220.416 104.295 220.287 103.83 220.287C103.221 220.287 102.773 220.471 102.488 220.838C102.207 221.201 102.066 221.799 102.066 222.631V226H101.094V219.578H101.885L102.043 220.457H102.09C102.273 220.145 102.531 219.9 102.863 219.725C103.199 219.549 103.574 219.461 103.988 219.461C104.992 219.461 105.648 219.824 105.957 220.551H106.004C106.195 220.215 106.473 219.949 106.836 219.754C107.199 219.559 107.613 219.461 108.078 219.461C108.805 219.461 109.348 219.648 109.707 220.023C110.07 220.395 110.252 220.99 110.252 221.811V226H109.279ZM116.211 226L116.018 225.086H115.971C115.65 225.488 115.33 225.762 115.01 225.906C114.693 226.047 114.297 226.117 113.82 226.117C113.184 226.117 112.684 225.953 112.32 225.625C111.961 225.297 111.781 224.83 111.781 224.225C111.781 222.928 112.818 222.248 114.893 222.186L115.982 222.15V221.752C115.982 221.248 115.873 220.877 115.654 220.639C115.439 220.396 115.094 220.275 114.617 220.275C114.082 220.275 113.477 220.439 112.801 220.768L112.502 220.023C112.818 219.852 113.164 219.717 113.539 219.619C113.918 219.521 114.297 219.473 114.676 219.473C115.441 219.473 116.008 219.643 116.375 219.982C116.746 220.322 116.932 220.867 116.932 221.617V226H116.211ZM114.014 225.314C114.619 225.314 115.094 225.148 115.438 224.816C115.785 224.484 115.959 224.02 115.959 223.422V222.842L114.986 222.883C114.213 222.91 113.654 223.031 113.311 223.246C112.971 223.457 112.801 223.787 112.801 224.236C112.801 224.588 112.906 224.855 113.117 225.039C113.332 225.223 113.631 225.314 114.014 225.314ZM124.197 219.578V220.193L123.008 220.334C123.117 220.471 123.215 220.65 123.301 220.873C123.387 221.092 123.43 221.34 123.43 221.617C123.43 222.246 123.215 222.748 122.785 223.123C122.355 223.498 121.766 223.686 121.016 223.686C120.824 223.686 120.645 223.67 120.477 223.639C120.062 223.857 119.855 224.133 119.855 224.465C119.855 224.641 119.928 224.771 120.072 224.857C120.217 224.939 120.465 224.98 120.816 224.98H121.953C122.648 224.98 123.182 225.127 123.553 225.42C123.928 225.713 124.115 226.139 124.115 226.697C124.115 227.408 123.83 227.949 123.26 228.32C122.689 228.695 121.857 228.883 120.764 228.883C119.924 228.883 119.275 228.727 118.818 228.414C118.365 228.102 118.139 227.66 118.139 227.09C118.139 226.699 118.264 226.361 118.514 226.076C118.764 225.791 119.115 225.598 119.568 225.496C119.404 225.422 119.266 225.307 119.152 225.15C119.043 224.994 118.988 224.812 118.988 224.605C118.988 224.371 119.051 224.166 119.176 223.99C119.301 223.814 119.498 223.645 119.768 223.48C119.436 223.344 119.164 223.111 118.953 222.783C118.746 222.455 118.643 222.08 118.643 221.658C118.643 220.955 118.854 220.414 119.275 220.035C119.697 219.652 120.295 219.461 121.068 219.461C121.404 219.461 121.707 219.5 121.977 219.578H124.197ZM119.076 227.078C119.076 227.426 119.223 227.689 119.516 227.869C119.809 228.049 120.229 228.139 120.775 228.139C121.592 228.139 122.195 228.016 122.586 227.77C122.98 227.527 123.178 227.197 123.178 226.779C123.178 226.432 123.07 226.189 122.855 226.053C122.641 225.92 122.236 225.854 121.643 225.854H120.477C120.035 225.854 119.691 225.959 119.445 226.17C119.199 226.381 119.076 226.684 119.076 227.078ZM119.604 221.635C119.604 222.084 119.73 222.424 119.984 222.654C120.238 222.885 120.592 223 121.045 223C121.994 223 122.469 222.539 122.469 221.617C122.469 220.652 121.988 220.17 121.027 220.17C120.57 220.17 120.219 220.293 119.973 220.539C119.727 220.785 119.604 221.15 119.604 221.635ZM128.229 226.117C127.279 226.117 126.529 225.828 125.979 225.25C125.432 224.672 125.158 223.869 125.158 222.842C125.158 221.807 125.412 220.984 125.92 220.375C126.432 219.766 127.117 219.461 127.977 219.461C128.781 219.461 129.418 219.727 129.887 220.258C130.355 220.785 130.59 221.482 130.59 222.35V222.965H126.166C126.186 223.719 126.375 224.291 126.734 224.682C127.098 225.072 127.607 225.268 128.264 225.268C128.955 225.268 129.639 225.123 130.314 224.834V225.701C129.971 225.85 129.645 225.955 129.336 226.018C129.031 226.084 128.662 226.117 128.229 226.117ZM127.965 220.275C127.449 220.275 127.037 220.443 126.729 220.779C126.424 221.115 126.244 221.58 126.189 222.174H129.547C129.547 221.561 129.41 221.092 129.137 220.768C128.863 220.439 128.473 220.275 127.965 220.275ZM50.6094 235.93C50.6094 236.797 50.3125 237.465 49.7188 237.934C49.1289 238.398 48.2832 238.631 47.1816 238.631H46.1738V242H45.1777V233.434H47.3984C49.5391 233.434 50.6094 234.266 50.6094 235.93ZM46.1738 237.775H47.0703C47.9531 237.775 48.5918 237.633 48.9863 237.348C49.3809 237.062 49.5781 236.605 49.5781 235.977C49.5781 235.41 49.3926 234.988 49.0215 234.711C48.6504 234.434 48.0723 234.295 47.2871 234.295H46.1738V237.775ZM59.0996 242H57.9629L53.2812 234.811H53.2344C53.2969 235.654 53.3281 236.428 53.3281 237.131V242H52.4082V233.434H53.5332L58.2031 240.594H58.25C58.2422 240.488 58.2246 240.15 58.1973 239.58C58.1699 239.006 58.1602 238.596 58.168 238.35V233.434H59.0996V242ZM65.2227 237.512H68.1348V241.678C67.6816 241.822 67.2207 241.932 66.752 242.006C66.2832 242.08 65.7402 242.117 65.123 242.117C63.8262 242.117 62.8164 241.732 62.0938 240.963C61.3711 240.189 61.0098 239.107 61.0098 237.717C61.0098 236.826 61.1875 236.047 61.543 235.379C61.9023 234.707 62.418 234.195 63.0898 233.844C63.7617 233.488 64.5488 233.311 65.4512 233.311C66.3652 233.311 67.2168 233.479 68.0059 233.814L67.6191 234.693C66.8457 234.365 66.1016 234.201 65.3867 234.201C64.3438 234.201 63.5293 234.512 62.9434 235.133C62.3574 235.754 62.0645 236.615 62.0645 237.717C62.0645 238.873 62.3457 239.75 62.9082 240.348C63.4746 240.945 64.3047 241.244 65.3984 241.244C65.9922 241.244 66.5723 241.176 67.1387 241.039V238.402H65.2227V237.512ZM71.0703 240.605L71.1582 240.74C71.0566 241.131 70.9102 241.584 70.7188 242.1C70.5273 242.619 70.3281 243.102 70.1211 243.547H69.3887C69.4941 243.141 69.6094 242.639 69.7344 242.041C69.8633 241.443 69.9531 240.965 70.0039 240.605H71.0703ZM75.0078 244.256C74.6406 244.256 74.3516 244.203 74.1406 244.098V243.248C74.418 243.326 74.707 243.365 75.0078 243.365C75.3945 243.365 75.6875 243.248 75.8867 243.014C76.0898 242.779 76.1914 242.441 76.1914 242V233.434H77.1875V241.918C77.1875 242.66 77 243.234 76.625 243.641C76.25 244.051 75.7109 244.256 75.0078 244.256ZM84.8984 235.93C84.8984 236.797 84.6016 237.465 84.0078 237.934C83.418 238.398 82.5723 238.631 81.4707 238.631H80.4629V242H79.4668V233.434H81.6875C83.8281 233.434 84.8984 234.266 84.8984 235.93ZM80.4629 237.775H81.3594C82.2422 237.775 82.8809 237.633 83.2754 237.348C83.6699 237.062 83.8672 236.605 83.8672 235.977C83.8672 235.41 83.6816 234.988 83.3105 234.711C82.9395 234.434 82.3613 234.295 81.5762 234.295H80.4629V237.775ZM90.4648 237.512H93.377V241.678C92.9238 241.822 92.4629 241.932 91.9941 242.006C91.5254 242.08 90.9824 242.117 90.3652 242.117C89.0684 242.117 88.0586 241.732 87.3359 240.963C86.6133 240.189 86.252 239.107 86.252 237.717C86.252 236.826 86.4297 236.047 86.7852 235.379C87.1445 234.707 87.6602 234.195 88.332 233.844C89.0039 233.488 89.791 233.311 90.6934 233.311C91.6074 233.311 92.459 233.479 93.248 233.814L92.8613 234.693C92.0879 234.365 91.3438 234.201 90.6289 234.201C89.5859 234.201 88.7715 234.512 88.1855 235.133C87.5996 235.754 87.3066 236.615 87.3066 237.717C87.3066 238.873 87.5879 239.75 88.1504 240.348C88.7168 240.945 89.5469 241.244 90.6406 241.244C91.2344 241.244 91.8145 241.176 92.3809 241.039V238.402H90.4648V237.512ZM103.953 238.783C103.953 239.83 103.689 240.648 103.162 241.238C102.635 241.824 101.906 242.117 100.977 242.117C100.402 242.117 99.8926 241.982 99.4473 241.713C99.002 241.443 98.6582 241.057 98.416 240.553C98.1738 240.049 98.0527 239.459 98.0527 238.783C98.0527 237.736 98.3145 236.922 98.8379 236.34C99.3613 235.754 100.088 235.461 101.018 235.461C101.916 235.461 102.629 235.76 103.156 236.357C103.688 236.955 103.953 237.764 103.953 238.783ZM99.0605 238.783C99.0605 239.604 99.2246 240.229 99.5527 240.658C99.8809 241.088 100.363 241.303 101 241.303C101.637 241.303 102.119 241.09 102.447 240.664C102.779 240.234 102.945 239.607 102.945 238.783C102.945 237.967 102.779 237.348 102.447 236.926C102.119 236.5 101.633 236.287 100.988 236.287C100.352 236.287 99.8711 236.496 99.5469 236.914C99.2227 237.332 99.0605 237.955 99.0605 238.783ZM108.594 235.461C108.879 235.461 109.135 235.484 109.361 235.531L109.227 236.434C108.961 236.375 108.727 236.346 108.523 236.346C108.004 236.346 107.559 236.557 107.188 236.979C106.82 237.4 106.637 237.926 106.637 238.555V242H105.664V235.578H106.467L106.578 236.768H106.625C106.863 236.35 107.15 236.027 107.486 235.801C107.822 235.574 108.191 235.461 108.594 235.461ZM117.594 237.512H120.506V241.678C120.053 241.822 119.592 241.932 119.123 242.006C118.654 242.08 118.111 242.117 117.494 242.117C116.197 242.117 115.188 241.732 114.465 240.963C113.742 240.189 113.381 239.107 113.381 237.717C113.381 236.826 113.559 236.047 113.914 235.379C114.273 234.707 114.789 234.195 115.461 233.844C116.133 233.488 116.92 233.311 117.822 233.311C118.736 233.311 119.588 233.479 120.377 233.814L119.99 234.693C119.217 234.365 118.473 234.201 117.758 234.201C116.715 234.201 115.9 234.512 115.314 235.133C114.729 235.754 114.436 236.615 114.436 237.717C114.436 238.873 114.717 239.75 115.279 240.348C115.846 240.945 116.676 241.244 117.77 241.244C118.363 241.244 118.943 241.176 119.51 241.039V238.402H117.594V237.512ZM122.568 242V233.434H123.564V242H122.568ZM126.916 242H125.92V233.434H130.695V234.318H126.916V237.453H130.467V238.338H126.916V242Z" fill="#1F2A36"/>
<path d="M29 213H3C1.34312 213 0 214.343 0 216V242C0 243.657 1.34312 245 3 245H29C30.6569 245 32 243.657 32 242V216C32 214.343 30.6569 213 29 213ZM30 242C30 242.552 29.5523 243 29 243H3C2.44769 243 2 242.552 2 242V216C2 215.448 2.44769 215 3 215H29C29.5523 215 30 215.448 30 216V242Z" fill="#9EA0A5"/>
<path d="M21.7096 230.29C21.3196 229.902 20.6897 229.902 20.2996 230.29L17.9996 232.59L13.7096 228.3C13.3196 227.912 12.6897 227.912 12.2996 228.3L5.29963 235.3C4.913 235.694 4.91919 236.327 5.31356 236.714C5.497 236.894 5.74269 236.996 5.99963 237H25.9996C26.5519 237.003 27.0022 236.558 27.0054 236.006C27.007 235.737 26.9004 235.479 26.7096 235.29L21.7096 230.29Z" fill="#9EA0A5"/>
<path d="M19 227C20.6569 227 22 225.657 22 224C22 222.343 20.6569 221 19 221C17.3431 221 16 222.343 16 224C16 225.657 17.3431 227 19 227Z" fill="#9EA0A5"/>
<defs>
<clipPath id="clip0_0_1">
<rect width="114" height="114" fill="white" transform="translate(116)"/>
</clipPath>
</defs>
</svg>
