<svg width="753" height="966" viewBox="0 0 753 966" fill="none" xmlns="http://www.w3.org/2000/svg">
<rect width="753" height="966" rx="8" fill="white"/>
<path d="M222.352 614.907C222.352 616.557 221.903 617.819 221.005 618.694C220.112 619.565 218.824 620 217.143 620H214.374V610.006H217.437C218.991 610.006 220.198 610.437 221.06 611.298C221.921 612.159 222.352 613.362 222.352 614.907ZM221.121 614.948C221.121 613.645 220.793 612.663 220.137 612.002C219.485 611.341 218.514 611.011 217.225 611.011H215.536V618.995H216.951C218.337 618.995 219.378 618.656 220.075 617.977C220.772 617.293 221.121 616.284 221.121 614.948ZM227.834 612.371C228.167 612.371 228.465 612.398 228.729 612.453L228.572 613.506C228.262 613.438 227.989 613.403 227.752 613.403C227.146 613.403 226.626 613.649 226.193 614.142C225.765 614.634 225.551 615.247 225.551 615.98V620H224.416V612.508H225.353L225.482 613.896H225.537C225.815 613.408 226.15 613.032 226.542 612.768C226.934 612.503 227.365 612.371 227.834 612.371ZM234.738 620L234.513 618.934H234.458C234.084 619.403 233.711 619.722 233.337 619.891C232.968 620.055 232.505 620.137 231.949 620.137C231.206 620.137 230.623 619.945 230.199 619.562C229.78 619.18 229.57 618.635 229.57 617.929C229.57 616.416 230.78 615.623 233.2 615.55L234.472 615.509V615.044C234.472 614.456 234.344 614.023 234.089 613.745C233.838 613.463 233.435 613.321 232.879 613.321C232.255 613.321 231.548 613.513 230.76 613.896L230.411 613.027C230.78 612.827 231.184 612.67 231.621 612.556C232.063 612.442 232.505 612.385 232.947 612.385C233.84 612.385 234.501 612.583 234.93 612.979C235.363 613.376 235.579 614.012 235.579 614.887V620H234.738ZM232.175 619.2C232.881 619.2 233.435 619.007 233.836 618.619C234.242 618.232 234.444 617.689 234.444 616.992V616.315L233.31 616.363C232.407 616.395 231.756 616.536 231.354 616.787C230.958 617.033 230.76 617.418 230.76 617.942C230.76 618.353 230.883 618.665 231.129 618.879C231.38 619.093 231.728 619.2 232.175 619.2ZM244.056 612.508V613.226L242.668 613.39C242.796 613.549 242.91 613.759 243.01 614.019C243.11 614.274 243.16 614.563 243.16 614.887C243.16 615.62 242.91 616.206 242.408 616.644C241.907 617.081 241.219 617.3 240.344 617.3C240.12 617.3 239.911 617.282 239.715 617.245C239.232 617.5 238.99 617.822 238.99 618.209C238.99 618.414 239.075 618.567 239.243 618.667C239.412 618.763 239.701 618.811 240.111 618.811H241.438C242.249 618.811 242.871 618.981 243.304 619.323C243.741 619.665 243.96 620.162 243.96 620.813C243.96 621.643 243.627 622.274 242.962 622.707C242.297 623.145 241.326 623.363 240.05 623.363C239.07 623.363 238.313 623.181 237.78 622.816C237.252 622.452 236.987 621.937 236.987 621.271C236.987 620.816 237.133 620.422 237.425 620.089C237.716 619.756 238.127 619.531 238.655 619.412C238.464 619.326 238.302 619.191 238.17 619.009C238.042 618.826 237.979 618.615 237.979 618.373C237.979 618.1 238.051 617.86 238.197 617.655C238.343 617.45 238.573 617.252 238.888 617.061C238.5 616.901 238.184 616.63 237.938 616.247C237.696 615.864 237.575 615.427 237.575 614.935C237.575 614.114 237.821 613.483 238.313 613.041C238.806 612.594 239.503 612.371 240.405 612.371C240.797 612.371 241.15 612.417 241.465 612.508H244.056ZM238.081 621.258C238.081 621.663 238.252 621.971 238.594 622.181C238.936 622.39 239.425 622.495 240.063 622.495C241.016 622.495 241.72 622.352 242.176 622.064C242.636 621.782 242.866 621.397 242.866 620.909C242.866 620.504 242.741 620.221 242.49 620.062C242.24 619.907 241.768 619.829 241.075 619.829H239.715C239.2 619.829 238.799 619.952 238.512 620.198C238.225 620.444 238.081 620.798 238.081 621.258ZM238.696 614.907C238.696 615.431 238.844 615.828 239.141 616.097C239.437 616.366 239.849 616.5 240.378 616.5C241.485 616.5 242.039 615.962 242.039 614.887C242.039 613.761 241.479 613.198 240.357 613.198C239.824 613.198 239.414 613.342 239.127 613.629C238.84 613.916 238.696 614.342 238.696 614.907ZM250.857 611.995C250.857 612.31 250.939 612.61 251.104 612.897C251.268 613.18 251.548 613.522 251.944 613.923C252.532 613.581 252.94 613.267 253.168 612.979C253.4 612.688 253.517 612.353 253.517 611.975C253.517 611.624 253.398 611.339 253.161 611.12C252.929 610.897 252.617 610.785 252.225 610.785C251.819 610.785 251.489 610.895 251.233 611.113C250.983 611.332 250.857 611.626 250.857 611.995ZM251.917 619.118C253.015 619.118 253.927 618.767 254.651 618.065L251.664 615.167C251.158 615.477 250.8 615.734 250.591 615.939C250.381 616.14 250.226 616.356 250.126 616.589C250.026 616.821 249.976 617.086 249.976 617.382C249.976 617.915 250.151 618.339 250.502 618.653C250.857 618.963 251.329 619.118 251.917 619.118ZM248.8 617.409C248.8 616.817 248.957 616.293 249.271 615.837C249.59 615.381 250.16 614.921 250.98 614.456C250.593 614.023 250.329 613.695 250.188 613.472C250.051 613.248 249.941 613.016 249.859 612.774C249.777 612.533 249.736 612.282 249.736 612.022C249.736 611.339 249.96 610.806 250.406 610.423C250.853 610.04 251.475 609.849 252.272 609.849C253.011 609.849 253.592 610.04 254.016 610.423C254.439 610.801 254.651 611.33 254.651 612.009C254.651 612.496 254.496 612.948 254.187 613.362C253.877 613.772 253.364 614.189 252.648 614.613L255.431 617.286C255.686 617.004 255.889 616.673 256.039 616.295C256.194 615.912 256.324 615.495 256.429 615.044H257.577C257.267 616.347 256.8 617.336 256.176 618.011L258.22 620H256.654L255.39 618.783C254.852 619.266 254.305 619.613 253.749 619.822C253.193 620.032 252.573 620.137 251.89 620.137C250.91 620.137 250.149 619.895 249.606 619.412C249.069 618.929 248.8 618.261 248.8 617.409ZM271.242 614.907C271.242 616.557 270.793 617.819 269.896 618.694C269.002 619.565 267.715 620 266.033 620H263.265V610.006H266.327C267.881 610.006 269.089 610.437 269.95 611.298C270.812 612.159 271.242 613.362 271.242 614.907ZM270.012 614.948C270.012 613.645 269.684 612.663 269.027 612.002C268.376 611.341 267.405 611.011 266.115 611.011H264.427V618.995H265.842C267.227 618.995 268.269 618.656 268.966 617.977C269.663 617.293 270.012 616.284 270.012 614.948ZM276.725 612.371C277.057 612.371 277.356 612.398 277.62 612.453L277.463 613.506C277.153 613.438 276.88 613.403 276.643 613.403C276.036 613.403 275.517 613.649 275.084 614.142C274.656 614.634 274.441 615.247 274.441 615.98V620H273.307V612.508H274.243L274.373 613.896H274.428C274.706 613.408 275.041 613.032 275.433 612.768C275.825 612.503 276.255 612.371 276.725 612.371ZM285.488 616.247C285.488 617.468 285.181 618.423 284.565 619.111C283.95 619.795 283.1 620.137 282.016 620.137C281.346 620.137 280.751 619.979 280.231 619.665C279.712 619.351 279.311 618.899 279.028 618.312C278.746 617.724 278.604 617.035 278.604 616.247C278.604 615.026 278.91 614.076 279.521 613.396C280.131 612.713 280.979 612.371 282.063 612.371C283.112 612.371 283.943 612.72 284.559 613.417C285.178 614.114 285.488 615.058 285.488 616.247ZM279.78 616.247C279.78 617.204 279.972 617.933 280.354 618.435C280.737 618.936 281.3 619.187 282.043 619.187C282.786 619.187 283.349 618.938 283.731 618.441C284.119 617.94 284.312 617.209 284.312 616.247C284.312 615.295 284.119 614.572 283.731 614.08C283.349 613.583 282.781 613.335 282.029 613.335C281.286 613.335 280.726 613.579 280.348 614.066C279.969 614.554 279.78 615.281 279.78 616.247ZM290.971 620.137C290.483 620.137 290.036 620.048 289.631 619.87C289.23 619.688 288.893 619.41 288.619 619.036H288.537C288.592 619.474 288.619 619.888 288.619 620.28V623.363H287.484V612.508H288.407L288.564 613.533H288.619C288.911 613.123 289.25 612.827 289.638 612.645C290.025 612.462 290.469 612.371 290.971 612.371C291.964 612.371 292.73 612.711 293.268 613.39C293.81 614.069 294.081 615.021 294.081 616.247C294.081 617.478 293.805 618.435 293.254 619.118C292.707 619.797 291.946 620.137 290.971 620.137ZM290.807 613.335C290.041 613.335 289.487 613.547 289.146 613.971C288.804 614.395 288.628 615.069 288.619 615.994V616.247C288.619 617.3 288.795 618.054 289.146 618.51C289.496 618.961 290.059 619.187 290.834 619.187C291.481 619.187 291.987 618.924 292.352 618.4C292.721 617.876 292.905 617.154 292.905 616.233C292.905 615.299 292.721 614.584 292.352 614.087C291.987 613.586 291.472 613.335 290.807 613.335ZM300.773 612.508V617.368C300.773 617.979 300.912 618.435 301.19 618.735C301.468 619.036 301.904 619.187 302.496 619.187C303.28 619.187 303.852 618.972 304.212 618.544C304.576 618.116 304.759 617.416 304.759 616.445V612.508H305.894V620H304.957L304.793 618.995H304.731C304.499 619.364 304.175 619.647 303.761 619.843C303.351 620.039 302.881 620.137 302.353 620.137C301.441 620.137 300.757 619.92 300.302 619.487C299.851 619.054 299.625 618.362 299.625 617.409V612.508H300.773ZM313.434 620V615.153C313.434 614.543 313.295 614.087 313.017 613.786C312.739 613.485 312.303 613.335 311.711 613.335C310.927 613.335 310.353 613.547 309.988 613.971C309.624 614.395 309.441 615.094 309.441 616.069V620H308.307V612.508H309.229L309.414 613.533H309.469C309.701 613.164 310.027 612.879 310.446 612.679C310.866 612.474 311.333 612.371 311.848 612.371C312.75 612.371 313.429 612.59 313.885 613.027C314.34 613.46 314.568 614.155 314.568 615.112V620H313.434ZM319.326 619.2C319.527 619.2 319.72 619.187 319.907 619.159C320.094 619.127 320.242 619.095 320.352 619.063V619.932C320.229 619.991 320.046 620.039 319.805 620.075C319.568 620.116 319.354 620.137 319.162 620.137C317.713 620.137 316.988 619.373 316.988 617.847V613.39H315.915V612.843L316.988 612.371L317.467 610.771H318.123V612.508H320.297V613.39H318.123V617.799C318.123 618.25 318.23 618.596 318.444 618.838C318.659 619.079 318.952 619.2 319.326 619.2ZM322.922 612.508V617.368C322.922 617.979 323.061 618.435 323.339 618.735C323.617 619.036 324.052 619.187 324.645 619.187C325.428 619.187 326 618.972 326.36 618.544C326.725 618.116 326.907 617.416 326.907 616.445V612.508H328.042V620H327.105L326.941 618.995H326.88C326.647 619.364 326.324 619.647 325.909 619.843C325.499 620.039 325.03 620.137 324.501 620.137C323.59 620.137 322.906 619.92 322.45 619.487C321.999 619.054 321.773 618.362 321.773 617.409V612.508H322.922ZM331.576 616.165C331.772 615.887 332.071 615.522 332.472 615.071L334.892 612.508H336.238L333.203 615.7L336.45 620H335.076L332.431 616.459L331.576 617.197V620H330.455V609.363H331.576V615.003C331.576 615.254 331.558 615.641 331.521 616.165H331.576ZM349.165 610.006V616.473C349.165 617.612 348.821 618.507 348.133 619.159C347.445 619.811 346.499 620.137 345.296 620.137C344.093 620.137 343.161 619.809 342.5 619.152C341.844 618.496 341.516 617.594 341.516 616.445V610.006H342.678V616.527C342.678 617.361 342.906 618.002 343.361 618.448C343.817 618.895 344.487 619.118 345.371 619.118C346.214 619.118 346.864 618.895 347.319 618.448C347.775 617.997 348.003 617.352 348.003 616.514V610.006H349.165ZM355.133 620.137C354.645 620.137 354.199 620.048 353.793 619.87C353.392 619.688 353.055 619.41 352.781 619.036H352.699C352.754 619.474 352.781 619.888 352.781 620.28V623.363H351.646V612.508H352.569L352.727 613.533H352.781C353.073 613.123 353.412 612.827 353.8 612.645C354.187 612.462 354.632 612.371 355.133 612.371C356.126 612.371 356.892 612.711 357.43 613.39C357.972 614.069 358.243 615.021 358.243 616.247C358.243 617.478 357.967 618.435 357.416 619.118C356.869 619.797 356.108 620.137 355.133 620.137ZM354.969 613.335C354.203 613.335 353.649 613.547 353.308 613.971C352.966 614.395 352.79 615.069 352.781 615.994V616.247C352.781 617.3 352.957 618.054 353.308 618.51C353.659 618.961 354.221 619.187 354.996 619.187C355.643 619.187 356.149 618.924 356.514 618.4C356.883 617.876 357.067 617.154 357.067 616.233C357.067 615.299 356.883 614.584 356.514 614.087C356.149 613.586 355.634 613.335 354.969 613.335ZM361.367 620H360.232V609.363H361.367V620ZM370.24 616.247C370.24 617.468 369.933 618.423 369.317 619.111C368.702 619.795 367.852 620.137 366.768 620.137C366.098 620.137 365.503 619.979 364.983 619.665C364.464 619.351 364.063 618.899 363.78 618.312C363.498 617.724 363.356 617.035 363.356 616.247C363.356 615.026 363.662 614.076 364.272 613.396C364.883 612.713 365.731 612.371 366.815 612.371C367.864 612.371 368.695 612.72 369.311 613.417C369.93 614.114 370.24 615.058 370.24 616.247ZM364.532 616.247C364.532 617.204 364.724 617.933 365.106 618.435C365.489 618.936 366.052 619.187 366.795 619.187C367.538 619.187 368.101 618.938 368.483 618.441C368.871 617.94 369.064 617.209 369.064 616.247C369.064 615.295 368.871 614.572 368.483 614.08C368.101 613.583 367.533 613.335 366.781 613.335C366.038 613.335 365.478 613.579 365.1 614.066C364.721 614.554 364.532 615.281 364.532 616.247ZM376.844 620L376.618 618.934H376.563C376.19 619.403 375.816 619.722 375.442 619.891C375.073 620.055 374.611 620.137 374.055 620.137C373.312 620.137 372.729 619.945 372.305 619.562C371.885 619.18 371.676 618.635 371.676 617.929C371.676 616.416 372.886 615.623 375.306 615.55L376.577 615.509V615.044C376.577 614.456 376.45 614.023 376.194 613.745C375.944 613.463 375.54 613.321 374.984 613.321C374.36 613.321 373.654 613.513 372.865 613.896L372.517 613.027C372.886 612.827 373.289 612.67 373.727 612.556C374.169 612.442 374.611 612.385 375.053 612.385C375.946 612.385 376.607 612.583 377.035 612.979C377.468 613.376 377.685 614.012 377.685 614.887V620H376.844ZM374.28 619.2C374.987 619.2 375.54 619.007 375.941 618.619C376.347 618.232 376.55 617.689 376.55 616.992V616.315L375.415 616.363C374.513 616.395 373.861 616.536 373.46 616.787C373.063 617.033 372.865 617.418 372.865 617.942C372.865 618.353 372.988 618.665 373.234 618.879C373.485 619.093 373.834 619.2 374.28 619.2ZM385.129 618.995H385.067C384.543 619.756 383.759 620.137 382.716 620.137C381.736 620.137 380.973 619.802 380.426 619.132C379.883 618.462 379.612 617.509 379.612 616.274C379.612 615.039 379.886 614.08 380.433 613.396C380.979 612.713 381.741 612.371 382.716 612.371C383.732 612.371 384.511 612.74 385.054 613.479H385.143L385.095 612.938L385.067 612.412V609.363H386.202V620H385.279L385.129 618.995ZM382.859 619.187C383.634 619.187 384.195 618.977 384.541 618.558C384.892 618.134 385.067 617.452 385.067 616.514V616.274C385.067 615.213 384.89 614.456 384.534 614.005C384.183 613.549 383.62 613.321 382.846 613.321C382.18 613.321 381.67 613.581 381.314 614.101C380.964 614.616 380.788 615.345 380.788 616.288C380.788 617.245 380.964 617.967 381.314 618.455C381.665 618.943 382.18 619.187 382.859 619.187ZM396.818 614.764H400.216V619.624C399.687 619.793 399.149 619.92 398.603 620.007C398.056 620.093 397.422 620.137 396.702 620.137C395.189 620.137 394.011 619.688 393.168 618.79C392.325 617.888 391.903 616.625 391.903 615.003C391.903 613.964 392.111 613.055 392.525 612.275C392.945 611.492 393.546 610.895 394.33 610.484C395.114 610.07 396.032 609.862 397.085 609.862C398.151 609.862 399.145 610.058 400.065 610.45L399.614 611.476C398.712 611.093 397.844 610.901 397.01 610.901C395.793 610.901 394.843 611.264 394.159 611.988C393.476 612.713 393.134 613.718 393.134 615.003C393.134 616.352 393.462 617.375 394.118 618.072C394.779 618.77 395.747 619.118 397.023 619.118C397.716 619.118 398.393 619.038 399.054 618.879V615.803H396.818V614.764ZM407.059 620L406.833 618.934H406.778C406.405 619.403 406.031 619.722 405.657 619.891C405.288 620.055 404.826 620.137 404.27 620.137C403.527 620.137 402.943 619.945 402.52 619.562C402.1 619.18 401.891 618.635 401.891 617.929C401.891 616.416 403.101 615.623 405.521 615.55L406.792 615.509V615.044C406.792 614.456 406.664 614.023 406.409 613.745C406.159 613.463 405.755 613.321 405.199 613.321C404.575 613.321 403.868 613.513 403.08 613.896L402.731 613.027C403.101 612.827 403.504 612.67 403.941 612.556C404.383 612.442 404.826 612.385 405.268 612.385C406.161 612.385 406.822 612.583 407.25 612.979C407.683 613.376 407.899 614.012 407.899 614.887V620H407.059ZM404.495 619.2C405.201 619.2 405.755 619.007 406.156 618.619C406.562 618.232 406.765 617.689 406.765 616.992V616.315L405.63 616.363C404.728 616.395 404.076 616.536 403.675 616.787C403.278 617.033 403.08 617.418 403.08 617.942C403.08 618.353 403.203 618.665 403.449 618.879C403.7 619.093 404.049 619.2 404.495 619.2ZM419.794 620V615.126C419.794 614.529 419.666 614.082 419.411 613.786C419.156 613.485 418.759 613.335 418.222 613.335C417.515 613.335 416.993 613.538 416.656 613.943C416.319 614.349 416.15 614.973 416.15 615.816V620H415.016V615.126C415.016 614.529 414.888 614.082 414.633 613.786C414.378 613.485 413.979 613.335 413.437 613.335C412.726 613.335 412.204 613.549 411.871 613.978C411.543 614.401 411.379 615.099 411.379 616.069V620H410.244V612.508H411.167L411.352 613.533H411.406C411.62 613.169 411.921 612.884 412.309 612.679C412.701 612.474 413.138 612.371 413.621 612.371C414.792 612.371 415.558 612.795 415.918 613.643H415.973C416.196 613.251 416.52 612.941 416.943 612.713C417.367 612.485 417.85 612.371 418.393 612.371C419.24 612.371 419.874 612.59 420.293 613.027C420.717 613.46 420.929 614.155 420.929 615.112V620H419.794ZM426.76 612.385C427.744 612.385 428.507 612.722 429.05 613.396C429.597 614.066 429.87 615.017 429.87 616.247C429.87 617.478 429.594 618.435 429.043 619.118C428.496 619.797 427.735 620.137 426.76 620.137C426.272 620.137 425.826 620.048 425.42 619.87C425.019 619.688 424.682 619.41 424.408 619.036H424.326L424.087 620H423.273V609.363H424.408V611.947C424.408 612.526 424.39 613.046 424.354 613.506H424.408C424.937 612.758 425.721 612.385 426.76 612.385ZM426.596 613.335C425.821 613.335 425.263 613.558 424.921 614.005C424.579 614.447 424.408 615.194 424.408 616.247C424.408 617.3 424.584 618.054 424.935 618.51C425.285 618.961 425.848 619.187 426.623 619.187C427.32 619.187 427.84 618.934 428.182 618.428C428.523 617.917 428.694 617.186 428.694 616.233C428.694 615.258 428.523 614.531 428.182 614.053C427.84 613.574 427.311 613.335 426.596 613.335ZM436.467 620L436.241 618.934H436.187C435.813 619.403 435.439 619.722 435.065 619.891C434.696 620.055 434.234 620.137 433.678 620.137C432.935 620.137 432.352 619.945 431.928 619.562C431.508 619.18 431.299 618.635 431.299 617.929C431.299 616.416 432.509 615.623 434.929 615.55L436.2 615.509V615.044C436.2 614.456 436.073 614.023 435.817 613.745C435.567 613.463 435.163 613.321 434.607 613.321C433.983 613.321 433.277 613.513 432.488 613.896L432.14 613.027C432.509 612.827 432.912 612.67 433.35 612.556C433.792 612.442 434.234 612.385 434.676 612.385C435.569 612.385 436.23 612.583 436.658 612.979C437.091 613.376 437.308 614.012 437.308 614.887V620H436.467ZM433.903 619.2C434.61 619.2 435.163 619.007 435.564 618.619C435.97 618.232 436.173 617.689 436.173 616.992V616.315L435.038 616.363C434.136 616.395 433.484 616.536 433.083 616.787C432.687 617.033 432.488 617.418 432.488 617.942C432.488 618.353 432.611 618.665 432.857 618.879C433.108 619.093 433.457 619.2 433.903 619.2ZM443.07 612.371C443.403 612.371 443.701 612.398 443.966 612.453L443.809 613.506C443.499 613.438 443.225 613.403 442.988 613.403C442.382 613.403 441.863 613.649 441.43 614.142C441.001 614.634 440.787 615.247 440.787 615.98V620H439.652V612.508H440.589L440.719 613.896H440.773C441.051 613.408 441.386 613.032 441.778 612.768C442.17 612.503 442.601 612.371 443.07 612.371ZM455.457 620L454.213 616.821H450.207L448.977 620H447.801L451.752 609.965H452.729L456.66 620H455.457ZM453.851 615.775L452.688 612.679C452.538 612.287 452.383 611.806 452.224 611.236C452.123 611.674 451.98 612.155 451.793 612.679L450.617 615.775H453.851ZM461.35 620.137C460.862 620.137 460.415 620.048 460.01 619.87C459.609 619.688 459.271 619.41 458.998 619.036H458.916C458.971 619.474 458.998 619.888 458.998 620.28V623.363H457.863V612.508H458.786L458.943 613.533H458.998C459.29 613.123 459.629 612.827 460.017 612.645C460.404 612.462 460.848 612.371 461.35 612.371C462.343 612.371 463.109 612.711 463.646 613.39C464.189 614.069 464.46 615.021 464.46 616.247C464.46 617.478 464.184 618.435 463.633 619.118C463.086 619.797 462.325 620.137 461.35 620.137ZM461.186 613.335C460.42 613.335 459.866 613.547 459.524 613.971C459.183 614.395 459.007 615.069 458.998 615.994V616.247C458.998 617.3 459.174 618.054 459.524 618.51C459.875 618.961 460.438 619.187 461.213 619.187C461.86 619.187 462.366 618.924 462.73 618.4C463.1 617.876 463.284 617.154 463.284 616.233C463.284 615.299 463.1 614.584 462.73 614.087C462.366 613.586 461.851 613.335 461.186 613.335ZM467.584 620H466.449V609.363H467.584V620ZM471.125 620H469.99V612.508H471.125V620ZM469.895 610.478C469.895 610.218 469.958 610.029 470.086 609.91C470.214 609.787 470.373 609.726 470.564 609.726C470.747 609.726 470.904 609.787 471.036 609.91C471.168 610.033 471.234 610.222 471.234 610.478C471.234 610.733 471.168 610.924 471.036 611.052C470.904 611.175 470.747 611.236 470.564 611.236C470.373 611.236 470.214 611.175 470.086 611.052C469.958 610.924 469.895 610.733 469.895 610.478ZM474.652 616.165C474.848 615.887 475.147 615.522 475.548 615.071L477.968 612.508H479.314L476.279 615.7L479.526 620H478.152L475.507 616.459L474.652 617.197V620H473.531V609.363H474.652V615.003C474.652 615.254 474.634 615.641 474.598 616.165H474.652ZM485.494 620L485.269 618.934H485.214C484.84 619.403 484.466 619.722 484.093 619.891C483.724 620.055 483.261 620.137 482.705 620.137C481.962 620.137 481.379 619.945 480.955 619.562C480.536 619.18 480.326 618.635 480.326 617.929C480.326 616.416 481.536 615.623 483.956 615.55L485.228 615.509V615.044C485.228 614.456 485.1 614.023 484.845 613.745C484.594 613.463 484.191 613.321 483.635 613.321C483.01 613.321 482.304 613.513 481.516 613.896L481.167 613.027C481.536 612.827 481.939 612.67 482.377 612.556C482.819 612.442 483.261 612.385 483.703 612.385C484.596 612.385 485.257 612.583 485.686 612.979C486.118 613.376 486.335 614.012 486.335 614.887V620H485.494ZM482.931 619.2C483.637 619.2 484.191 619.007 484.592 618.619C484.997 618.232 485.2 617.689 485.2 616.992V616.315L484.065 616.363C483.163 616.395 482.511 616.536 482.11 616.787C481.714 617.033 481.516 617.418 481.516 617.942C481.516 618.353 481.639 618.665 481.885 618.879C482.135 619.093 482.484 619.2 482.931 619.2ZM493.513 617.956C493.513 618.653 493.253 619.191 492.733 619.569C492.214 619.948 491.485 620.137 490.546 620.137C489.552 620.137 488.778 619.979 488.222 619.665V618.612C488.582 618.795 488.967 618.938 489.377 619.043C489.792 619.148 490.19 619.2 490.573 619.2C491.166 619.2 491.621 619.107 491.94 618.92C492.259 618.729 492.419 618.439 492.419 618.052C492.419 617.76 492.291 617.512 492.036 617.307C491.785 617.097 491.293 616.851 490.56 616.568C489.862 616.309 489.366 616.083 489.069 615.892C488.778 615.696 488.559 615.475 488.413 615.229C488.272 614.982 488.201 614.688 488.201 614.347C488.201 613.736 488.45 613.255 488.946 612.904C489.443 612.549 490.124 612.371 490.99 612.371C491.797 612.371 492.585 612.535 493.355 612.863L492.952 613.786C492.2 613.476 491.519 613.321 490.908 613.321C490.37 613.321 489.965 613.406 489.691 613.574C489.418 613.743 489.281 613.975 489.281 614.271C489.281 614.472 489.331 614.643 489.432 614.784C489.536 614.925 489.703 615.06 489.931 615.188C490.159 615.315 490.596 615.5 491.243 615.741C492.132 616.065 492.731 616.391 493.041 616.719C493.355 617.047 493.513 617.459 493.513 617.956ZM496.5 620H495.365V612.508H496.5V620ZM495.27 610.478C495.27 610.218 495.333 610.029 495.461 609.91C495.589 609.787 495.748 609.726 495.939 609.726C496.122 609.726 496.279 609.787 496.411 609.91C496.543 610.033 496.609 610.222 496.609 610.478C496.609 610.733 496.543 610.924 496.411 611.052C496.279 611.175 496.122 611.236 495.939 611.236C495.748 611.236 495.589 611.175 495.461 611.052C495.333 610.924 495.27 610.733 495.27 610.478ZM507.137 620L503.746 611.141H503.691C503.755 611.842 503.787 612.676 503.787 613.643V620H502.714V610.006H504.464L507.629 618.25H507.684L510.876 610.006H512.612V620H511.45V613.561C511.45 612.822 511.482 612.02 511.546 611.154H511.491L508.073 620H507.137ZM521.656 616.247C521.656 617.468 521.349 618.423 520.733 619.111C520.118 619.795 519.268 620.137 518.184 620.137C517.514 620.137 516.919 619.979 516.399 619.665C515.88 619.351 515.479 618.899 515.196 618.312C514.914 617.724 514.772 617.035 514.772 616.247C514.772 615.026 515.078 614.076 515.688 613.396C516.299 612.713 517.147 612.371 518.231 612.371C519.28 612.371 520.111 612.72 520.727 613.417C521.346 614.114 521.656 615.058 521.656 616.247ZM515.948 616.247C515.948 617.204 516.14 617.933 516.522 618.435C516.905 618.936 517.468 619.187 518.211 619.187C518.954 619.187 519.517 618.938 519.899 618.441C520.287 617.94 520.48 617.209 520.48 616.247C520.48 615.295 520.287 614.572 519.899 614.08C519.517 613.583 518.949 613.335 518.197 613.335C517.454 613.335 516.894 613.579 516.516 614.066C516.137 614.554 515.948 615.281 515.948 616.247ZM527.139 612.385C528.123 612.385 528.886 612.722 529.429 613.396C529.976 614.066 530.249 615.017 530.249 616.247C530.249 617.478 529.973 618.435 529.422 619.118C528.875 619.797 528.114 620.137 527.139 620.137C526.651 620.137 526.204 620.048 525.799 619.87C525.398 619.688 525.061 619.41 524.787 619.036H524.705L524.466 620H523.652V609.363H524.787V611.947C524.787 612.526 524.769 613.046 524.732 613.506H524.787C525.316 612.758 526.1 612.385 527.139 612.385ZM526.975 613.335C526.2 613.335 525.642 613.558 525.3 614.005C524.958 614.447 524.787 615.194 524.787 616.247C524.787 617.3 524.963 618.054 525.313 618.51C525.664 618.961 526.227 619.187 527.002 619.187C527.699 619.187 528.219 618.934 528.561 618.428C528.902 617.917 529.073 617.186 529.073 616.233C529.073 615.258 528.902 614.531 528.561 614.053C528.219 613.574 527.69 613.335 526.975 613.335ZM533.373 620H532.238V612.508H533.373V620ZM532.143 610.478C532.143 610.218 532.206 610.029 532.334 609.91C532.462 609.787 532.621 609.726 532.812 609.726C532.995 609.726 533.152 609.787 533.284 609.91C533.416 610.033 533.482 610.222 533.482 610.478C533.482 610.733 533.416 610.924 533.284 611.052C533.152 611.175 532.995 611.236 532.812 611.236C532.621 611.236 532.462 611.175 532.334 611.052C532.206 610.924 532.143 610.733 532.143 610.478ZM536.914 620H535.779V609.363H536.914V620ZM542.485 620.137C541.378 620.137 540.503 619.799 539.86 619.125C539.222 618.451 538.903 617.514 538.903 616.315C538.903 615.108 539.2 614.148 539.792 613.438C540.389 612.727 541.189 612.371 542.191 612.371C543.13 612.371 543.873 612.681 544.42 613.301C544.967 613.916 545.24 614.729 545.24 615.741V616.459H540.079C540.102 617.339 540.323 618.006 540.742 618.462C541.166 618.918 541.761 619.146 542.526 619.146C543.333 619.146 544.131 618.977 544.919 618.64V619.651C544.518 619.825 544.137 619.948 543.777 620.021C543.422 620.098 542.991 620.137 542.485 620.137ZM542.178 613.321C541.576 613.321 541.095 613.517 540.735 613.909C540.38 614.301 540.17 614.843 540.106 615.536H544.023C544.023 614.821 543.864 614.274 543.545 613.896C543.226 613.513 542.77 613.321 542.178 613.321Z" fill="#1F2A36"/>
<path d="M247.562 649L246.496 646.275H243.062L242.008 649H241L244.387 640.398H245.225L248.594 649H247.562ZM246.186 645.379L245.189 642.725C245.061 642.389 244.928 641.977 244.791 641.488C244.705 641.863 244.582 642.275 244.422 642.725L243.414 645.379H246.186ZM251.699 648.314C251.871 648.314 252.037 648.303 252.197 648.279C252.357 648.252 252.484 648.225 252.578 648.197V648.941C252.473 648.992 252.316 649.033 252.109 649.064C251.906 649.1 251.723 649.117 251.559 649.117C250.316 649.117 249.695 648.463 249.695 647.154V643.334H248.775V642.865L249.695 642.461L250.105 641.09H250.668V642.578H252.531V643.334H250.668V647.113C250.668 647.5 250.76 647.797 250.943 648.004C251.127 648.211 251.379 648.314 251.699 648.314ZM257.816 649L257.623 648.086H257.576C257.256 648.488 256.936 648.762 256.615 648.906C256.299 649.047 255.902 649.117 255.426 649.117C254.789 649.117 254.289 648.953 253.926 648.625C253.566 648.297 253.387 647.83 253.387 647.225C253.387 645.928 254.424 645.248 256.498 645.186L257.588 645.15V644.752C257.588 644.248 257.479 643.877 257.26 643.639C257.045 643.396 256.699 643.275 256.223 643.275C255.688 643.275 255.082 643.439 254.406 643.768L254.107 643.023C254.424 642.852 254.77 642.717 255.145 642.619C255.523 642.521 255.902 642.473 256.281 642.473C257.047 642.473 257.613 642.643 257.98 642.982C258.352 643.322 258.537 643.867 258.537 644.617V649H257.816ZM255.619 648.314C256.225 648.314 256.699 648.148 257.043 647.816C257.391 647.484 257.564 647.02 257.564 646.422V645.842L256.592 645.883C255.818 645.91 255.26 646.031 254.916 646.246C254.576 646.457 254.406 646.787 254.406 647.236C254.406 647.588 254.512 647.855 254.723 648.039C254.938 648.223 255.236 648.314 255.619 648.314ZM261.461 642.578V646.744C261.461 647.268 261.58 647.658 261.818 647.916C262.057 648.174 262.43 648.303 262.938 648.303C263.609 648.303 264.1 648.119 264.408 647.752C264.721 647.385 264.877 646.785 264.877 645.953V642.578H265.85V649H265.047L264.906 648.139H264.854C264.654 648.455 264.377 648.697 264.021 648.865C263.67 649.033 263.268 649.117 262.814 649.117C262.033 649.117 261.447 648.932 261.057 648.561C260.67 648.189 260.477 647.596 260.477 646.779V642.578H261.461ZM273.602 649.117C272.672 649.117 271.951 648.832 271.439 648.262C270.932 647.688 270.678 646.877 270.678 645.83C270.678 644.756 270.936 643.926 271.451 643.34C271.971 642.754 272.709 642.461 273.666 642.461C273.975 642.461 274.283 642.494 274.592 642.561C274.9 642.627 275.143 642.705 275.318 642.795L275.02 643.621C274.805 643.535 274.57 643.465 274.316 643.41C274.062 643.352 273.838 643.322 273.643 643.322C272.338 643.322 271.686 644.154 271.686 645.818C271.686 646.607 271.844 647.213 272.16 647.635C272.48 648.057 272.953 648.268 273.578 648.268C274.113 648.268 274.662 648.152 275.225 647.922V648.783C274.795 649.006 274.254 649.117 273.602 649.117ZM280.703 649L280.51 648.086H280.463C280.143 648.488 279.822 648.762 279.502 648.906C279.186 649.047 278.789 649.117 278.312 649.117C277.676 649.117 277.176 648.953 276.812 648.625C276.453 648.297 276.273 647.83 276.273 647.225C276.273 645.928 277.311 645.248 279.385 645.186L280.475 645.15V644.752C280.475 644.248 280.365 643.877 280.146 643.639C279.932 643.396 279.586 643.275 279.109 643.275C278.574 643.275 277.969 643.439 277.293 643.768L276.994 643.023C277.311 642.852 277.656 642.717 278.031 642.619C278.41 642.521 278.789 642.473 279.168 642.473C279.934 642.473 280.5 642.643 280.867 642.982C281.238 643.322 281.424 643.867 281.424 644.617V649H280.703ZM278.506 648.314C279.111 648.314 279.586 648.148 279.93 647.816C280.277 647.484 280.451 647.02 280.451 646.422V645.842L279.479 645.883C278.705 645.91 278.146 646.031 277.803 646.246C277.463 646.457 277.293 646.787 277.293 647.236C277.293 647.588 277.398 647.855 277.609 648.039C277.824 648.223 278.123 648.314 278.506 648.314ZM286.363 642.461C286.648 642.461 286.904 642.484 287.131 642.531L286.996 643.434C286.73 643.375 286.496 643.346 286.293 643.346C285.773 643.346 285.328 643.557 284.957 643.979C284.59 644.4 284.406 644.926 284.406 645.555V649H283.434V642.578H284.236L284.348 643.768H284.395C284.633 643.35 284.92 643.027 285.256 642.801C285.592 642.574 285.961 642.461 286.363 642.461ZM289.305 649H288.332V642.578H289.305V649ZM288.25 640.838C288.25 640.615 288.305 640.453 288.414 640.352C288.523 640.246 288.66 640.193 288.824 640.193C288.98 640.193 289.115 640.246 289.229 640.352C289.342 640.457 289.398 640.619 289.398 640.838C289.398 641.057 289.342 641.221 289.229 641.33C289.115 641.436 288.98 641.488 288.824 641.488C288.66 641.488 288.523 641.436 288.414 641.33C288.305 641.221 288.25 641.057 288.25 640.838ZM295.398 642.578V646.744C295.398 647.268 295.518 647.658 295.756 647.916C295.994 648.174 296.367 648.303 296.875 648.303C297.547 648.303 298.037 648.119 298.346 647.752C298.658 647.385 298.814 646.785 298.814 645.953V642.578H299.787V649H298.984L298.844 648.139H298.791C298.592 648.455 298.314 648.697 297.959 648.865C297.607 649.033 297.205 649.117 296.752 649.117C295.971 649.117 295.385 648.932 294.994 648.561C294.607 648.189 294.414 647.596 294.414 646.779V642.578H295.398ZM306.25 649V644.846C306.25 644.322 306.131 643.932 305.893 643.674C305.654 643.416 305.281 643.287 304.773 643.287C304.102 643.287 303.609 643.469 303.297 643.832C302.984 644.195 302.828 644.795 302.828 645.631V649H301.855V642.578H302.646L302.805 643.457H302.852C303.051 643.141 303.33 642.896 303.689 642.725C304.049 642.549 304.449 642.461 304.891 642.461C305.664 642.461 306.246 642.648 306.637 643.023C307.027 643.395 307.223 643.99 307.223 644.811V649H306.25ZM311.301 648.314C311.473 648.314 311.639 648.303 311.799 648.279C311.959 648.252 312.086 648.225 312.18 648.197V648.941C312.074 648.992 311.918 649.033 311.711 649.064C311.508 649.1 311.324 649.117 311.16 649.117C309.918 649.117 309.297 648.463 309.297 647.154V643.334H308.377V642.865L309.297 642.461L309.707 641.09H310.27V642.578H312.133V643.334H310.27V647.113C310.27 647.5 310.361 647.797 310.545 648.004C310.729 648.211 310.98 648.314 311.301 648.314ZM314.383 642.578V646.744C314.383 647.268 314.502 647.658 314.74 647.916C314.979 648.174 315.352 648.303 315.859 648.303C316.531 648.303 317.021 648.119 317.33 647.752C317.643 647.385 317.799 646.785 317.799 645.953V642.578H318.771V649H317.969L317.828 648.139H317.775C317.576 648.455 317.299 648.697 316.943 648.865C316.592 649.033 316.189 649.117 315.736 649.117C314.955 649.117 314.369 648.932 313.979 648.561C313.592 648.189 313.398 647.596 313.398 646.779V642.578H314.383ZM321.801 645.713C321.969 645.475 322.225 645.162 322.568 644.775L324.643 642.578H325.797L323.195 645.314L325.979 649H324.801L322.533 645.965L321.801 646.598V649H320.84V639.883H321.801V644.717C321.801 644.932 321.785 645.264 321.754 645.713H321.801ZM338.447 649V644.822C338.447 644.311 338.338 643.928 338.119 643.674C337.9 643.416 337.561 643.287 337.1 643.287C336.494 643.287 336.047 643.461 335.758 643.809C335.469 644.156 335.324 644.691 335.324 645.414V649H334.352V644.822C334.352 644.311 334.242 643.928 334.023 643.674C333.805 643.416 333.463 643.287 332.998 643.287C332.389 643.287 331.941 643.471 331.656 643.838C331.375 644.201 331.234 644.799 331.234 645.631V649H330.262V642.578H331.053L331.211 643.457H331.258C331.441 643.145 331.699 642.9 332.031 642.725C332.367 642.549 332.742 642.461 333.156 642.461C334.16 642.461 334.816 642.824 335.125 643.551H335.172C335.363 643.215 335.641 642.949 336.004 642.754C336.367 642.559 336.781 642.461 337.246 642.461C337.973 642.461 338.516 642.648 338.875 643.023C339.238 643.395 339.42 643.99 339.42 644.811V649H338.447ZM344.143 649.117C343.193 649.117 342.443 648.828 341.893 648.25C341.346 647.672 341.072 646.869 341.072 645.842C341.072 644.807 341.326 643.984 341.834 643.375C342.346 642.766 343.031 642.461 343.891 642.461C344.695 642.461 345.332 642.727 345.801 643.258C346.27 643.785 346.504 644.482 346.504 645.35V645.965H342.08C342.1 646.719 342.289 647.291 342.648 647.682C343.012 648.072 343.521 648.268 344.178 648.268C344.869 648.268 345.553 648.123 346.229 647.834V648.701C345.885 648.85 345.559 648.955 345.25 649.018C344.945 649.084 344.576 649.117 344.143 649.117ZM343.879 643.275C343.363 643.275 342.951 643.443 342.643 643.779C342.338 644.115 342.158 644.58 342.104 645.174H345.461C345.461 644.561 345.324 644.092 345.051 643.768C344.777 643.439 344.387 643.275 343.879 643.275ZM352.562 649V644.846C352.562 644.322 352.443 643.932 352.205 643.674C351.967 643.416 351.594 643.287 351.086 643.287C350.414 643.287 349.922 643.469 349.609 643.832C349.297 644.195 349.141 644.795 349.141 645.631V649H348.168V642.578H348.959L349.117 643.457H349.164C349.363 643.141 349.643 642.896 350.002 642.725C350.361 642.549 350.762 642.461 351.203 642.461C351.977 642.461 352.559 642.648 352.949 643.023C353.34 643.395 353.535 643.99 353.535 644.811V649H352.562ZM360.795 642.578V643.193L359.605 643.334C359.715 643.471 359.812 643.65 359.898 643.873C359.984 644.092 360.027 644.34 360.027 644.617C360.027 645.246 359.812 645.748 359.383 646.123C358.953 646.498 358.363 646.686 357.613 646.686C357.422 646.686 357.242 646.67 357.074 646.639C356.66 646.857 356.453 647.133 356.453 647.465C356.453 647.641 356.525 647.771 356.67 647.857C356.814 647.939 357.062 647.98 357.414 647.98H358.551C359.246 647.98 359.779 648.127 360.15 648.42C360.525 648.713 360.713 649.139 360.713 649.697C360.713 650.408 360.428 650.949 359.857 651.32C359.287 651.695 358.455 651.883 357.361 651.883C356.521 651.883 355.873 651.727 355.416 651.414C354.963 651.102 354.736 650.66 354.736 650.09C354.736 649.699 354.861 649.361 355.111 649.076C355.361 648.791 355.713 648.598 356.166 648.496C356.002 648.422 355.863 648.307 355.75 648.15C355.641 647.994 355.586 647.812 355.586 647.605C355.586 647.371 355.648 647.166 355.773 646.99C355.898 646.814 356.096 646.645 356.365 646.48C356.033 646.344 355.762 646.111 355.551 645.783C355.344 645.455 355.24 645.08 355.24 644.658C355.24 643.955 355.451 643.414 355.873 643.035C356.295 642.652 356.893 642.461 357.666 642.461C358.002 642.461 358.305 642.5 358.574 642.578H360.795ZM355.674 650.078C355.674 650.426 355.82 650.689 356.113 650.869C356.406 651.049 356.826 651.139 357.373 651.139C358.189 651.139 358.793 651.016 359.184 650.77C359.578 650.527 359.775 650.197 359.775 649.779C359.775 649.432 359.668 649.189 359.453 649.053C359.238 648.92 358.834 648.854 358.24 648.854H357.074C356.633 648.854 356.289 648.959 356.043 649.17C355.797 649.381 355.674 649.684 355.674 650.078ZM356.201 644.635C356.201 645.084 356.328 645.424 356.582 645.654C356.836 645.885 357.189 646 357.643 646C358.592 646 359.066 645.539 359.066 644.617C359.066 643.652 358.586 643.17 357.625 643.17C357.168 643.17 356.816 643.293 356.57 643.539C356.324 643.785 356.201 644.15 356.201 644.635ZM363.027 642.578V646.744C363.027 647.268 363.146 647.658 363.385 647.916C363.623 648.174 363.996 648.303 364.504 648.303C365.176 648.303 365.666 648.119 365.975 647.752C366.287 647.385 366.443 646.785 366.443 645.953V642.578H367.416V649H366.613L366.473 648.139H366.42C366.221 648.455 365.943 648.697 365.588 648.865C365.236 649.033 364.834 649.117 364.381 649.117C363.6 649.117 363.014 648.932 362.623 648.561C362.236 648.189 362.043 647.596 362.043 646.779V642.578H363.027ZM372.473 649.117C372.055 649.117 371.672 649.041 371.324 648.889C370.98 648.732 370.691 648.494 370.457 648.174H370.387C370.434 648.549 370.457 648.904 370.457 649.24V651.883H369.484V642.578H370.275L370.41 643.457H370.457C370.707 643.105 370.998 642.852 371.33 642.695C371.662 642.539 372.043 642.461 372.473 642.461C373.324 642.461 373.98 642.752 374.441 643.334C374.906 643.916 375.139 644.732 375.139 645.783C375.139 646.838 374.902 647.658 374.43 648.244C373.961 648.826 373.309 649.117 372.473 649.117ZM372.332 643.287C371.676 643.287 371.201 643.469 370.908 643.832C370.615 644.195 370.465 644.773 370.457 645.566V645.783C370.457 646.686 370.607 647.332 370.908 647.723C371.209 648.109 371.691 648.303 372.355 648.303C372.91 648.303 373.344 648.078 373.656 647.629C373.973 647.18 374.131 646.561 374.131 645.771C374.131 644.971 373.973 644.357 373.656 643.932C373.344 643.502 372.902 643.287 372.332 643.287ZM377.816 649H376.844V639.883H377.816V649ZM385.422 645.783C385.422 646.83 385.158 647.648 384.631 648.238C384.104 648.824 383.375 649.117 382.445 649.117C381.871 649.117 381.361 648.982 380.916 648.713C380.471 648.443 380.127 648.057 379.885 647.553C379.643 647.049 379.521 646.459 379.521 645.783C379.521 644.736 379.783 643.922 380.307 643.34C380.83 642.754 381.557 642.461 382.486 642.461C383.385 642.461 384.098 642.76 384.625 643.357C385.156 643.955 385.422 644.764 385.422 645.783ZM380.529 645.783C380.529 646.604 380.693 647.229 381.021 647.658C381.35 648.088 381.832 648.303 382.469 648.303C383.105 648.303 383.588 648.09 383.916 647.664C384.248 647.234 384.414 646.607 384.414 645.783C384.414 644.967 384.248 644.348 383.916 643.926C383.588 643.5 383.102 643.287 382.457 643.287C381.82 643.287 381.34 643.496 381.016 643.914C380.691 644.332 380.529 644.955 380.529 645.783ZM391.082 649L390.889 648.086H390.842C390.521 648.488 390.201 648.762 389.881 648.906C389.564 649.047 389.168 649.117 388.691 649.117C388.055 649.117 387.555 648.953 387.191 648.625C386.832 648.297 386.652 647.83 386.652 647.225C386.652 645.928 387.689 645.248 389.764 645.186L390.854 645.15V644.752C390.854 644.248 390.744 643.877 390.525 643.639C390.311 643.396 389.965 643.275 389.488 643.275C388.953 643.275 388.348 643.439 387.672 643.768L387.373 643.023C387.689 642.852 388.035 642.717 388.41 642.619C388.789 642.521 389.168 642.473 389.547 642.473C390.312 642.473 390.879 642.643 391.246 642.982C391.617 643.322 391.803 643.867 391.803 644.617V649H391.082ZM388.885 648.314C389.49 648.314 389.965 648.148 390.309 647.816C390.656 647.484 390.83 647.02 390.83 646.422V645.842L389.857 645.883C389.084 645.91 388.525 646.031 388.182 646.246C387.842 646.457 387.672 646.787 387.672 647.236C387.672 647.588 387.777 647.855 387.988 648.039C388.203 648.223 388.502 648.314 388.885 648.314ZM398.184 648.139H398.131C397.682 648.791 397.01 649.117 396.115 649.117C395.275 649.117 394.621 648.83 394.152 648.256C393.688 647.682 393.455 646.865 393.455 645.807C393.455 644.748 393.689 643.926 394.158 643.34C394.627 642.754 395.279 642.461 396.115 642.461C396.986 642.461 397.654 642.777 398.119 643.41H398.195L398.154 642.947L398.131 642.496V639.883H399.104V649H398.312L398.184 648.139ZM396.238 648.303C396.902 648.303 397.383 648.123 397.68 647.764C397.98 647.4 398.131 646.816 398.131 646.012V645.807C398.131 644.896 397.979 644.248 397.674 643.861C397.373 643.471 396.891 643.275 396.227 643.275C395.656 643.275 395.219 643.498 394.914 643.943C394.613 644.385 394.463 645.01 394.463 645.818C394.463 646.639 394.613 647.258 394.914 647.676C395.215 648.094 395.656 648.303 396.238 648.303ZM407.184 643.334H405.549V649H404.576V643.334H403.428V642.895L404.576 642.543V642.186C404.576 640.607 405.266 639.818 406.645 639.818C406.984 639.818 407.383 639.887 407.84 640.023L407.588 640.803C407.213 640.682 406.893 640.621 406.627 640.621C406.26 640.621 405.988 640.744 405.812 640.99C405.637 641.232 405.549 641.623 405.549 642.162V642.578H407.184V643.334ZM409.328 649H408.355V642.578H409.328V649ZM408.273 640.838C408.273 640.615 408.328 640.453 408.438 640.352C408.547 640.246 408.684 640.193 408.848 640.193C409.004 640.193 409.139 640.246 409.252 640.352C409.365 640.457 409.422 640.619 409.422 640.838C409.422 641.057 409.365 641.221 409.252 641.33C409.139 641.436 409.004 641.488 408.848 641.488C408.684 641.488 408.547 641.436 408.438 641.33C408.328 641.221 408.273 641.057 408.273 640.838ZM412.363 649H411.391V639.883H412.363V649ZM417.139 649.117C416.189 649.117 415.439 648.828 414.889 648.25C414.342 647.672 414.068 646.869 414.068 645.842C414.068 644.807 414.322 643.984 414.83 643.375C415.342 642.766 416.027 642.461 416.887 642.461C417.691 642.461 418.328 642.727 418.797 643.258C419.266 643.785 419.5 644.482 419.5 645.35V645.965H415.076C415.096 646.719 415.285 647.291 415.645 647.682C416.008 648.072 416.518 648.268 417.174 648.268C417.865 648.268 418.549 648.123 419.225 647.834V648.701C418.881 648.85 418.555 648.955 418.246 649.018C417.941 649.084 417.572 649.117 417.139 649.117ZM416.875 643.275C416.359 643.275 415.947 643.443 415.639 643.779C415.334 644.115 415.154 644.58 415.1 645.174H418.457C418.457 644.561 418.32 644.092 418.047 643.768C417.773 643.439 417.383 643.275 416.875 643.275ZM428.652 648.139H428.6C428.15 648.791 427.479 649.117 426.584 649.117C425.744 649.117 425.09 648.83 424.621 648.256C424.156 647.682 423.924 646.865 423.924 645.807C423.924 644.748 424.158 643.926 424.627 643.34C425.096 642.754 425.748 642.461 426.584 642.461C427.455 642.461 428.123 642.777 428.588 643.41H428.664L428.623 642.947L428.6 642.496V639.883H429.572V649H428.781L428.652 648.139ZM426.707 648.303C427.371 648.303 427.852 648.123 428.148 647.764C428.449 647.4 428.6 646.816 428.6 646.012V645.807C428.6 644.896 428.447 644.248 428.143 643.861C427.842 643.471 427.359 643.275 426.695 643.275C426.125 643.275 425.688 643.498 425.383 643.943C425.082 644.385 424.932 645.01 424.932 645.818C424.932 646.639 425.082 647.258 425.383 647.676C425.684 648.094 426.125 648.303 426.707 648.303ZM435.59 649L435.396 648.086H435.35C435.029 648.488 434.709 648.762 434.389 648.906C434.072 649.047 433.676 649.117 433.199 649.117C432.562 649.117 432.062 648.953 431.699 648.625C431.34 648.297 431.16 647.83 431.16 647.225C431.16 645.928 432.197 645.248 434.271 645.186L435.361 645.15V644.752C435.361 644.248 435.252 643.877 435.033 643.639C434.818 643.396 434.473 643.275 433.996 643.275C433.461 643.275 432.855 643.439 432.18 643.768L431.881 643.023C432.197 642.852 432.543 642.717 432.918 642.619C433.297 642.521 433.676 642.473 434.055 642.473C434.82 642.473 435.387 642.643 435.754 642.982C436.125 643.322 436.311 643.867 436.311 644.617V649H435.59ZM433.393 648.314C433.998 648.314 434.473 648.148 434.816 647.816C435.164 647.484 435.338 647.02 435.338 646.422V645.842L434.365 645.883C433.592 645.91 433.033 646.031 432.689 646.246C432.35 646.457 432.18 646.787 432.18 647.236C432.18 647.588 432.285 647.855 432.496 648.039C432.711 648.223 433.01 648.314 433.393 648.314ZM441.25 642.461C441.535 642.461 441.791 642.484 442.018 642.531L441.883 643.434C441.617 643.375 441.383 643.346 441.18 643.346C440.66 643.346 440.215 643.557 439.844 643.979C439.477 644.4 439.293 644.926 439.293 645.555V649H438.32V642.578H439.123L439.234 643.768H439.281C439.52 643.35 439.807 643.027 440.143 642.801C440.479 642.574 440.848 642.461 441.25 642.461ZM444.191 649H443.219V642.578H444.191V649ZM443.137 640.838C443.137 640.615 443.191 640.453 443.301 640.352C443.41 640.246 443.547 640.193 443.711 640.193C443.867 640.193 444.002 640.246 444.115 640.352C444.229 640.457 444.285 640.619 444.285 640.838C444.285 641.057 444.229 641.221 444.115 641.33C444.002 641.436 443.867 641.488 443.711 641.488C443.547 641.488 443.41 641.436 443.301 641.33C443.191 641.221 443.137 641.057 443.137 640.838ZM453.742 648.139H453.689C453.24 648.791 452.568 649.117 451.674 649.117C450.834 649.117 450.18 648.83 449.711 648.256C449.246 647.682 449.014 646.865 449.014 645.807C449.014 644.748 449.248 643.926 449.717 643.34C450.186 642.754 450.838 642.461 451.674 642.461C452.545 642.461 453.213 642.777 453.678 643.41H453.754L453.713 642.947L453.689 642.496V639.883H454.662V649H453.871L453.742 648.139ZM451.797 648.303C452.461 648.303 452.941 648.123 453.238 647.764C453.539 647.4 453.689 646.816 453.689 646.012V645.807C453.689 644.896 453.537 644.248 453.232 643.861C452.932 643.471 452.449 643.275 451.785 643.275C451.215 643.275 450.777 643.498 450.473 643.943C450.172 644.385 450.021 645.01 450.021 645.818C450.021 646.639 450.172 647.258 450.473 647.676C450.773 648.094 451.215 648.303 451.797 648.303ZM457.703 649H456.73V642.578H457.703V649ZM456.648 640.838C456.648 640.615 456.703 640.453 456.812 640.352C456.922 640.246 457.059 640.193 457.223 640.193C457.379 640.193 457.514 640.246 457.627 640.352C457.74 640.457 457.797 640.619 457.797 640.838C457.797 641.057 457.74 641.221 457.627 641.33C457.514 641.436 457.379 641.488 457.223 641.488C457.059 641.488 456.922 641.436 456.812 641.33C456.703 641.221 456.648 641.057 456.648 640.838ZM462.695 642.461C462.98 642.461 463.236 642.484 463.463 642.531L463.328 643.434C463.062 643.375 462.828 643.346 462.625 643.346C462.105 643.346 461.66 643.557 461.289 643.979C460.922 644.4 460.738 644.926 460.738 645.555V649H459.766V642.578H460.568L460.68 643.768H460.727C460.965 643.35 461.252 643.027 461.588 642.801C461.924 642.574 462.293 642.461 462.695 642.461ZM467.377 649.117C466.428 649.117 465.678 648.828 465.127 648.25C464.58 647.672 464.307 646.869 464.307 645.842C464.307 644.807 464.561 643.984 465.068 643.375C465.58 642.766 466.266 642.461 467.125 642.461C467.93 642.461 468.566 642.727 469.035 643.258C469.504 643.785 469.738 644.482 469.738 645.35V645.965H465.314C465.334 646.719 465.523 647.291 465.883 647.682C466.246 648.072 466.756 648.268 467.412 648.268C468.104 648.268 468.787 648.123 469.463 647.834V648.701C469.119 648.85 468.793 648.955 468.484 649.018C468.18 649.084 467.811 649.117 467.377 649.117ZM467.113 643.275C466.598 643.275 466.186 643.443 465.877 643.779C465.572 644.115 465.393 644.58 465.338 645.174H468.695C468.695 644.561 468.559 644.092 468.285 643.768C468.012 643.439 467.621 643.275 467.113 643.275ZM472.363 645.713C472.531 645.475 472.787 645.162 473.131 644.775L475.205 642.578H476.359L473.758 645.314L476.541 649H475.363L473.096 645.965L472.363 646.598V649H471.402V639.883H472.363V644.717C472.363 644.932 472.348 645.264 472.316 645.713H472.363ZM479.781 648.314C479.953 648.314 480.119 648.303 480.279 648.279C480.439 648.252 480.566 648.225 480.66 648.197V648.941C480.555 648.992 480.398 649.033 480.191 649.064C479.988 649.1 479.805 649.117 479.641 649.117C478.398 649.117 477.777 648.463 477.777 647.154V643.334H476.857V642.865L477.777 642.461L478.188 641.09H478.75V642.578H480.613V643.334H478.75V647.113C478.75 647.5 478.842 647.797 479.025 648.004C479.209 648.211 479.461 648.314 479.781 648.314ZM487.492 645.783C487.492 646.83 487.229 647.648 486.701 648.238C486.174 648.824 485.445 649.117 484.516 649.117C483.941 649.117 483.432 648.982 482.986 648.713C482.541 648.443 482.197 648.057 481.955 647.553C481.713 647.049 481.592 646.459 481.592 645.783C481.592 644.736 481.854 643.922 482.377 643.34C482.9 642.754 483.627 642.461 484.557 642.461C485.455 642.461 486.168 642.76 486.695 643.357C487.227 643.955 487.492 644.764 487.492 645.783ZM482.6 645.783C482.6 646.604 482.764 647.229 483.092 647.658C483.42 648.088 483.902 648.303 484.539 648.303C485.176 648.303 485.658 648.09 485.986 647.664C486.318 647.234 486.484 646.607 486.484 645.783C486.484 644.967 486.318 644.348 485.986 643.926C485.658 643.5 485.172 643.287 484.527 643.287C483.891 643.287 483.41 643.496 483.086 643.914C482.762 644.332 482.6 644.955 482.6 645.783ZM492.133 642.461C492.418 642.461 492.674 642.484 492.9 642.531L492.766 643.434C492.5 643.375 492.266 643.346 492.062 643.346C491.543 643.346 491.098 643.557 490.727 643.979C490.359 644.4 490.176 644.926 490.176 645.555V649H489.203V642.578H490.006L490.117 643.768H490.164C490.402 643.35 490.689 643.027 491.025 642.801C491.361 642.574 491.73 642.461 492.133 642.461ZM495.074 649H494.102V642.578H495.074V649ZM494.02 640.838C494.02 640.615 494.074 640.453 494.184 640.352C494.293 640.246 494.43 640.193 494.594 640.193C494.75 640.193 494.885 640.246 494.998 640.352C495.111 640.457 495.168 640.619 495.168 640.838C495.168 641.057 495.111 641.221 494.998 641.33C494.885 641.436 494.75 641.488 494.594 641.488C494.43 641.488 494.293 641.436 494.184 641.33C494.074 641.221 494.02 641.057 494.02 640.838ZM505.322 649V644.822C505.322 644.311 505.213 643.928 504.994 643.674C504.775 643.416 504.436 643.287 503.975 643.287C503.369 643.287 502.922 643.461 502.633 643.809C502.344 644.156 502.199 644.691 502.199 645.414V649H501.227V644.822C501.227 644.311 501.117 643.928 500.898 643.674C500.68 643.416 500.338 643.287 499.873 643.287C499.264 643.287 498.816 643.471 498.531 643.838C498.25 644.201 498.109 644.799 498.109 645.631V649H497.137V642.578H497.928L498.086 643.457H498.133C498.316 643.145 498.574 642.9 498.906 642.725C499.242 642.549 499.617 642.461 500.031 642.461C501.035 642.461 501.691 642.824 502 643.551H502.047C502.238 643.215 502.516 642.949 502.879 642.754C503.242 642.559 503.656 642.461 504.121 642.461C504.848 642.461 505.391 642.648 505.75 643.023C506.113 643.395 506.295 643.99 506.295 644.811V649H505.322ZM509.219 642.578V646.744C509.219 647.268 509.338 647.658 509.576 647.916C509.814 648.174 510.188 648.303 510.695 648.303C511.367 648.303 511.857 648.119 512.166 647.752C512.479 647.385 512.635 646.785 512.635 645.953V642.578H513.607V649H512.805L512.664 648.139H512.611C512.412 648.455 512.135 648.697 511.779 648.865C511.428 649.033 511.025 649.117 510.572 649.117C509.791 649.117 509.205 648.932 508.814 648.561C508.428 648.189 508.234 647.596 508.234 646.779V642.578H509.219ZM515.535 648.379C515.535 648.117 515.594 647.92 515.711 647.787C515.832 647.65 516.004 647.582 516.227 647.582C516.453 647.582 516.629 647.65 516.754 647.787C516.883 647.92 516.947 648.117 516.947 648.379C516.947 648.633 516.883 648.828 516.754 648.965C516.625 649.102 516.449 649.17 516.227 649.17C516.027 649.17 515.861 649.109 515.729 648.988C515.6 648.863 515.535 648.66 515.535 648.379Z" fill="#1F2A36"/>
<g clip-path="url(#clip0_0_1)">
<path d="M412.119 519.806C410.18 519.806 408.298 520.042 406.493 520.478C401.073 510.898 390.792 504.432 379 504.432C367.208 504.432 356.927 510.899 351.507 520.478C349.702 520.042 347.82 519.806 345.881 519.806C332.692 519.806 322 530.498 322 543.687C322 556.877 332.692 567.569 345.881 567.569H371.905V553.378H360.048V553.226L378.775 533.668H379.225L397.952 553.226V553.378H386.096V567.569H412.119C425.308 567.569 436 556.877 436 543.687C436 530.498 425.308 519.806 412.119 519.806Z" fill="#9EA0A5"/>
</g>
<path d="M430.012 702.721C430.012 703.475 429.738 704.062 429.191 704.484C428.645 704.906 427.902 705.117 426.965 705.117C425.949 705.117 425.168 704.986 424.621 704.725V703.764C424.973 703.912 425.355 704.029 425.77 704.115C426.184 704.201 426.594 704.244 427 704.244C427.664 704.244 428.164 704.119 428.5 703.869C428.836 703.615 429.004 703.264 429.004 702.814C429.004 702.518 428.943 702.275 428.822 702.088C428.705 701.896 428.506 701.721 428.225 701.561C427.947 701.4 427.523 701.219 426.953 701.016C426.156 700.73 425.586 700.393 425.242 700.002C424.902 699.611 424.732 699.102 424.732 698.473C424.732 697.812 424.98 697.287 425.477 696.896C425.973 696.506 426.629 696.311 427.445 696.311C428.297 696.311 429.08 696.467 429.795 696.779L429.484 697.646C428.777 697.35 428.09 697.201 427.422 697.201C426.895 697.201 426.482 697.314 426.186 697.541C425.889 697.768 425.74 698.082 425.74 698.484C425.74 698.781 425.795 699.025 425.904 699.217C426.014 699.404 426.197 699.578 426.455 699.738C426.717 699.895 427.115 700.068 427.65 700.26C428.549 700.58 429.166 700.924 429.502 701.291C429.842 701.658 430.012 702.135 430.012 702.721ZM432.59 705H431.617V698.578H432.59V705ZM431.535 696.838C431.535 696.615 431.59 696.453 431.699 696.352C431.809 696.246 431.945 696.193 432.109 696.193C432.266 696.193 432.4 696.246 432.514 696.352C432.627 696.457 432.684 696.619 432.684 696.838C432.684 697.057 432.627 697.221 432.514 697.33C432.4 697.436 432.266 697.488 432.109 697.488C431.945 697.488 431.809 697.436 431.699 697.33C431.59 697.221 431.535 697.057 431.535 696.838ZM438.76 705H434.102V704.338L437.605 699.334H434.318V698.578H438.672V699.334L435.215 704.244H438.76V705ZM442.979 705.117C442.029 705.117 441.279 704.828 440.729 704.25C440.182 703.672 439.908 702.869 439.908 701.842C439.908 700.807 440.162 699.984 440.67 699.375C441.182 698.766 441.867 698.461 442.727 698.461C443.531 698.461 444.168 698.727 444.637 699.258C445.105 699.785 445.34 700.482 445.34 701.35V701.965H440.916C440.936 702.719 441.125 703.291 441.484 703.682C441.848 704.072 442.357 704.268 443.014 704.268C443.705 704.268 444.389 704.123 445.064 703.834V704.701C444.721 704.85 444.395 704.955 444.086 705.018C443.781 705.084 443.412 705.117 442.979 705.117ZM442.715 699.275C442.199 699.275 441.787 699.443 441.479 699.779C441.174 700.115 440.994 700.58 440.939 701.174H444.297C444.297 700.561 444.16 700.092 443.887 699.768C443.613 699.439 443.223 699.275 442.715 699.275ZM428.189 721H427.24V714.895C427.24 714.387 427.256 713.906 427.287 713.453C427.205 713.535 427.113 713.621 427.012 713.711C426.91 713.801 426.445 714.182 425.617 714.854L425.102 714.186L427.369 712.434H428.189V721ZM437.131 716.705C437.131 718.186 436.896 719.291 436.428 720.021C435.963 720.752 435.25 721.117 434.289 721.117C433.367 721.117 432.666 720.744 432.186 719.998C431.705 719.248 431.465 718.15 431.465 716.705C431.465 715.213 431.697 714.105 432.162 713.383C432.627 712.66 433.336 712.299 434.289 712.299C435.219 712.299 435.924 712.676 436.404 713.43C436.889 714.184 437.131 715.275 437.131 716.705ZM432.449 716.705C432.449 717.951 432.596 718.859 432.889 719.43C433.182 719.996 433.648 720.279 434.289 720.279C434.938 720.279 435.406 719.992 435.695 719.418C435.988 718.84 436.135 717.936 436.135 716.705C436.135 715.475 435.988 714.574 435.695 714.004C435.406 713.43 434.938 713.143 434.289 713.143C433.648 713.143 433.182 713.426 432.889 713.992C432.596 714.555 432.449 715.459 432.449 716.705ZM441.156 712.311C441.938 712.311 442.557 712.492 443.014 712.855C443.471 713.219 443.699 713.721 443.699 714.361C443.699 714.783 443.568 715.168 443.307 715.516C443.045 715.863 442.627 716.18 442.053 716.465C442.748 716.797 443.242 717.146 443.535 717.514C443.828 717.877 443.975 718.299 443.975 718.779C443.975 719.49 443.727 720.059 443.23 720.484C442.734 720.906 442.055 721.117 441.191 721.117C440.277 721.117 439.574 720.918 439.082 720.52C438.59 720.117 438.344 719.549 438.344 718.814C438.344 717.834 438.941 717.07 440.137 716.523C439.598 716.219 439.211 715.891 438.977 715.539C438.742 715.184 438.625 714.787 438.625 714.35C438.625 713.729 438.854 713.234 439.311 712.867C439.771 712.496 440.387 712.311 441.156 712.311ZM439.305 718.838C439.305 719.307 439.467 719.672 439.791 719.934C440.119 720.195 440.578 720.326 441.168 720.326C441.75 720.326 442.203 720.189 442.527 719.916C442.852 719.643 443.014 719.268 443.014 718.791C443.014 718.412 442.861 718.076 442.557 717.783C442.252 717.486 441.721 717.199 440.963 716.922C440.381 717.172 439.959 717.449 439.697 717.754C439.436 718.055 439.305 718.416 439.305 718.838ZM441.145 713.102C440.656 713.102 440.273 713.219 439.996 713.453C439.719 713.688 439.58 714 439.58 714.391C439.58 714.75 439.695 715.059 439.926 715.316C440.156 715.574 440.582 715.832 441.203 716.09C441.762 715.855 442.156 715.604 442.387 715.334C442.621 715.064 442.738 714.75 442.738 714.391C442.738 713.996 442.596 713.684 442.311 713.453C442.029 713.219 441.641 713.102 441.145 713.102ZM450.865 716.705C450.865 718.186 450.631 719.291 450.162 720.021C449.697 720.752 448.984 721.117 448.023 721.117C447.102 721.117 446.4 720.744 445.92 719.998C445.439 719.248 445.199 718.15 445.199 716.705C445.199 715.213 445.432 714.105 445.896 713.383C446.361 712.66 447.07 712.299 448.023 712.299C448.953 712.299 449.658 712.676 450.139 713.43C450.623 714.184 450.865 715.275 450.865 716.705ZM446.184 716.705C446.184 717.951 446.33 718.859 446.623 719.43C446.916 719.996 447.383 720.279 448.023 720.279C448.672 720.279 449.141 719.992 449.43 719.418C449.723 718.84 449.869 717.936 449.869 716.705C449.869 715.475 449.723 714.574 449.43 714.004C449.141 713.43 448.672 713.143 448.023 713.143C447.383 713.143 446.916 713.426 446.623 713.992C446.33 714.555 446.184 715.459 446.184 716.705ZM454.047 717.713L451.814 714.578H452.922L454.615 717.039L456.303 714.578H457.398L455.166 717.713L457.516 721H456.414L454.615 718.398L452.799 721H451.697L454.047 717.713ZM461.951 721H461.002V714.895C461.002 714.387 461.018 713.906 461.049 713.453C460.967 713.535 460.875 713.621 460.773 713.711C460.672 713.801 460.207 714.182 459.379 714.854L458.863 714.186L461.131 712.434H461.951V721ZM470.846 716.09C470.846 719.441 469.549 721.117 466.955 721.117C466.502 721.117 466.143 721.078 465.877 721V720.162C466.189 720.264 466.545 720.314 466.943 720.314C467.881 720.314 468.588 720.025 469.064 719.447C469.545 718.865 469.807 717.975 469.85 716.775H469.779C469.564 717.1 469.279 717.348 468.924 717.52C468.568 717.688 468.168 717.771 467.723 717.771C466.965 717.771 466.363 717.545 465.918 717.092C465.473 716.639 465.25 716.006 465.25 715.193C465.25 714.303 465.498 713.6 465.994 713.084C466.494 712.568 467.15 712.311 467.963 712.311C468.545 712.311 469.053 712.461 469.486 712.762C469.924 713.059 470.26 713.494 470.494 714.068C470.729 714.639 470.846 715.312 470.846 716.09ZM467.963 713.143C467.404 713.143 466.973 713.322 466.668 713.682C466.363 714.041 466.211 714.541 466.211 715.182C466.211 715.744 466.352 716.188 466.633 716.512C466.914 716.832 467.342 716.992 467.916 716.992C468.271 716.992 468.598 716.92 468.895 716.775C469.195 716.631 469.432 716.434 469.604 716.184C469.775 715.934 469.861 715.672 469.861 715.398C469.861 714.988 469.781 714.609 469.621 714.262C469.461 713.914 469.236 713.641 468.947 713.441C468.662 713.242 468.334 713.143 467.963 713.143ZM477.713 721H472.082V720.162L474.338 717.895C475.025 717.199 475.479 716.703 475.697 716.406C475.916 716.109 476.08 715.82 476.189 715.539C476.299 715.258 476.354 714.955 476.354 714.631C476.354 714.174 476.215 713.812 475.938 713.547C475.66 713.277 475.275 713.143 474.783 713.143C474.428 713.143 474.09 713.201 473.77 713.318C473.453 713.436 473.1 713.648 472.709 713.957L472.193 713.295C472.982 712.639 473.842 712.311 474.771 712.311C475.576 712.311 476.207 712.518 476.664 712.932C477.121 713.342 477.35 713.895 477.35 714.59C477.35 715.133 477.197 715.67 476.893 716.201C476.588 716.732 476.018 717.404 475.182 718.217L473.307 720.051V720.098H477.713V721ZM484.627 716.705C484.627 718.186 484.393 719.291 483.924 720.021C483.459 720.752 482.746 721.117 481.785 721.117C480.863 721.117 480.162 720.744 479.682 719.998C479.201 719.248 478.961 718.15 478.961 716.705C478.961 715.213 479.193 714.105 479.658 713.383C480.123 712.66 480.832 712.299 481.785 712.299C482.715 712.299 483.42 712.676 483.9 713.43C484.385 714.184 484.627 715.275 484.627 716.705ZM479.945 716.705C479.945 717.951 480.092 718.859 480.385 719.43C480.678 719.996 481.145 720.279 481.785 720.279C482.434 720.279 482.902 719.992 483.191 719.418C483.484 718.84 483.631 717.936 483.631 716.705C483.631 715.475 483.484 714.574 483.191 714.004C482.902 713.43 482.434 713.143 481.785 713.143C481.145 713.143 480.678 713.426 480.385 713.992C480.092 714.555 479.945 715.459 479.945 716.705ZM494.922 717.783C494.922 718.83 494.658 719.648 494.131 720.238C493.604 720.824 492.875 721.117 491.945 721.117C491.371 721.117 490.861 720.982 490.416 720.713C489.971 720.443 489.627 720.057 489.385 719.553C489.143 719.049 489.021 718.459 489.021 717.783C489.021 716.736 489.283 715.922 489.807 715.34C490.33 714.754 491.057 714.461 491.986 714.461C492.885 714.461 493.598 714.76 494.125 715.357C494.656 715.955 494.922 716.764 494.922 717.783ZM490.029 717.783C490.029 718.604 490.193 719.229 490.521 719.658C490.85 720.088 491.332 720.303 491.969 720.303C492.605 720.303 493.088 720.09 493.416 719.664C493.748 719.234 493.914 718.607 493.914 717.783C493.914 716.967 493.748 716.348 493.416 715.926C493.088 715.5 492.602 715.287 491.957 715.287C491.32 715.287 490.84 715.496 490.516 715.914C490.191 716.332 490.029 716.955 490.029 717.783ZM499.562 714.461C499.848 714.461 500.104 714.484 500.33 714.531L500.195 715.434C499.93 715.375 499.695 715.346 499.492 715.346C498.973 715.346 498.527 715.557 498.156 715.979C497.789 716.4 497.605 716.926 497.605 717.555V721H496.633V714.578H497.436L497.547 715.768H497.594C497.832 715.35 498.119 715.027 498.455 714.801C498.791 714.574 499.16 714.461 499.562 714.461ZM504.303 717.338C504.303 715.654 504.629 714.396 505.281 713.564C505.938 712.729 506.906 712.311 508.188 712.311C508.629 712.311 508.977 712.348 509.23 712.422V713.26C508.93 713.162 508.586 713.113 508.199 713.113C507.281 713.113 506.58 713.4 506.096 713.975C505.611 714.545 505.346 715.443 505.299 716.67H505.369C505.799 715.998 506.479 715.662 507.408 715.662C508.178 715.662 508.783 715.895 509.225 716.359C509.67 716.824 509.893 717.455 509.893 718.252C509.893 719.143 509.648 719.844 509.16 720.355C508.676 720.863 508.02 721.117 507.191 721.117C506.305 721.117 505.602 720.785 505.082 720.121C504.562 719.453 504.303 718.525 504.303 717.338ZM507.18 720.291C507.734 720.291 508.164 720.117 508.469 719.77C508.777 719.418 508.932 718.912 508.932 718.252C508.932 717.686 508.789 717.24 508.504 716.916C508.219 716.592 507.793 716.43 507.227 716.43C506.875 716.43 506.553 716.502 506.26 716.646C505.967 716.791 505.732 716.99 505.557 717.244C505.385 717.498 505.299 717.762 505.299 718.035C505.299 718.438 505.377 718.812 505.533 719.16C505.689 719.508 505.91 719.783 506.195 719.986C506.484 720.189 506.812 720.291 507.18 720.291ZM516.748 716.705C516.748 718.186 516.514 719.291 516.045 720.021C515.58 720.752 514.867 721.117 513.906 721.117C512.984 721.117 512.283 720.744 511.803 719.998C511.322 719.248 511.082 718.15 511.082 716.705C511.082 715.213 511.314 714.105 511.779 713.383C512.244 712.66 512.953 712.299 513.906 712.299C514.836 712.299 515.541 712.676 516.021 713.43C516.506 714.184 516.748 715.275 516.748 716.705ZM512.066 716.705C512.066 717.951 512.213 718.859 512.506 719.43C512.799 719.996 513.266 720.279 513.906 720.279C514.555 720.279 515.023 719.992 515.312 719.418C515.605 718.84 515.752 717.936 515.752 716.705C515.752 715.475 515.605 714.574 515.312 714.004C515.023 713.43 514.555 713.143 513.906 713.143C513.266 713.143 512.799 713.426 512.506 713.992C512.213 714.555 512.066 715.459 512.066 716.705ZM523.615 716.705C523.615 718.186 523.381 719.291 522.912 720.021C522.447 720.752 521.734 721.117 520.773 721.117C519.852 721.117 519.15 720.744 518.67 719.998C518.189 719.248 517.949 718.15 517.949 716.705C517.949 715.213 518.182 714.105 518.646 713.383C519.111 712.66 519.82 712.299 520.773 712.299C521.703 712.299 522.408 712.676 522.889 713.43C523.373 714.184 523.615 715.275 523.615 716.705ZM518.934 716.705C518.934 717.951 519.08 718.859 519.373 719.43C519.666 719.996 520.133 720.279 520.773 720.279C521.422 720.279 521.891 719.992 522.18 719.418C522.473 718.84 522.619 717.936 522.619 716.705C522.619 715.475 522.473 714.574 522.18 714.004C521.891 713.43 521.422 713.143 520.773 713.143C520.133 713.143 519.666 713.426 519.373 713.992C519.08 714.555 518.934 715.459 518.934 716.705ZM526.797 717.713L524.564 714.578H525.672L527.365 717.039L529.053 714.578H530.148L527.916 717.713L530.266 721H529.164L527.365 718.398L525.549 721H524.447L526.797 717.713ZM533.934 712.311C534.715 712.311 535.334 712.492 535.791 712.855C536.248 713.219 536.477 713.721 536.477 714.361C536.477 714.783 536.346 715.168 536.084 715.516C535.822 715.863 535.404 716.18 534.83 716.465C535.525 716.797 536.02 717.146 536.312 717.514C536.605 717.877 536.752 718.299 536.752 718.779C536.752 719.49 536.504 720.059 536.008 720.484C535.512 720.906 534.832 721.117 533.969 721.117C533.055 721.117 532.352 720.918 531.859 720.52C531.367 720.117 531.121 719.549 531.121 718.814C531.121 717.834 531.719 717.07 532.914 716.523C532.375 716.219 531.988 715.891 531.754 715.539C531.52 715.184 531.402 714.787 531.402 714.35C531.402 713.729 531.631 713.234 532.088 712.867C532.549 712.496 533.164 712.311 533.934 712.311ZM532.082 718.838C532.082 719.307 532.244 719.672 532.568 719.934C532.896 720.195 533.355 720.326 533.945 720.326C534.527 720.326 534.98 720.189 535.305 719.916C535.629 719.643 535.791 719.268 535.791 718.791C535.791 718.412 535.639 718.076 535.334 717.783C535.029 717.486 534.498 717.199 533.74 716.922C533.158 717.172 532.736 717.449 532.475 717.754C532.213 718.055 532.082 718.416 532.082 718.838ZM533.922 713.102C533.434 713.102 533.051 713.219 532.773 713.453C532.496 713.688 532.357 714 532.357 714.391C532.357 714.75 532.473 715.059 532.703 715.316C532.934 715.574 533.359 715.832 533.98 716.09C534.539 715.855 534.934 715.604 535.164 715.334C535.398 715.064 535.516 714.75 535.516 714.391C535.516 713.996 535.373 713.684 535.088 713.453C534.807 713.219 534.418 713.102 533.922 713.102ZM543.643 716.705C543.643 718.186 543.408 719.291 542.939 720.021C542.475 720.752 541.762 721.117 540.801 721.117C539.879 721.117 539.178 720.744 538.697 719.998C538.217 719.248 537.977 718.15 537.977 716.705C537.977 715.213 538.209 714.105 538.674 713.383C539.139 712.66 539.848 712.299 540.801 712.299C541.73 712.299 542.436 712.676 542.916 713.43C543.4 714.184 543.643 715.275 543.643 716.705ZM538.961 716.705C538.961 717.951 539.107 718.859 539.4 719.43C539.693 719.996 540.16 720.279 540.801 720.279C541.449 720.279 541.918 719.992 542.207 719.418C542.5 718.84 542.646 717.936 542.646 716.705C542.646 715.475 542.5 714.574 542.207 714.004C541.918 713.43 541.449 713.143 540.801 713.143C540.16 713.143 539.693 713.426 539.4 713.992C539.107 714.555 538.961 715.459 538.961 716.705ZM550.51 716.705C550.51 718.186 550.275 719.291 549.807 720.021C549.342 720.752 548.629 721.117 547.668 721.117C546.746 721.117 546.045 720.744 545.564 719.998C545.084 719.248 544.844 718.15 544.844 716.705C544.844 715.213 545.076 714.105 545.541 713.383C546.006 712.66 546.715 712.299 547.668 712.299C548.598 712.299 549.303 712.676 549.783 713.43C550.268 714.184 550.51 715.275 550.51 716.705ZM545.828 716.705C545.828 717.951 545.975 718.859 546.268 719.43C546.561 719.996 547.027 720.279 547.668 720.279C548.316 720.279 548.785 719.992 549.074 719.418C549.367 718.84 549.514 717.936 549.514 716.705C549.514 715.475 549.367 714.574 549.074 714.004C548.785 713.43 548.316 713.143 547.668 713.143C547.027 713.143 546.561 713.426 546.268 713.992C545.975 714.555 545.828 715.459 545.828 716.705Z" fill="#1F2A36"/>
<path d="M407.622 696.378C407.35 696.107 406.909 696.107 406.638 696.378L396.899 706.117C396.627 706.389 396.627 706.83 396.899 707.101C397.035 707.236 397.213 707.304 397.391 707.304C397.569 707.304 397.747 707.236 397.882 707.101L407.622 697.362C407.893 697.091 407.893 696.65 407.622 696.378Z" fill="#9EA0A5"/>
<path d="M407.133 696.174C406.749 696.174 406.438 696.486 406.438 696.87V705.217C406.438 705.601 406.749 705.913 407.133 705.913C407.517 705.913 407.829 705.601 407.829 705.217V696.87C407.829 696.486 407.517 696.174 407.133 696.174Z" fill="#9EA0A5"/>
<path d="M407.133 696.174H398.786C398.402 696.174 398.09 696.486 398.09 696.87C398.09 697.254 398.402 697.565 398.786 697.565H407.133C407.517 697.565 407.829 697.253 407.829 696.869C407.829 696.485 407.517 696.174 407.133 696.174Z" fill="#9EA0A5"/>
<path d="M395.102 708.9C394.831 708.629 394.39 708.629 394.118 708.9L384.379 718.639C384.108 718.91 384.108 719.351 384.379 719.623C384.516 719.758 384.694 719.826 384.872 719.826C385.05 719.826 385.228 719.758 385.363 719.623L395.102 709.884C395.373 709.612 395.373 709.171 395.102 708.9Z" fill="#9EA0A5"/>
<path d="M384.87 710.087C384.486 710.087 384.174 710.399 384.174 710.783V719.13C384.174 719.514 384.486 719.826 384.87 719.826C385.253 719.826 385.565 719.514 385.565 719.13V710.783C385.565 710.399 385.253 710.087 384.87 710.087Z" fill="#9EA0A5"/>
<path d="M393.217 718.435H384.87C384.486 718.435 384.174 718.746 384.174 719.13C384.174 719.514 384.486 719.826 384.87 719.826H393.217C393.601 719.826 393.913 719.514 393.913 719.13C393.913 718.746 393.601 718.435 393.217 718.435Z" fill="#9EA0A5"/>
<path d="M409.913 692H382.087C380.936 692 380 692.936 380 694.087V721.913C380 723.064 380.936 724 382.087 724H409.913C411.064 724 412 723.064 412 721.913V694.087C412 692.936 411.064 692 409.913 692ZM410.609 721.913C410.609 722.296 410.296 722.609 409.913 722.609H382.087C381.704 722.609 381.391 722.296 381.391 721.913V694.087C381.391 693.704 381.704 693.391 382.087 693.391H409.913C410.296 693.391 410.609 693.704 410.609 694.087V721.913H410.609Z" fill="#9EA0A5"/>
<path d="M257.682 705H256.686V700.969H252.174V705H251.178V696.434H252.174V700.078H256.686V696.434H257.682V705ZM260.863 705H259.891V698.578H260.863V705ZM259.809 696.838C259.809 696.615 259.863 696.453 259.973 696.352C260.082 696.246 260.219 696.193 260.383 696.193C260.539 696.193 260.674 696.246 260.787 696.352C260.9 696.457 260.957 696.619 260.957 696.838C260.957 697.057 260.9 697.221 260.787 697.33C260.674 697.436 260.539 697.488 260.383 697.488C260.219 697.488 260.082 697.436 259.973 697.33C259.863 697.221 259.809 697.057 259.809 696.838ZM268.182 698.578V699.193L266.992 699.334C267.102 699.471 267.199 699.65 267.285 699.873C267.371 700.092 267.414 700.34 267.414 700.617C267.414 701.246 267.199 701.748 266.77 702.123C266.34 702.498 265.75 702.686 265 702.686C264.809 702.686 264.629 702.67 264.461 702.639C264.047 702.857 263.84 703.133 263.84 703.465C263.84 703.641 263.912 703.771 264.057 703.857C264.201 703.939 264.449 703.98 264.801 703.98H265.938C266.633 703.98 267.166 704.127 267.537 704.42C267.912 704.713 268.1 705.139 268.1 705.697C268.1 706.408 267.814 706.949 267.244 707.32C266.674 707.695 265.842 707.883 264.748 707.883C263.908 707.883 263.26 707.727 262.803 707.414C262.35 707.102 262.123 706.66 262.123 706.09C262.123 705.699 262.248 705.361 262.498 705.076C262.748 704.791 263.1 704.598 263.553 704.496C263.389 704.422 263.25 704.307 263.137 704.15C263.027 703.994 262.973 703.812 262.973 703.605C262.973 703.371 263.035 703.166 263.16 702.99C263.285 702.814 263.482 702.645 263.752 702.48C263.42 702.344 263.148 702.111 262.938 701.783C262.73 701.455 262.627 701.08 262.627 700.658C262.627 699.955 262.838 699.414 263.26 699.035C263.682 698.652 264.279 698.461 265.053 698.461C265.389 698.461 265.691 698.5 265.961 698.578H268.182ZM263.061 706.078C263.061 706.426 263.207 706.689 263.5 706.869C263.793 707.049 264.213 707.139 264.76 707.139C265.576 707.139 266.18 707.016 266.57 706.77C266.965 706.527 267.162 706.197 267.162 705.779C267.162 705.432 267.055 705.189 266.84 705.053C266.625 704.92 266.221 704.854 265.627 704.854H264.461C264.02 704.854 263.676 704.959 263.43 705.17C263.184 705.381 263.061 705.684 263.061 706.078ZM263.588 700.635C263.588 701.084 263.715 701.424 263.969 701.654C264.223 701.885 264.576 702 265.029 702C265.979 702 266.453 701.539 266.453 700.617C266.453 699.652 265.973 699.17 265.012 699.17C264.555 699.17 264.203 699.293 263.957 699.539C263.711 699.785 263.588 700.15 263.588 700.635ZM273.895 705V700.846C273.895 700.322 273.775 699.932 273.537 699.674C273.299 699.416 272.926 699.287 272.418 699.287C271.742 699.287 271.248 699.471 270.936 699.838C270.627 700.205 270.473 700.807 270.473 701.643V705H269.5V695.883H270.473V698.643C270.473 698.975 270.457 699.25 270.426 699.469H270.484C270.676 699.16 270.947 698.918 271.299 698.742C271.654 698.562 272.059 698.473 272.512 698.473C273.297 698.473 273.885 698.66 274.275 699.035C274.67 699.406 274.867 699.998 274.867 700.811V705H273.895ZM276.332 702.229V701.338H279.209V702.229H276.332ZM281.881 701.438V705H280.885V696.434H283.234C284.285 696.434 285.061 696.635 285.561 697.037C286.064 697.439 286.316 698.045 286.316 698.854C286.316 699.986 285.742 700.752 284.594 701.15L286.92 705H285.742L283.668 701.438H281.881ZM281.881 700.582H283.246C283.949 700.582 284.465 700.443 284.793 700.166C285.121 699.885 285.285 699.465 285.285 698.906C285.285 698.34 285.117 697.932 284.781 697.682C284.449 697.432 283.914 697.307 283.176 697.307H281.881V700.582ZM290.869 705.117C289.92 705.117 289.17 704.828 288.619 704.25C288.072 703.672 287.799 702.869 287.799 701.842C287.799 700.807 288.053 699.984 288.561 699.375C289.072 698.766 289.758 698.461 290.617 698.461C291.422 698.461 292.059 698.727 292.527 699.258C292.996 699.785 293.23 700.482 293.23 701.35V701.965H288.807C288.826 702.719 289.016 703.291 289.375 703.682C289.738 704.072 290.248 704.268 290.904 704.268C291.596 704.268 292.279 704.123 292.955 703.834V704.701C292.611 704.85 292.285 704.955 291.977 705.018C291.672 705.084 291.303 705.117 290.869 705.117ZM290.605 699.275C290.09 699.275 289.678 699.443 289.369 699.779C289.064 700.115 288.885 700.58 288.83 701.174H292.188C292.188 700.561 292.051 700.092 291.777 699.768C291.504 699.439 291.113 699.275 290.605 699.275ZM299.037 703.248C299.037 703.846 298.814 704.307 298.369 704.631C297.924 704.955 297.299 705.117 296.494 705.117C295.643 705.117 294.979 704.982 294.502 704.713V703.811C294.811 703.967 295.141 704.09 295.492 704.18C295.848 704.27 296.189 704.314 296.518 704.314C297.025 704.314 297.416 704.234 297.689 704.074C297.963 703.91 298.1 703.662 298.1 703.33C298.1 703.08 297.99 702.867 297.771 702.691C297.557 702.512 297.135 702.301 296.506 702.059C295.908 701.836 295.482 701.643 295.229 701.479C294.979 701.311 294.791 701.121 294.666 700.91C294.545 700.699 294.484 700.447 294.484 700.154C294.484 699.631 294.697 699.219 295.123 698.918C295.549 698.613 296.133 698.461 296.875 698.461C297.566 698.461 298.242 698.602 298.902 698.883L298.557 699.674C297.912 699.408 297.328 699.275 296.805 699.275C296.344 699.275 295.996 699.348 295.762 699.492C295.527 699.637 295.41 699.836 295.41 700.09C295.41 700.262 295.453 700.408 295.539 700.529C295.629 700.65 295.771 700.766 295.967 700.875C296.162 700.984 296.537 701.143 297.092 701.35C297.854 701.627 298.367 701.906 298.633 702.188C298.902 702.469 299.037 702.822 299.037 703.248ZM303.889 705V696.434H304.885V705H303.889ZM315.279 705V700.822C315.279 700.311 315.17 699.928 314.951 699.674C314.732 699.416 314.393 699.287 313.932 699.287C313.326 699.287 312.879 699.461 312.59 699.809C312.301 700.156 312.156 700.691 312.156 701.414V705H311.184V700.822C311.184 700.311 311.074 699.928 310.855 699.674C310.637 699.416 310.295 699.287 309.83 699.287C309.221 699.287 308.773 699.471 308.488 699.838C308.207 700.201 308.066 700.799 308.066 701.631V705H307.094V698.578H307.885L308.043 699.457H308.09C308.273 699.145 308.531 698.9 308.863 698.725C309.199 698.549 309.574 698.461 309.988 698.461C310.992 698.461 311.648 698.824 311.957 699.551H312.004C312.195 699.215 312.473 698.949 312.836 698.754C313.199 698.559 313.613 698.461 314.078 698.461C314.805 698.461 315.348 698.648 315.707 699.023C316.07 699.395 316.252 699.99 316.252 700.811V705H315.279ZM322.211 705L322.018 704.086H321.971C321.65 704.488 321.33 704.762 321.01 704.906C320.693 705.047 320.297 705.117 319.82 705.117C319.184 705.117 318.684 704.953 318.32 704.625C317.961 704.297 317.781 703.83 317.781 703.225C317.781 701.928 318.818 701.248 320.893 701.186L321.982 701.15V700.752C321.982 700.248 321.873 699.877 321.654 699.639C321.439 699.396 321.094 699.275 320.617 699.275C320.082 699.275 319.477 699.439 318.801 699.768L318.502 699.023C318.818 698.852 319.164 698.717 319.539 698.619C319.918 698.521 320.297 698.473 320.676 698.473C321.441 698.473 322.008 698.643 322.375 698.982C322.746 699.322 322.932 699.867 322.932 700.617V705H322.211ZM320.014 704.314C320.619 704.314 321.094 704.148 321.438 703.816C321.785 703.484 321.959 703.02 321.959 702.422V701.842L320.986 701.883C320.213 701.91 319.654 702.031 319.311 702.246C318.971 702.457 318.801 702.787 318.801 703.236C318.801 703.588 318.906 703.855 319.117 704.039C319.332 704.223 319.631 704.314 320.014 704.314ZM330.197 698.578V699.193L329.008 699.334C329.117 699.471 329.215 699.65 329.301 699.873C329.387 700.092 329.43 700.34 329.43 700.617C329.43 701.246 329.215 701.748 328.785 702.123C328.355 702.498 327.766 702.686 327.016 702.686C326.824 702.686 326.645 702.67 326.477 702.639C326.062 702.857 325.855 703.133 325.855 703.465C325.855 703.641 325.928 703.771 326.072 703.857C326.217 703.939 326.465 703.98 326.816 703.98H327.953C328.648 703.98 329.182 704.127 329.553 704.42C329.928 704.713 330.115 705.139 330.115 705.697C330.115 706.408 329.83 706.949 329.26 707.32C328.689 707.695 327.857 707.883 326.764 707.883C325.924 707.883 325.275 707.727 324.818 707.414C324.365 707.102 324.139 706.66 324.139 706.09C324.139 705.699 324.264 705.361 324.514 705.076C324.764 704.791 325.115 704.598 325.568 704.496C325.404 704.422 325.266 704.307 325.152 704.15C325.043 703.994 324.988 703.812 324.988 703.605C324.988 703.371 325.051 703.166 325.176 702.99C325.301 702.814 325.498 702.645 325.768 702.48C325.436 702.344 325.164 702.111 324.953 701.783C324.746 701.455 324.643 701.08 324.643 700.658C324.643 699.955 324.854 699.414 325.275 699.035C325.697 698.652 326.295 698.461 327.068 698.461C327.404 698.461 327.707 698.5 327.977 698.578H330.197ZM325.076 706.078C325.076 706.426 325.223 706.689 325.516 706.869C325.809 707.049 326.229 707.139 326.775 707.139C327.592 707.139 328.195 707.016 328.586 706.77C328.98 706.527 329.178 706.197 329.178 705.779C329.178 705.432 329.07 705.189 328.855 705.053C328.641 704.92 328.236 704.854 327.643 704.854H326.477C326.035 704.854 325.691 704.959 325.445 705.17C325.199 705.381 325.076 705.684 325.076 706.078ZM325.604 700.635C325.604 701.084 325.73 701.424 325.984 701.654C326.238 701.885 326.592 702 327.045 702C327.994 702 328.469 701.539 328.469 700.617C328.469 699.652 327.988 699.17 327.027 699.17C326.57 699.17 326.219 699.293 325.973 699.539C325.727 699.785 325.604 700.15 325.604 700.635ZM334.229 705.117C333.279 705.117 332.529 704.828 331.979 704.25C331.432 703.672 331.158 702.869 331.158 701.842C331.158 700.807 331.412 699.984 331.92 699.375C332.432 698.766 333.117 698.461 333.977 698.461C334.781 698.461 335.418 698.727 335.887 699.258C336.355 699.785 336.59 700.482 336.59 701.35V701.965H332.166C332.186 702.719 332.375 703.291 332.734 703.682C333.098 704.072 333.607 704.268 334.264 704.268C334.955 704.268 335.639 704.123 336.314 703.834V704.701C335.971 704.85 335.645 704.955 335.336 705.018C335.031 705.084 334.662 705.117 334.229 705.117ZM333.965 699.275C333.449 699.275 333.037 699.443 332.729 699.779C332.424 700.115 332.244 700.58 332.189 701.174H335.547C335.547 700.561 335.41 700.092 335.137 699.768C334.863 699.439 334.473 699.275 333.965 699.275ZM256.609 714.93C256.609 715.797 256.312 716.465 255.719 716.934C255.129 717.398 254.283 717.631 253.182 717.631H252.174V721H251.178V712.434H253.398C255.539 712.434 256.609 713.266 256.609 714.93ZM252.174 716.775H253.07C253.953 716.775 254.592 716.633 254.986 716.348C255.381 716.062 255.578 715.605 255.578 714.977C255.578 714.41 255.393 713.988 255.021 713.711C254.65 713.434 254.072 713.295 253.287 713.295H252.174V716.775ZM265.1 721H263.963L259.281 713.811H259.234C259.297 714.654 259.328 715.428 259.328 716.131V721H258.408V712.434H259.533L264.203 719.594H264.25C264.242 719.488 264.225 719.15 264.197 718.58C264.17 718.006 264.16 717.596 264.168 717.35V712.434H265.1V721ZM271.223 716.512H274.135V720.678C273.682 720.822 273.221 720.932 272.752 721.006C272.283 721.08 271.74 721.117 271.123 721.117C269.826 721.117 268.816 720.732 268.094 719.963C267.371 719.189 267.01 718.107 267.01 716.717C267.01 715.826 267.188 715.047 267.543 714.379C267.902 713.707 268.418 713.195 269.09 712.844C269.762 712.488 270.549 712.311 271.451 712.311C272.365 712.311 273.217 712.479 274.006 712.814L273.619 713.693C272.846 713.365 272.102 713.201 271.387 713.201C270.344 713.201 269.529 713.512 268.943 714.133C268.357 714.754 268.064 715.615 268.064 716.717C268.064 717.873 268.346 718.75 268.908 719.348C269.475 719.945 270.305 720.244 271.398 720.244C271.992 720.244 272.572 720.176 273.139 720.039V717.402H271.223V716.512ZM277.07 719.605L277.158 719.74C277.057 720.131 276.91 720.584 276.719 721.1C276.527 721.619 276.328 722.102 276.121 722.547H275.389C275.494 722.141 275.609 721.639 275.734 721.041C275.863 720.443 275.953 719.965 276.004 719.605H277.07ZM281.008 723.256C280.641 723.256 280.352 723.203 280.141 723.098V722.248C280.418 722.326 280.707 722.365 281.008 722.365C281.395 722.365 281.688 722.248 281.887 722.014C282.09 721.779 282.191 721.441 282.191 721V712.434H283.188V720.918C283.188 721.66 283 722.234 282.625 722.641C282.25 723.051 281.711 723.256 281.008 723.256ZM290.898 714.93C290.898 715.797 290.602 716.465 290.008 716.934C289.418 717.398 288.572 717.631 287.471 717.631H286.463V721H285.467V712.434H287.688C289.828 712.434 290.898 713.266 290.898 714.93ZM286.463 716.775H287.359C288.242 716.775 288.881 716.633 289.275 716.348C289.67 716.062 289.867 715.605 289.867 714.977C289.867 714.41 289.682 713.988 289.311 713.711C288.939 713.434 288.361 713.295 287.576 713.295H286.463V716.775ZM296.465 716.512H299.377V720.678C298.924 720.822 298.463 720.932 297.994 721.006C297.525 721.08 296.982 721.117 296.365 721.117C295.068 721.117 294.059 720.732 293.336 719.963C292.613 719.189 292.252 718.107 292.252 716.717C292.252 715.826 292.43 715.047 292.785 714.379C293.145 713.707 293.66 713.195 294.332 712.844C295.004 712.488 295.791 712.311 296.693 712.311C297.607 712.311 298.459 712.479 299.248 712.814L298.861 713.693C298.088 713.365 297.344 713.201 296.629 713.201C295.586 713.201 294.771 713.512 294.186 714.133C293.6 714.754 293.307 715.615 293.307 716.717C293.307 717.873 293.588 718.75 294.15 719.348C294.717 719.945 295.547 720.244 296.641 720.244C297.234 720.244 297.814 720.176 298.381 720.039V717.402H296.465V716.512ZM309.953 717.783C309.953 718.83 309.689 719.648 309.162 720.238C308.635 720.824 307.906 721.117 306.977 721.117C306.402 721.117 305.893 720.982 305.447 720.713C305.002 720.443 304.658 720.057 304.416 719.553C304.174 719.049 304.053 718.459 304.053 717.783C304.053 716.736 304.314 715.922 304.838 715.34C305.361 714.754 306.088 714.461 307.018 714.461C307.916 714.461 308.629 714.76 309.156 715.357C309.688 715.955 309.953 716.764 309.953 717.783ZM305.061 717.783C305.061 718.604 305.225 719.229 305.553 719.658C305.881 720.088 306.363 720.303 307 720.303C307.637 720.303 308.119 720.09 308.447 719.664C308.779 719.234 308.945 718.607 308.945 717.783C308.945 716.967 308.779 716.348 308.447 715.926C308.119 715.5 307.633 715.287 306.988 715.287C306.352 715.287 305.871 715.496 305.547 715.914C305.223 716.332 305.061 716.955 305.061 717.783ZM314.594 714.461C314.879 714.461 315.135 714.484 315.361 714.531L315.227 715.434C314.961 715.375 314.727 715.346 314.523 715.346C314.004 715.346 313.559 715.557 313.188 715.979C312.82 716.4 312.637 716.926 312.637 717.555V721H311.664V714.578H312.467L312.578 715.768H312.625C312.863 715.35 313.15 715.027 313.486 714.801C313.822 714.574 314.191 714.461 314.594 714.461ZM323.594 716.512H326.506V720.678C326.053 720.822 325.592 720.932 325.123 721.006C324.654 721.08 324.111 721.117 323.494 721.117C322.197 721.117 321.188 720.732 320.465 719.963C319.742 719.189 319.381 718.107 319.381 716.717C319.381 715.826 319.559 715.047 319.914 714.379C320.273 713.707 320.789 713.195 321.461 712.844C322.133 712.488 322.92 712.311 323.822 712.311C324.736 712.311 325.588 712.479 326.377 712.814L325.99 713.693C325.217 713.365 324.473 713.201 323.758 713.201C322.715 713.201 321.9 713.512 321.314 714.133C320.729 714.754 320.436 715.615 320.436 716.717C320.436 717.873 320.717 718.75 321.279 719.348C321.846 719.945 322.676 720.244 323.77 720.244C324.363 720.244 324.943 720.176 325.51 720.039V717.402H323.594V716.512ZM328.568 721V712.434H329.564V721H328.568ZM332.916 721H331.92V712.434H336.695V713.318H332.916V716.453H336.467V717.338H332.916V721Z" fill="#1F2A36"/>
<path d="M235 692H209C207.343 692 206 693.343 206 695V721C206 722.657 207.343 724 209 724H235C236.657 724 238 722.657 238 721V695C238 693.343 236.657 692 235 692ZM236 721C236 721.552 235.552 722 235 722H209C208.448 722 208 721.552 208 721V695C208 694.448 208.448 694 209 694H235C235.552 694 236 694.448 236 695V721Z" fill="#9EA0A5"/>
<path d="M227.71 709.29C227.32 708.902 226.69 708.902 226.3 709.29L224 711.59L219.71 707.3C219.32 706.912 218.69 706.912 218.3 707.3L211.3 714.3C210.913 714.694 210.919 715.327 211.314 715.714C211.497 715.894 211.743 715.996 212 716H232C232.552 716.003 233.002 715.558 233.005 715.006C233.007 714.737 232.9 714.479 232.71 714.29L227.71 709.29Z" fill="#9EA0A5"/>
<path d="M225 706C226.657 706 228 704.657 228 703C228 701.343 226.657 700 225 700C223.343 700 222 701.343 222 703C222 704.657 223.343 706 225 706Z" fill="#9EA0A5"/>
<defs>
<clipPath id="clip0_0_1">
<rect width="114" height="114" fill="white" transform="translate(322 479)"/>
</clipPath>
</defs>
</svg>
