<svg width="63" height="18" viewBox="0 0 63 18" fill="none" xmlns="http://www.w3.org/2000/svg">
<path d="M32.957 17H24.0732V1.29492H32.957V3.46484H26.6406V7.74023H32.5596V9.88867H26.6406V14.8193H32.957V17ZM40.1006 17.2148C38.6182 17.2148 37.4616 16.6777 36.6309 15.6035C35.8001 14.5293 35.3848 13.0218 35.3848 11.0811C35.3848 9.13314 35.8037 7.61849 36.6416 6.53711C37.4867 5.44857 38.654 4.9043 40.1436 4.9043C41.7048 4.9043 42.8936 5.48079 43.71 6.63379H43.8389C43.7171 5.78158 43.6562 5.1084 43.6562 4.61426V0.285156H46.1914V17H44.2148L43.7744 15.4424H43.6562C42.847 16.624 41.6618 17.2148 40.1006 17.2148ZM40.7773 15.1738C41.8158 15.1738 42.5713 14.8838 43.0439 14.3037C43.5166 13.7165 43.7601 12.7676 43.7744 11.457V11.1025C43.7744 9.60579 43.5309 8.54232 43.0439 7.91211C42.557 7.2819 41.7943 6.9668 40.7559 6.9668C39.8678 6.9668 39.1839 7.32845 38.7041 8.05176C38.2243 8.7679 37.9844 9.79199 37.9844 11.124C37.9844 12.4417 38.2171 13.4479 38.6826 14.1426C39.1481 14.8301 39.8464 15.1738 40.7773 15.1738ZM52.3252 17H49.8008V5.11914H52.3252V17ZM49.6504 1.97168C49.6504 1.52051 49.7721 1.17318 50.0156 0.929688C50.2663 0.686198 50.6208 0.564453 51.0791 0.564453C51.5231 0.564453 51.8669 0.686198 52.1104 0.929688C52.361 1.17318 52.4863 1.52051 52.4863 1.97168C52.4863 2.40137 52.361 2.74154 52.1104 2.99219C51.8669 3.23568 51.5231 3.35742 51.0791 3.35742C50.6208 3.35742 50.2663 3.23568 50.0156 2.99219C49.7721 2.74154 49.6504 2.40137 49.6504 1.97168ZM60.3711 15.1738C60.987 15.1738 61.6029 15.0771 62.2188 14.8838V16.7852C61.9395 16.9069 61.5778 17.0072 61.1338 17.0859C60.6969 17.1719 60.2422 17.2148 59.7695 17.2148C57.3776 17.2148 56.1816 15.9544 56.1816 13.4336V7.03125H54.5596V5.91406L56.2998 4.99023L57.1592 2.47656H58.7168V5.11914H62.1006V7.03125H58.7168V13.3906C58.7168 13.9993 58.8672 14.4505 59.168 14.7441C59.4759 15.0306 59.877 15.1738 60.3711 15.1738Z" fill="#9EA0A5"/>
<path d="M0 13.6663V17.0001H3.33379L13.1707 7.16314L9.8369 3.82935L0 13.6663Z" fill="#9B9B9B"/>
<path d="M15.74 3.33586L13.6642 1.26004C13.3174 0.913321 12.7529 0.913321 12.4062 1.26004L10.7793 2.88693L14.1131 6.22072L15.74 4.59383C16.0867 4.24711 16.0867 3.68258 15.74 3.33586Z" fill="#9B9B9B"/>
</svg>
