<svg width="14" height="16" viewBox="0 0 14 16" fill="none" xmlns="http://www.w3.org/2000/svg">
<path d="M13 6.66663C13 11.3333 7 15.3333 7 15.3333C7 15.3333 1 11.3333 1 6.66663C1 5.07533 1.63214 3.5492 2.75736 2.42399C3.88258 1.29877 5.4087 0.666626 7 0.666626C8.5913 0.666626 10.1174 1.29877 11.2426 2.42399C12.3679 3.5492 13 5.07533 13 6.66663Z" stroke="#9EA0A5" stroke-width="1.33333" stroke-linecap="round" stroke-linejoin="round"/>
<path d="M7 8.66663C8.10457 8.66663 9 7.7712 9 6.66663C9 5.56206 8.10457 4.66663 7 4.66663C5.89543 4.66663 5 5.56206 5 6.66663C5 7.7712 5.89543 8.66663 7 8.66663Z" stroke="#9EA0A5" stroke-width="1.33333" stroke-linecap="round" stroke-linejoin="round"/>
</svg>
