<svg width="24" height="24" viewBox="0 0 24 24" fill="none" xmlns="http://www.w3.org/2000/svg">
<path d="M17 2H7C4.23858 2 2 4.23858 2 7V17C2 19.7614 4.23858 22 7 22H17C19.7614 22 22 19.7614 22 17V7C22 4.23858 19.7614 2 17 2Z" stroke="#9EA0A5" stroke-width="2.33333" stroke-linecap="round" stroke-linejoin="round"/>
<path d="M15.9997 11.3699C16.1231 12.2022 15.981 13.0522 15.5935 13.799C15.206 14.5457 14.5929 15.1513 13.8413 15.5296C13.0898 15.9079 12.2382 16.0395 11.4075 15.9059C10.5768 15.7722 9.80947 15.38 9.21455 14.7851C8.61962 14.1902 8.22744 13.4228 8.09377 12.5921C7.96011 11.7615 8.09177 10.9098 8.47003 10.1583C8.84829 9.40679 9.45389 8.79368 10.2007 8.40618C10.9475 8.01868 11.7975 7.87652 12.6297 7.99994C13.4786 8.12582 14.2646 8.5214 14.8714 9.12824C15.4782 9.73508 15.8738 10.521 15.9997 11.3699Z" stroke="#9EA0A5" stroke-width="2.33333" stroke-linecap="round" stroke-linejoin="round"/>
<path d="M17.5 6.5H17.51" stroke="#9EA0A5" stroke-width="2.33333" stroke-linecap="round" stroke-linejoin="round"/>
</svg>
