<svg width="12" height="20" viewBox="0 0 12 20" fill="none" xmlns="http://www.w3.org/2000/svg">
<path d="M11.5558 9.2196L2.65555 0.31951C2.4497 0.113495 2.1749 0 1.8819 0C1.58889 0 1.3141 0.113495 1.10824 0.31951L0.452802 0.974789C0.0263017 1.40178 0.0263017 2.09576 0.452802 2.52209L7.92656 9.99585L0.44451 17.4779C0.238658 17.6839 0.125 17.9586 0.125 18.2514C0.125 18.5446 0.238658 18.8192 0.44451 19.0254L1.09995 19.6805C1.30597 19.8865 1.5806 20 1.8736 20C2.16661 20 2.4414 19.8865 2.64726 19.6805L11.5558 10.7723C11.7621 10.5656 11.8755 10.2897 11.8748 9.99634C11.8755 9.70187 11.7621 9.4261 11.5558 9.2196Z" fill="#DDDDDE"/>
</svg>
